{"glyphs":{"0":{"ha":694,"x_min":0,"x_max":521,"o":"m 174 694 l 174 868 l 347 868 l 347 694 l 174 694 m 174 174 l 0 174 l 0 694 l 174 694 l 174 174 m 521 174 l 347 174 l 347 694 l 521 694 l 521 174 m 347 174 l 347 0 l 174 0 l 174 174 l 347 174 z "},"1":{"ha":694,"x_min":0,"x_max":347,"o":"m 347 0 l 174 0 l 174 521 l 0 521 l 0 694 l 174 694 l 174 868 l 347 868 l 347 0 z "},"2":{"ha":694,"x_min":0,"x_max":521,"o":"m 0 694 l 0 868 l 347 868 l 347 694 l 0 694 m 521 521 l 347 521 l 347 694 l 521 694 l 521 521 m 347 521 l 347 347 l 174 347 l 174 521 l 347 521 m 521 174 l 521 0 l 0 0 l 0 347 l 174 347 l 174 174 l 521 174 z "},"3":{"ha":694,"x_min":0,"x_max":521,"o":"m 0 694 l 0 868 l 347 868 l 347 694 l 0 694 m 521 521 l 347 521 l 347 694 l 521 694 l 521 521 m 347 521 l 347 347 l 174 347 l 174 521 l 347 521 m 521 174 l 347 174 l 347 347 l 521 347 l 521 174 m 347 174 l 347 0 l 0 0 l 0 174 l 347 174 z "},"4":{"ha":694,"x_min":0,"x_max":521,"o":"m 347 0 l 347 174 l 0 174 l 0 521 l 174 521 l 174 347 l 347 347 l 347 521 l 174 521 l 174 694 l 347 694 l 347 868 l 521 868 l 521 0 l 347 0 z "},"5":{"ha":694,"x_min":0,"x_max":521,"o":"m 174 521 l 347 521 l 347 347 l 0 347 l 0 868 l 521 868 l 521 694 l 174 694 l 174 521 m 521 174 l 347 174 l 347 347 l 521 347 l 521 174 m 347 174 l 347 0 l 0 0 l 0 174 l 347 174 z "},"6":{"ha":694,"x_min":0,"x_max":521,"o":"m 174 694 l 174 868 l 521 868 l 521 694 l 174 694 m 174 174 l 0 174 l 0 694 l 174 694 l 174 521 l 347 521 l 347 347 l 174 347 l 174 174 m 521 174 l 347 174 l 347 347 l 521 347 l 521 174 m 347 174 l 347 0 l 174 0 l 174 174 l 347 174 z "},"7":{"ha":694,"x_min":0,"x_max":521,"o":"m 347 521 l 347 694 l 0 694 l 0 868 l 521 868 l 521 521 l 347 521 m 347 0 l 174 0 l 174 521 l 347 521 l 347 0 z "},"8":{"ha":694,"x_min":0,"x_max":521,"o":"m 174 694 l 174 868 l 347 868 l 347 694 l 174 694 m 0 521 l 0 694 l 174 694 l 174 521 l 0 521 m 347 521 l 347 694 l 521 694 l 521 521 l 347 521 m 174 521 l 347 521 l 347 347 l 174 347 l 174 521 m 0 174 l 0 347 l 174 347 l 174 174 l 0 174 m 347 174 l 347 347 l 521 347 l 521 174 l 347 174 m 174 174 l 347 174 l 347 0 l 174 0 l 174 174 z "},"9":{"ha":694,"x_min":0,"x_max":521,"o":"m 174 694 l 174 868 l 347 868 l 347 694 l 174 694 m 0 521 l 0 694 l 174 694 l 174 521 l 347 521 l 347 694 l 521 694 l 521 174 l 347 174 l 347 347 l 174 347 l 174 521 l 0 521 m 347 174 l 347 0 l 0 0 l 0 174 l 347 174 z "},"A":{"ha":868,"x_min":0,"x_max":694,"o":"m 174 694 l 174 868 l 521 868 l 521 694 l 174 694 m 174 0 l 0 0 l 0 694 l 174 694 l 174 521 l 521 521 l 521 694 l 694 694 l 694 0 l 521 0 l 521 347 l 174 347 l 174 0 z "},"Æ":{"ha":1042,"x_min":0,"x_max":868,"o":"m 868 174 l 868 0 l 347 0 l 347 347 l 174 347 l 174 0 l 0 0 l 0 694 l 174 694 l 174 521 l 347 521 l 347 694 l 174 694 l 174 868 l 868 868 l 868 694 l 521 694 l 521 521 l 868 521 l 868 347 l 521 347 l 521 174 l 868 174 z "},"Ǽ":{"ha":1042,"x_min":0,"x_max":868,"o":"m 521 1215 l 521 1389 l 694 1389 l 694 1215 l 521 1215 m 347 1042 l 347 1215 l 521 1215 l 521 1042 l 347 1042 m 868 174 l 868 0 l 347 0 l 347 347 l 174 347 l 174 0 l 0 0 l 0 694 l 174 694 l 174 521 l 347 521 l 347 694 l 174 694 l 174 868 l 868 868 l 868 694 l 521 694 l 521 521 l 868 521 l 868 347 l 521 347 l 521 174 l 868 174 z "},"Á":{"ha":868,"x_min":0,"x_max":694,"o":"m 347 1215 l 347 1389 l 521 1389 l 521 1215 l 347 1215 m 174 1042 l 174 1215 l 347 1215 l 347 1042 l 174 1042 m 174 694 l 174 868 l 521 868 l 521 694 l 174 694 m 174 0 l 0 0 l 0 694 l 174 694 l 174 521 l 521 521 l 521 694 l 694 694 l 694 0 l 521 0 l 521 347 l 174 347 l 174 0 z "},"Ă":{"ha":868,"x_min":0,"x_max":694,"o":"m 0 1389 l 174 1389 l 174 1215 l 0 1215 l 0 1389 m 521 1389 l 694 1389 l 694 1215 l 521 1215 l 521 1389 m 174 1215 l 521 1215 l 521 1042 l 174 1042 l 174 1215 m 174 694 l 174 868 l 521 868 l 521 694 l 174 694 m 174 0 l 0 0 l 0 694 l 174 694 l 174 521 l 521 521 l 521 694 l 694 694 l 694 0 l 521 0 l 521 347 l 174 347 l 174 0 z "},"Â":{"ha":868,"x_min":0,"x_max":694,"o":"m 174 1215 l 174 1389 l 521 1389 l 521 1215 l 174 1215 m 0 1042 l 0 1215 l 174 1215 l 174 1042 l 0 1042 m 521 1042 l 521 1215 l 694 1215 l 694 1042 l 521 1042 m 174 694 l 174 868 l 521 868 l 521 694 l 174 694 m 174 0 l 0 0 l 0 694 l 174 694 l 174 521 l 521 521 l 521 694 l 694 694 l 694 0 l 521 0 l 521 347 l 174 347 l 174 0 z "},"Ä":{"ha":868,"x_min":0,"x_max":694,"o":"m 0 1042 l 0 1215 l 174 1215 l 174 1042 l 0 1042 m 521 1042 l 521 1215 l 694 1215 l 694 1042 l 521 1042 m 174 694 l 174 868 l 521 868 l 521 694 l 174 694 m 174 0 l 0 0 l 0 694 l 174 694 l 174 521 l 521 521 l 521 694 l 694 694 l 694 0 l 521 0 l 521 347 l 174 347 l 174 0 z "},"À":{"ha":868,"x_min":0,"x_max":694,"o":"m 174 1215 l 174 1389 l 347 1389 l 347 1215 l 174 1215 m 347 1042 l 347 1215 l 521 1215 l 521 1042 l 347 1042 m 174 694 l 174 868 l 521 868 l 521 694 l 174 694 m 174 0 l 0 0 l 0 694 l 174 694 l 174 521 l 521 521 l 521 694 l 694 694 l 694 0 l 521 0 l 521 347 l 174 347 l 174 0 z "},"Ā":{"ha":868,"x_min":0,"x_max":694,"o":"m 0 1042 l 0 1215 l 694 1215 l 694 1042 l 0 1042 m 174 694 l 174 868 l 521 868 l 521 694 l 174 694 m 174 0 l 0 0 l 0 694 l 174 694 l 174 521 l 521 521 l 521 694 l 694 694 l 694 0 l 521 0 l 521 347 l 174 347 l 174 0 z "},"Ą":{"ha":868,"x_min":0,"x_max":694,"o":"m 347 -174 l 347 0 l 521 0 l 521 -174 l 347 -174 m 174 694 l 174 868 l 521 868 l 521 694 l 174 694 m 174 0 l 0 0 l 0 694 l 174 694 l 174 521 l 521 521 l 521 694 l 694 694 l 694 0 l 521 0 l 521 347 l 174 347 l 174 0 z "},"Å":{"ha":868,"x_min":0,"x_max":694,"o":"m 347 1215 l 347 1389 l 521 1389 l 521 1215 l 347 1215 m 174 1042 l 174 1215 l 347 1215 l 347 1042 l 174 1042 m 521 1042 l 521 1215 l 694 1215 l 694 1042 l 521 1042 m 347 1042 l 521 1042 l 521 868 l 347 868 l 347 1042 m 174 694 l 174 868 l 521 868 l 521 694 l 174 694 m 174 0 l 0 0 l 0 694 l 174 694 l 174 521 l 521 521 l 521 694 l 694 694 l 694 0 l 521 0 l 521 347 l 174 347 l 174 0 z "},"Ã":{"ha":868,"x_min":0,"x_max":694,"o":"m 174 1042 l 174 1215 l 521 1215 l 521 1042 l 174 1042 m 174 694 l 174 868 l 521 868 l 521 694 l 174 694 m 174 0 l 0 0 l 0 694 l 174 694 l 174 521 l 521 521 l 521 694 l 694 694 l 694 0 l 521 0 l 521 347 l 174 347 l 174 0 z "},"B":{"ha":868,"x_min":0,"x_max":694,"o":"m 174 174 l 521 174 l 521 0 l 0 0 l 0 868 l 521 868 l 521 694 l 174 694 l 174 521 l 521 521 l 521 347 l 174 347 l 174 174 m 694 521 l 521 521 l 521 694 l 694 694 l 694 521 m 694 174 l 521 174 l 521 347 l 694 347 l 694 174 z "},"C":{"ha":868,"x_min":0,"x_max":694,"o":"m 174 694 l 174 868 l 521 868 l 521 694 l 174 694 m 174 174 l 0 174 l 0 694 l 174 694 l 174 174 m 521 521 l 521 694 l 694 694 l 694 521 l 521 521 m 694 174 l 521 174 l 521 347 l 694 347 l 694 174 m 521 174 l 521 0 l 174 0 l 174 174 l 521 174 z "},"Ć":{"ha":868,"x_min":0,"x_max":694,"o":"m 347 1215 l 347 1389 l 521 1389 l 521 1215 l 347 1215 m 174 1042 l 174 1215 l 347 1215 l 347 1042 l 174 1042 m 174 694 l 174 868 l 521 868 l 521 694 l 174 694 m 174 174 l 0 174 l 0 694 l 174 694 l 174 174 m 521 521 l 521 694 l 694 694 l 694 521 l 521 521 m 694 174 l 521 174 l 521 347 l 694 347 l 694 174 m 521 174 l 521 0 l 174 0 l 174 174 l 521 174 z "},"Č":{"ha":868,"x_min":0,"x_max":694,"o":"m 0 1389 l 174 1389 l 174 1215 l 0 1215 l 0 1389 m 521 1389 l 694 1389 l 694 1215 l 521 1215 l 521 1389 m 174 1215 l 521 1215 l 521 1042 l 174 1042 l 174 1215 m 174 694 l 174 868 l 521 868 l 521 694 l 174 694 m 174 174 l 0 174 l 0 694 l 174 694 l 174 174 m 521 521 l 521 694 l 694 694 l 694 521 l 521 521 m 694 174 l 521 174 l 521 347 l 694 347 l 694 174 m 521 174 l 521 0 l 174 0 l 174 174 l 521 174 z "},"Ç":{"ha":868,"x_min":0,"x_max":694,"o":"m 347 -174 l 347 0 l 521 0 l 521 -174 l 347 -174 m 174 694 l 174 868 l 521 868 l 521 694 l 174 694 m 174 174 l 0 174 l 0 694 l 174 694 l 174 174 m 521 521 l 521 694 l 694 694 l 694 521 l 521 521 m 694 174 l 521 174 l 521 347 l 694 347 l 694 174 m 521 174 l 521 0 l 174 0 l 174 174 l 521 174 z "},"Ĉ":{"ha":868,"x_min":0,"x_max":694,"o":"m 174 1215 l 174 1389 l 521 1389 l 521 1215 l 174 1215 m 0 1042 l 0 1215 l 174 1215 l 174 1042 l 0 1042 m 521 1042 l 521 1215 l 694 1215 l 694 1042 l 521 1042 m 174 694 l 174 868 l 521 868 l 521 694 l 174 694 m 174 174 l 0 174 l 0 694 l 174 694 l 174 174 m 521 521 l 521 694 l 694 694 l 694 521 l 521 521 m 694 174 l 521 174 l 521 347 l 694 347 l 694 174 m 521 174 l 521 0 l 174 0 l 174 174 l 521 174 z "},"Ċ":{"ha":868,"x_min":0,"x_max":694,"o":"m 347 1042 l 347 1215 l 521 1215 l 521 1042 l 347 1042 m 174 694 l 174 868 l 521 868 l 521 694 l 174 694 m 174 174 l 0 174 l 0 694 l 174 694 l 174 174 m 521 521 l 521 694 l 694 694 l 694 521 l 521 521 m 694 174 l 521 174 l 521 347 l 694 347 l 694 174 m 521 174 l 521 0 l 174 0 l 174 174 l 521 174 z "},"D":{"ha":868,"x_min":0,"x_max":694,"o":"m 174 174 l 521 174 l 521 0 l 0 0 l 0 868 l 521 868 l 521 694 l 174 694 l 174 174 m 694 174 l 521 174 l 521 694 l 694 694 l 694 174 z "},"Ď":{"ha":868,"x_min":0,"x_max":694,"o":"m 0 1389 l 174 1389 l 174 1215 l 0 1215 l 0 1389 m 521 1389 l 694 1389 l 694 1215 l 521 1215 l 521 1389 m 174 1215 l 521 1215 l 521 1042 l 174 1042 l 174 1215 m 174 174 l 521 174 l 521 0 l 0 0 l 0 868 l 521 868 l 521 694 l 174 694 l 174 174 m 694 174 l 521 174 l 521 694 l 694 694 l 694 174 z "},"Đ":{"ha":868,"x_min":0,"x_max":694,"o":"m 174 174 l 521 174 l 521 0 l 0 0 l 0 868 l 521 868 l 521 694 l 174 694 l 174 521 l 347 521 l 347 347 l 174 347 l 174 174 m 694 174 l 521 174 l 521 694 l 694 694 l 694 174 z "},"∆":{"ha":1042,"x_min":0,"x_max":868,"o":"m 347 521 l 347 868 l 521 868 l 521 521 l 347 521 m 694 174 l 868 174 l 868 0 l 0 0 l 0 174 l 174 174 l 174 521 l 347 521 l 347 174 l 521 174 l 521 521 l 694 521 l 694 174 z "},"E":{"ha":868,"x_min":0,"x_max":694,"o":"m 694 174 l 694 0 l 0 0 l 0 868 l 694 868 l 694 694 l 174 694 l 174 521 l 521 521 l 521 347 l 174 347 l 174 174 l 694 174 z "},"É":{"ha":868,"x_min":0,"x_max":694,"o":"m 347 1215 l 347 1389 l 521 1389 l 521 1215 l 347 1215 m 174 1042 l 174 1215 l 347 1215 l 347 1042 l 174 1042 m 694 174 l 694 0 l 0 0 l 0 868 l 694 868 l 694 694 l 174 694 l 174 521 l 521 521 l 521 347 l 174 347 l 174 174 l 694 174 z "},"Ĕ":{"ha":868,"x_min":0,"x_max":694,"o":"m 0 1389 l 174 1389 l 174 1215 l 0 1215 l 0 1389 m 521 1389 l 694 1389 l 694 1215 l 521 1215 l 521 1389 m 174 1215 l 521 1215 l 521 1042 l 174 1042 l 174 1215 m 694 174 l 694 0 l 0 0 l 0 868 l 694 868 l 694 694 l 174 694 l 174 521 l 521 521 l 521 347 l 174 347 l 174 174 l 694 174 z "},"Ě":{"ha":868,"x_min":0,"x_max":694,"o":"m 0 1389 l 174 1389 l 174 1215 l 0 1215 l 0 1389 m 521 1389 l 694 1389 l 694 1215 l 521 1215 l 521 1389 m 174 1215 l 521 1215 l 521 1042 l 174 1042 l 174 1215 m 694 174 l 694 0 l 0 0 l 0 868 l 694 868 l 694 694 l 174 694 l 174 521 l 521 521 l 521 347 l 174 347 l 174 174 l 694 174 z "},"Ê":{"ha":868,"x_min":0,"x_max":694,"o":"m 174 1215 l 174 1389 l 521 1389 l 521 1215 l 174 1215 m 0 1042 l 0 1215 l 174 1215 l 174 1042 l 0 1042 m 521 1042 l 521 1215 l 694 1215 l 694 1042 l 521 1042 m 694 174 l 694 0 l 0 0 l 0 868 l 694 868 l 694 694 l 174 694 l 174 521 l 521 521 l 521 347 l 174 347 l 174 174 l 694 174 z "},"Ë":{"ha":868,"x_min":0,"x_max":694,"o":"m 0 1042 l 0 1215 l 174 1215 l 174 1042 l 0 1042 m 521 1042 l 521 1215 l 694 1215 l 694 1042 l 521 1042 m 694 174 l 694 0 l 0 0 l 0 868 l 694 868 l 694 694 l 174 694 l 174 521 l 521 521 l 521 347 l 174 347 l 174 174 l 694 174 z "},"Ė":{"ha":868,"x_min":0,"x_max":694,"o":"m 347 1042 l 347 1215 l 521 1215 l 521 1042 l 347 1042 m 694 174 l 694 0 l 0 0 l 0 868 l 694 868 l 694 694 l 174 694 l 174 521 l 521 521 l 521 347 l 174 347 l 174 174 l 694 174 z "},"È":{"ha":868,"x_min":0,"x_max":694,"o":"m 174 1215 l 174 1389 l 347 1389 l 347 1215 l 174 1215 m 347 1042 l 347 1215 l 521 1215 l 521 1042 l 347 1042 m 694 174 l 694 0 l 0 0 l 0 868 l 694 868 l 694 694 l 174 694 l 174 521 l 521 521 l 521 347 l 174 347 l 174 174 l 694 174 z "},"Ē":{"ha":868,"x_min":0,"x_max":694,"o":"m 0 1042 l 0 1215 l 694 1215 l 694 1042 l 0 1042 m 694 174 l 694 0 l 0 0 l 0 868 l 694 868 l 694 694 l 174 694 l 174 521 l 521 521 l 521 347 l 174 347 l 174 174 l 694 174 z "},"Ŋ":{"ha":868,"x_min":0,"x_max":694,"o":"m 174 0 l 0 0 l 0 868 l 174 868 l 174 694 l 347 694 l 347 521 l 174 521 l 174 0 m 521 0 l 521 347 l 347 347 l 347 521 l 521 521 l 521 868 l 694 868 l 694 0 l 521 0 m 347 -174 l 347 0 l 521 0 l 521 -174 l 347 -174 z "},"Ę":{"ha":868,"x_min":0,"x_max":694,"o":"m 347 -174 l 347 0 l 521 0 l 521 -174 l 347 -174 m 694 174 l 694 0 l 0 0 l 0 868 l 694 868 l 694 694 l 174 694 l 174 521 l 521 521 l 521 347 l 174 347 l 174 174 l 694 174 z "},"Ð":{"ha":868,"x_min":0,"x_max":694,"o":"m 174 174 l 521 174 l 521 0 l 0 0 l 0 868 l 521 868 l 521 694 l 174 694 l 174 521 l 347 521 l 347 347 l 174 347 l 174 174 m 694 174 l 521 174 l 521 694 l 694 694 l 694 174 z "},"€":{"ha":868,"x_min":0,"x_max":694,"o":"m 174 694 l 174 868 l 521 868 l 521 694 l 174 694 m 174 174 l 0 174 l 0 694 l 174 694 l 174 521 l 347 521 l 347 347 l 174 347 l 174 174 m 694 521 l 521 521 l 521 694 l 694 694 l 694 521 m 694 174 l 521 174 l 521 347 l 694 347 l 694 174 m 521 174 l 521 0 l 174 0 l 174 174 l 521 174 z "},"F":{"ha":868,"x_min":0,"x_max":694,"o":"m 174 0 l 0 0 l 0 868 l 694 868 l 694 694 l 174 694 l 174 521 l 521 521 l 521 347 l 174 347 l 174 0 z "},"G":{"ha":868,"x_min":0,"x_max":694,"o":"m 174 694 l 174 868 l 694 868 l 694 694 l 174 694 m 174 0 l 174 174 l 0 174 l 0 694 l 174 694 l 174 174 l 521 174 l 521 347 l 347 347 l 347 521 l 694 521 l 694 0 l 174 0 z "},"Ğ":{"ha":868,"x_min":0,"x_max":694,"o":"m 0 1389 l 174 1389 l 174 1215 l 0 1215 l 0 1389 m 521 1389 l 694 1389 l 694 1215 l 521 1215 l 521 1389 m 174 1215 l 521 1215 l 521 1042 l 174 1042 l 174 1215 m 174 694 l 174 868 l 694 868 l 694 694 l 174 694 m 174 0 l 174 174 l 0 174 l 0 694 l 174 694 l 174 174 l 521 174 l 521 347 l 347 347 l 347 521 l 694 521 l 694 0 l 174 0 z "},"Ĝ":{"ha":868,"x_min":0,"x_max":694,"o":"m 174 1215 l 174 1389 l 521 1389 l 521 1215 l 174 1215 m 0 1042 l 0 1215 l 174 1215 l 174 1042 l 0 1042 m 521 1042 l 521 1215 l 694 1215 l 694 1042 l 521 1042 m 174 694 l 174 868 l 694 868 l 694 694 l 174 694 m 174 0 l 174 174 l 0 174 l 0 694 l 174 694 l 174 174 l 521 174 l 521 347 l 347 347 l 347 521 l 694 521 l 694 0 l 174 0 z "},"Ģ":{"ha":868,"x_min":0,"x_max":694,"o":"m 347 -347 l 347 -174 l 521 -174 l 521 -347 l 347 -347 m 174 694 l 174 868 l 694 868 l 694 694 l 174 694 m 174 0 l 174 174 l 0 174 l 0 694 l 174 694 l 174 174 l 521 174 l 521 347 l 347 347 l 347 521 l 694 521 l 694 0 l 174 0 z "},"Ġ":{"ha":868,"x_min":0,"x_max":694,"o":"m 347 1042 l 347 1215 l 521 1215 l 521 1042 l 347 1042 m 174 694 l 174 868 l 694 868 l 694 694 l 174 694 m 174 0 l 174 174 l 0 174 l 0 694 l 174 694 l 174 174 l 521 174 l 521 347 l 347 347 l 347 521 l 694 521 l 694 0 l 174 0 z "},"H":{"ha":868,"x_min":0,"x_max":694,"o":"m 174 0 l 0 0 l 0 868 l 174 868 l 174 521 l 521 521 l 521 868 l 694 868 l 694 0 l 521 0 l 521 347 l 174 347 l 174 0 z "},"●":{"ha":868,"x_min":0,"x_max":694,"o":"m 174 174 l 174 347 l 0 347 l 0 694 l 174 694 l 174 868 l 521 868 l 521 694 l 694 694 l 694 347 l 521 347 l 521 174 l 174 174 z "},"▪":{"ha":521,"x_min":0,"x_max":347,"o":"m 0 347 l 0 694 l 347 694 l 347 347 l 0 347 z "},"▫":{"ha":521,"x_min":0,"x_max":347,"o":"m 0 347 l 0 694 l 347 694 l 347 347 l 0 347 z "},"□":{"ha":694,"x_min":0,"x_max":521,"o":"m 0 174 l 0 694 l 521 694 l 521 174 l 0 174 m 174 521 l 174 347 l 347 347 l 347 521 l 174 521 z "},"Ħ":{"ha":1215,"x_min":0,"x_max":1042,"o":"m 347 0 l 174 0 l 174 694 l 0 694 l 0 868 l 174 868 l 174 1042 l 347 1042 l 347 868 l 694 868 l 694 1042 l 868 1042 l 868 868 l 1042 868 l 1042 694 l 868 694 l 868 0 l 694 0 l 694 347 l 347 347 l 347 0 m 694 521 l 694 694 l 347 694 l 347 521 l 694 521 z "},"Ĥ":{"ha":868,"x_min":0,"x_max":694,"o":"m 174 1215 l 174 1389 l 521 1389 l 521 1215 l 174 1215 m 0 1042 l 0 1215 l 174 1215 l 174 1042 l 0 1042 m 521 1042 l 521 1215 l 694 1215 l 694 1042 l 521 1042 m 174 0 l 0 0 l 0 868 l 174 868 l 174 521 l 521 521 l 521 868 l 694 868 l 694 0 l 521 0 l 521 347 l 174 347 l 174 0 z "},"I":{"ha":347,"x_min":0,"x_max":174,"o":"m 174 0 l 0 0 l 0 868 l 174 868 l 174 0 z "},"Ĳ":{"ha":1042,"x_min":0,"x_max":868,"o":"m 868 174 l 694 174 l 694 868 l 868 868 l 868 174 m 174 0 l 0 0 l 0 868 l 174 868 l 174 0 m 521 174 l 347 174 l 347 347 l 521 347 l 521 174 m 694 174 l 694 0 l 521 0 l 521 174 l 694 174 z "},"Í":{"ha":347,"x_min":0,"x_max":347,"o":"m 174 1215 l 174 1389 l 347 1389 l 347 1215 l 174 1215 m 0 1042 l 0 1215 l 174 1215 l 174 1042 l 0 1042 m 174 0 l 0 0 l 0 868 l 174 868 l 174 0 z "},"Ĭ":{"ha":347,"x_min":-174,"x_max":347,"o":"m -174 1215 l -174 1389 l 0 1389 l 0 1215 l -174 1215 m 174 1215 l 174 1389 l 347 1389 l 347 1215 l 174 1215 m 0 1042 l 0 1215 l 174 1215 l 174 1042 l 0 1042 m 174 0 l 0 0 l 0 868 l 174 868 l 174 0 z "},"Î":{"ha":347,"x_min":-174,"x_max":347,"o":"m 0 1215 l 0 1389 l 174 1389 l 174 1215 l 0 1215 m -174 1042 l -174 1215 l 0 1215 l 0 1042 l -174 1042 m 174 1042 l 174 1215 l 347 1215 l 347 1042 l 174 1042 m 174 0 l 0 0 l 0 868 l 174 868 l 174 0 z "},"Ï":{"ha":347,"x_min":-174,"x_max":347,"o":"m -174 1042 l -174 1215 l 0 1215 l 0 1042 l -174 1042 m 174 1042 l 174 1215 l 347 1215 l 347 1042 l 174 1042 m 174 0 l 0 0 l 0 868 l 174 868 l 174 0 z "},"İ":{"ha":347,"x_min":0,"x_max":174,"o":"m 0 1042 l 0 1215 l 174 1215 l 174 1042 l 0 1042 m 174 0 l 0 0 l 0 868 l 174 868 l 174 0 z "},"Ì":{"ha":347,"x_min":-174,"x_max":174,"o":"m -174 1215 l -174 1389 l 0 1389 l 0 1215 l -174 1215 m 0 1042 l 0 1215 l 174 1215 l 174 1042 l 0 1042 m 174 0 l 0 0 l 0 868 l 174 868 l 174 0 z "},"Ī":{"ha":347,"x_min":-174,"x_max":347,"o":"m -174 1042 l -174 1215 l 347 1215 l 347 1042 l -174 1042 m 174 0 l 0 0 l 0 868 l 174 868 l 174 0 z "},"Į":{"ha":347,"x_min":-174,"x_max":174,"o":"m -174 -174 l -174 0 l 0 0 l 0 -174 l -174 -174 m 174 0 l 0 0 l 0 868 l 174 868 l 174 0 z "},"Ĩ":{"ha":347,"x_min":0,"x_max":347,"o":"m 0 1042 l 0 1215 l 347 1215 l 347 1042 l 0 1042 m 174 0 l 0 0 l 0 868 l 174 868 l 174 0 z "},"J":{"ha":694,"x_min":0,"x_max":521,"o":"m 347 174 l 347 868 l 521 868 l 521 174 l 347 174 m 0 174 l 0 347 l 174 347 l 174 174 l 0 174 m 174 174 l 347 174 l 347 0 l 174 0 l 174 174 z "},"Ĵ":{"ha":694,"x_min":0,"x_max":521,"o":"m 174 1215 l 174 1389 l 347 1389 l 347 1215 l 174 1215 m 0 1042 l 0 1215 l 174 1215 l 174 1042 l 0 1042 m 347 1042 l 347 1215 l 521 1215 l 521 1042 l 347 1042 m 347 174 l 347 868 l 521 868 l 521 174 l 347 174 m 0 174 l 0 347 l 174 347 l 174 174 l 0 174 m 174 174 l 347 174 l 347 0 l 174 0 l 174 174 z "},"K":{"ha":868,"x_min":0,"x_max":694,"o":"m 174 0 l 0 0 l 0 868 l 174 868 l 174 521 l 347 521 l 347 347 l 174 347 l 174 0 m 521 694 l 521 868 l 694 868 l 694 694 l 521 694 m 347 521 l 347 694 l 521 694 l 521 521 l 347 521 m 521 174 l 347 174 l 347 347 l 521 347 l 521 174 m 521 0 l 521 174 l 694 174 l 694 0 l 521 0 z "},"Ķ":{"ha":868,"x_min":0,"x_max":694,"o":"m 347 -347 l 347 -174 l 521 -174 l 521 -347 l 347 -347 m 174 0 l 0 0 l 0 868 l 174 868 l 174 521 l 347 521 l 347 347 l 174 347 l 174 0 m 521 694 l 521 868 l 694 868 l 694 694 l 521 694 m 347 521 l 347 694 l 521 694 l 521 521 l 347 521 m 521 174 l 347 174 l 347 347 l 521 347 l 521 174 m 521 0 l 521 174 l 694 174 l 694 0 l 521 0 z "},"L":{"ha":694,"x_min":0,"x_max":521,"o":"m 521 174 l 521 0 l 0 0 l 0 868 l 174 868 l 174 174 l 521 174 z "},"Ĺ":{"ha":694,"x_min":0,"x_max":521,"o":"m 347 1215 l 347 1389 l 521 1389 l 521 1215 l 347 1215 m 174 1042 l 174 1215 l 347 1215 l 347 1042 l 174 1042 m 521 174 l 521 0 l 0 0 l 0 868 l 174 868 l 174 174 l 521 174 z "},"Ľ":{"ha":694,"x_min":0,"x_max":521,"o":"m 521 521 l 347 521 l 347 868 l 521 868 l 521 521 m 521 174 l 521 0 l 0 0 l 0 868 l 174 868 l 174 174 l 521 174 z "},"Ļ":{"ha":694,"x_min":0,"x_max":521,"o":"m 174 -347 l 174 -174 l 347 -174 l 347 -347 l 174 -347 m 521 174 l 521 0 l 0 0 l 0 868 l 174 868 l 174 174 l 521 174 z "},"Ŀ":{"ha":694,"x_min":0,"x_max":521,"o":"m 347 347 l 347 521 l 521 521 l 521 347 l 347 347 m 521 174 l 521 0 l 0 0 l 0 868 l 174 868 l 174 174 l 521 174 z "},"Ł":{"ha":868,"x_min":0,"x_max":694,"o":"m 694 174 l 694 0 l 174 0 l 174 347 l 0 347 l 0 521 l 174 521 l 174 868 l 347 868 l 347 694 l 521 694 l 521 521 l 347 521 l 347 174 l 694 174 z "},"M":{"ha":1042,"x_min":0,"x_max":868,"o":"m 174 0 l 0 0 l 0 868 l 174 868 l 174 694 l 347 694 l 347 521 l 174 521 l 174 0 m 868 0 l 694 0 l 694 521 l 521 521 l 521 694 l 694 694 l 694 868 l 868 868 l 868 0 m 347 347 l 347 521 l 521 521 l 521 347 l 347 347 z "},"N":{"ha":868,"x_min":0,"x_max":694,"o":"m 174 0 l 0 0 l 0 868 l 174 868 l 174 694 l 347 694 l 347 521 l 174 521 l 174 0 m 694 0 l 521 0 l 521 347 l 347 347 l 347 521 l 521 521 l 521 868 l 694 868 l 694 0 z "},"Ń":{"ha":868,"x_min":0,"x_max":694,"o":"m 347 1215 l 347 1389 l 521 1389 l 521 1215 l 347 1215 m 174 1042 l 174 1215 l 347 1215 l 347 1042 l 174 1042 m 174 0 l 0 0 l 0 868 l 174 868 l 174 694 l 347 694 l 347 521 l 174 521 l 174 0 m 694 0 l 521 0 l 521 347 l 347 347 l 347 521 l 521 521 l 521 868 l 694 868 l 694 0 z "},"Ň":{"ha":868,"x_min":0,"x_max":694,"o":"m 0 1389 l 174 1389 l 174 1215 l 0 1215 l 0 1389 m 521 1389 l 694 1389 l 694 1215 l 521 1215 l 521 1389 m 174 1215 l 521 1215 l 521 1042 l 174 1042 l 174 1215 m 174 0 l 0 0 l 0 868 l 174 868 l 174 694 l 347 694 l 347 521 l 174 521 l 174 0 m 694 0 l 521 0 l 521 347 l 347 347 l 347 521 l 521 521 l 521 868 l 694 868 l 694 0 z "},"Ņ":{"ha":868,"x_min":0,"x_max":694,"o":"m 347 -347 l 347 -174 l 521 -174 l 521 -347 l 347 -347 m 174 0 l 0 0 l 0 868 l 174 868 l 174 694 l 347 694 l 347 521 l 174 521 l 174 0 m 694 0 l 521 0 l 521 347 l 347 347 l 347 521 l 521 521 l 521 868 l 694 868 l 694 0 z "},"Ñ":{"ha":868,"x_min":0,"x_max":694,"o":"m 174 1042 l 174 1215 l 521 1215 l 521 1042 l 174 1042 m 174 0 l 0 0 l 0 868 l 174 868 l 174 694 l 347 694 l 347 521 l 174 521 l 174 0 m 694 0 l 521 0 l 521 347 l 347 347 l 347 521 l 521 521 l 521 868 l 694 868 l 694 0 z "},"O":{"ha":868,"x_min":0,"x_max":694,"o":"m 174 694 l 174 868 l 521 868 l 521 694 l 174 694 m 174 174 l 0 174 l 0 694 l 174 694 l 174 174 m 694 174 l 521 174 l 521 694 l 694 694 l 694 174 m 521 174 l 521 0 l 174 0 l 174 174 l 521 174 z "},"Œ":{"ha":1042,"x_min":0,"x_max":868,"o":"m 174 174 l 0 174 l 0 694 l 174 694 l 174 174 l 347 174 l 347 694 l 174 694 l 174 868 l 868 868 l 868 694 l 521 694 l 521 521 l 868 521 l 868 347 l 521 347 l 521 174 l 868 174 l 868 0 l 174 0 l 174 174 z "},"Ó":{"ha":868,"x_min":0,"x_max":694,"o":"m 347 1215 l 347 1389 l 521 1389 l 521 1215 l 347 1215 m 174 1042 l 174 1215 l 347 1215 l 347 1042 l 174 1042 m 174 694 l 174 868 l 521 868 l 521 694 l 174 694 m 174 174 l 0 174 l 0 694 l 174 694 l 174 174 m 694 174 l 521 174 l 521 694 l 694 694 l 694 174 m 521 174 l 521 0 l 174 0 l 174 174 l 521 174 z "},"Ŏ":{"ha":868,"x_min":0,"x_max":694,"o":"m 0 1389 l 174 1389 l 174 1215 l 0 1215 l 0 1389 m 521 1389 l 694 1389 l 694 1215 l 521 1215 l 521 1389 m 174 1215 l 521 1215 l 521 1042 l 174 1042 l 174 1215 m 174 694 l 174 868 l 521 868 l 521 694 l 174 694 m 174 174 l 0 174 l 0 694 l 174 694 l 174 174 m 694 174 l 521 174 l 521 694 l 694 694 l 694 174 m 521 174 l 521 0 l 174 0 l 174 174 l 521 174 z "},"Ô":{"ha":868,"x_min":0,"x_max":694,"o":"m 174 1215 l 174 1389 l 521 1389 l 521 1215 l 174 1215 m 0 1042 l 0 1215 l 174 1215 l 174 1042 l 0 1042 m 521 1042 l 521 1215 l 694 1215 l 694 1042 l 521 1042 m 174 694 l 174 868 l 521 868 l 521 694 l 174 694 m 174 174 l 0 174 l 0 694 l 174 694 l 174 174 m 694 174 l 521 174 l 521 694 l 694 694 l 694 174 m 521 174 l 521 0 l 174 0 l 174 174 l 521 174 z "},"Ö":{"ha":868,"x_min":0,"x_max":694,"o":"m 0 1042 l 0 1215 l 174 1215 l 174 1042 l 0 1042 m 521 1042 l 521 1215 l 694 1215 l 694 1042 l 521 1042 m 174 694 l 174 868 l 521 868 l 521 694 l 174 694 m 174 174 l 0 174 l 0 694 l 174 694 l 174 174 m 694 174 l 521 174 l 521 694 l 694 694 l 694 174 m 521 174 l 521 0 l 174 0 l 174 174 l 521 174 z "},"Ò":{"ha":868,"x_min":0,"x_max":694,"o":"m 174 1215 l 174 1389 l 347 1389 l 347 1215 l 174 1215 m 347 1042 l 347 1215 l 521 1215 l 521 1042 l 347 1042 m 174 694 l 174 868 l 521 868 l 521 694 l 174 694 m 174 174 l 0 174 l 0 694 l 174 694 l 174 174 m 694 174 l 521 174 l 521 694 l 694 694 l 694 174 m 521 174 l 521 0 l 174 0 l 174 174 l 521 174 z "},"Ő":{"ha":868,"x_min":0,"x_max":694,"o":"m 174 1215 l 174 1389 l 347 1389 l 347 1215 l 174 1215 m 521 1215 l 521 1389 l 694 1389 l 694 1215 l 521 1215 m 0 1042 l 0 1215 l 174 1215 l 174 1042 l 0 1042 m 347 1042 l 347 1215 l 521 1215 l 521 1042 l 347 1042 m 174 694 l 174 868 l 521 868 l 521 694 l 174 694 m 174 174 l 0 174 l 0 694 l 174 694 l 174 174 m 694 174 l 521 174 l 521 694 l 694 694 l 694 174 m 521 174 l 521 0 l 174 0 l 174 174 l 521 174 z "},"Ō":{"ha":868,"x_min":0,"x_max":694,"o":"m 0 1042 l 0 1215 l 694 1215 l 694 1042 l 0 1042 m 174 694 l 174 868 l 521 868 l 521 694 l 174 694 m 174 174 l 0 174 l 0 694 l 174 694 l 174 174 m 694 174 l 521 174 l 521 694 l 694 694 l 694 174 m 521 174 l 521 0 l 174 0 l 174 174 l 521 174 z "},"Ω":{"ha":1042,"x_min":0,"x_max":868,"o":"m 174 694 l 174 868 l 694 868 l 694 694 l 174 694 m 174 347 l 0 347 l 0 694 l 174 694 l 174 347 m 694 347 l 694 694 l 868 694 l 868 347 l 694 347 m 694 174 l 868 174 l 868 0 l 521 0 l 521 347 l 694 347 l 694 174 m 174 174 l 174 347 l 347 347 l 347 0 l 0 0 l 0 174 l 174 174 z "},"Ø":{"ha":868,"x_min":0,"x_max":694,"o":"m 694 174 l 521 174 l 521 521 l 347 521 l 347 694 l 174 694 l 174 868 l 521 868 l 521 694 l 694 694 l 694 174 m 174 174 l 0 174 l 0 694 l 174 694 l 174 521 l 347 521 l 347 347 l 174 347 l 174 174 m 521 174 l 521 0 l 174 0 l 174 174 l 521 174 z "},"Ǿ":{"ha":868,"x_min":0,"x_max":694,"o":"m 347 1215 l 347 1389 l 521 1389 l 521 1215 l 347 1215 m 174 1042 l 174 1215 l 347 1215 l 347 1042 l 174 1042 m 694 174 l 521 174 l 521 521 l 347 521 l 347 694 l 174 694 l 174 868 l 521 868 l 521 694 l 694 694 l 694 174 m 174 174 l 0 174 l 0 694 l 174 694 l 174 521 l 347 521 l 347 347 l 174 347 l 174 174 m 521 174 l 521 0 l 174 0 l 174 174 l 521 174 z "},"Õ":{"ha":868,"x_min":0,"x_max":694,"o":"m 174 1042 l 174 1215 l 521 1215 l 521 1042 l 174 1042 m 174 694 l 174 868 l 521 868 l 521 694 l 174 694 m 174 174 l 0 174 l 0 694 l 174 694 l 174 174 m 694 174 l 521 174 l 521 694 l 694 694 l 694 174 m 521 174 l 521 0 l 174 0 l 174 174 l 521 174 z "},"P":{"ha":868,"x_min":0,"x_max":694,"o":"m 174 0 l 0 0 l 0 868 l 521 868 l 521 694 l 174 694 l 174 521 l 521 521 l 521 347 l 174 347 l 174 0 m 521 521 l 521 694 l 694 694 l 694 521 l 521 521 z "},"Q":{"ha":868,"x_min":0,"x_max":694,"o":"m 174 694 l 174 868 l 521 868 l 521 694 l 174 694 m 174 174 l 0 174 l 0 694 l 174 694 l 174 174 m 521 347 l 521 694 l 694 694 l 694 347 l 521 347 m 521 174 l 347 174 l 347 347 l 521 347 l 521 174 m 347 174 l 347 0 l 174 0 l 174 174 l 347 174 m 521 0 l 521 174 l 694 174 l 694 0 l 521 0 z "},"R":{"ha":868,"x_min":0,"x_max":694,"o":"m 174 0 l 0 0 l 0 868 l 521 868 l 521 694 l 174 694 l 174 521 l 521 521 l 521 347 l 174 347 l 174 0 m 694 521 l 521 521 l 521 694 l 694 694 l 694 521 m 694 0 l 521 0 l 521 347 l 694 347 l 694 0 z "},"Ŕ":{"ha":868,"x_min":0,"x_max":694,"o":"m 347 1215 l 347 1389 l 521 1389 l 521 1215 l 347 1215 m 174 1042 l 174 1215 l 347 1215 l 347 1042 l 174 1042 m 174 0 l 0 0 l 0 868 l 521 868 l 521 694 l 174 694 l 174 521 l 521 521 l 521 347 l 174 347 l 174 0 m 694 521 l 521 521 l 521 694 l 694 694 l 694 521 m 694 0 l 521 0 l 521 347 l 694 347 l 694 0 z "},"Ř":{"ha":868,"x_min":0,"x_max":694,"o":"m 0 1389 l 174 1389 l 174 1215 l 0 1215 l 0 1389 m 521 1389 l 694 1389 l 694 1215 l 521 1215 l 521 1389 m 174 1215 l 521 1215 l 521 1042 l 174 1042 l 174 1215 m 174 0 l 0 0 l 0 868 l 521 868 l 521 694 l 174 694 l 174 521 l 521 521 l 521 347 l 174 347 l 174 0 m 694 521 l 521 521 l 521 694 l 694 694 l 694 521 m 694 0 l 521 0 l 521 347 l 694 347 l 694 0 z "},"Ŗ":{"ha":868,"x_min":0,"x_max":694,"o":"m 347 -347 l 347 -174 l 521 -174 l 521 -347 l 347 -347 m 174 0 l 0 0 l 0 868 l 521 868 l 521 694 l 174 694 l 174 521 l 521 521 l 521 347 l 174 347 l 174 0 m 694 521 l 521 521 l 521 694 l 694 694 l 694 521 m 694 0 l 521 0 l 521 347 l 694 347 l 694 0 z "},"S":{"ha":868,"x_min":0,"x_max":694,"o":"m 174 694 l 174 868 l 694 868 l 694 694 l 174 694 m 0 521 l 0 694 l 174 694 l 174 521 l 0 521 m 174 521 l 521 521 l 521 347 l 174 347 l 174 521 m 694 174 l 521 174 l 521 347 l 694 347 l 694 174 m 521 174 l 521 0 l 0 0 l 0 174 l 521 174 z "},"Ś":{"ha":868,"x_min":0,"x_max":694,"o":"m 347 1215 l 347 1389 l 521 1389 l 521 1215 l 347 1215 m 174 1042 l 174 1215 l 347 1215 l 347 1042 l 174 1042 m 174 694 l 174 868 l 694 868 l 694 694 l 174 694 m 0 521 l 0 694 l 174 694 l 174 521 l 0 521 m 174 521 l 521 521 l 521 347 l 174 347 l 174 521 m 694 174 l 521 174 l 521 347 l 694 347 l 694 174 m 521 174 l 521 0 l 0 0 l 0 174 l 521 174 z "},"Š":{"ha":868,"x_min":0,"x_max":694,"o":"m 0 1389 l 174 1389 l 174 1215 l 0 1215 l 0 1389 m 521 1389 l 694 1389 l 694 1215 l 521 1215 l 521 1389 m 174 1215 l 521 1215 l 521 1042 l 174 1042 l 174 1215 m 174 694 l 174 868 l 694 868 l 694 694 l 174 694 m 0 521 l 0 694 l 174 694 l 174 521 l 0 521 m 174 521 l 521 521 l 521 347 l 174 347 l 174 521 m 694 174 l 521 174 l 521 347 l 694 347 l 694 174 m 521 174 l 521 0 l 0 0 l 0 174 l 521 174 z "},"Ş":{"ha":868,"x_min":0,"x_max":694,"o":"m 347 -174 l 347 0 l 521 0 l 521 -174 l 347 -174 m 174 694 l 174 868 l 694 868 l 694 694 l 174 694 m 0 521 l 0 694 l 174 694 l 174 521 l 0 521 m 174 521 l 521 521 l 521 347 l 174 347 l 174 521 m 694 174 l 521 174 l 521 347 l 694 347 l 694 174 m 521 174 l 521 0 l 0 0 l 0 174 l 521 174 z "},"Ŝ":{"ha":868,"x_min":0,"x_max":694,"o":"m 174 1215 l 174 1389 l 521 1389 l 521 1215 l 174 1215 m 0 1042 l 0 1215 l 174 1215 l 174 1042 l 0 1042 m 521 1042 l 521 1215 l 694 1215 l 694 1042 l 521 1042 m 174 694 l 174 868 l 694 868 l 694 694 l 174 694 m 0 521 l 0 694 l 174 694 l 174 521 l 0 521 m 174 521 l 521 521 l 521 347 l 174 347 l 174 521 m 694 174 l 521 174 l 521 347 l 694 347 l 694 174 m 521 174 l 521 0 l 0 0 l 0 174 l 521 174 z "},"T":{"ha":694,"x_min":0,"x_max":521,"o":"m 347 0 l 174 0 l 174 694 l 0 694 l 0 868 l 521 868 l 521 694 l 347 694 l 347 0 z "},"Ŧ":{"ha":694,"x_min":0,"x_max":521,"o":"m 347 0 l 174 0 l 174 347 l 0 347 l 0 521 l 174 521 l 174 694 l 0 694 l 0 868 l 521 868 l 521 694 l 347 694 l 347 521 l 521 521 l 521 347 l 347 347 l 347 0 z "},"Ť":{"ha":694,"x_min":0,"x_max":521,"o":"m 0 1215 l 0 1389 l 174 1389 l 174 1215 l 0 1215 m 347 1215 l 347 1389 l 521 1389 l 521 1215 l 347 1215 m 174 1042 l 174 1215 l 347 1215 l 347 1042 l 174 1042 m 347 0 l 174 0 l 174 694 l 0 694 l 0 868 l 521 868 l 521 694 l 347 694 l 347 0 z "},"Ţ":{"ha":694,"x_min":0,"x_max":521,"o":"m 0 -174 l 0 0 l 174 0 l 174 -174 l 0 -174 m 347 0 l 174 0 l 174 694 l 0 694 l 0 868 l 521 868 l 521 694 l 347 694 l 347 0 z "},"Þ":{"ha":868,"x_min":0,"x_max":694,"o":"m 174 174 l 174 0 l 0 0 l 0 868 l 174 868 l 174 694 l 521 694 l 521 521 l 174 521 l 174 347 l 521 347 l 521 174 l 174 174 m 521 521 l 694 521 l 694 347 l 521 347 l 521 521 z "},"U":{"ha":868,"x_min":0,"x_max":694,"o":"m 174 174 l 0 174 l 0 868 l 174 868 l 174 174 m 694 174 l 521 174 l 521 868 l 694 868 l 694 174 m 521 174 l 521 0 l 174 0 l 174 174 l 521 174 z "},"Ú":{"ha":868,"x_min":0,"x_max":694,"o":"m 347 1215 l 347 1389 l 521 1389 l 521 1215 l 347 1215 m 174 1042 l 174 1215 l 347 1215 l 347 1042 l 174 1042 m 174 174 l 0 174 l 0 868 l 174 868 l 174 174 m 694 174 l 521 174 l 521 868 l 694 868 l 694 174 m 521 174 l 521 0 l 174 0 l 174 174 l 521 174 z "},"Ŭ":{"ha":868,"x_min":0,"x_max":694,"o":"m 0 1389 l 174 1389 l 174 1215 l 0 1215 l 0 1389 m 521 1389 l 694 1389 l 694 1215 l 521 1215 l 521 1389 m 174 1215 l 521 1215 l 521 1042 l 174 1042 l 174 1215 m 174 174 l 0 174 l 0 868 l 174 868 l 174 174 m 694 174 l 521 174 l 521 868 l 694 868 l 694 174 m 521 174 l 521 0 l 174 0 l 174 174 l 521 174 z "},"Û":{"ha":868,"x_min":0,"x_max":694,"o":"m 174 1215 l 174 1389 l 521 1389 l 521 1215 l 174 1215 m 0 1042 l 0 1215 l 174 1215 l 174 1042 l 0 1042 m 521 1042 l 521 1215 l 694 1215 l 694 1042 l 521 1042 m 174 174 l 0 174 l 0 868 l 174 868 l 174 174 m 694 174 l 521 174 l 521 868 l 694 868 l 694 174 m 521 174 l 521 0 l 174 0 l 174 174 l 521 174 z "},"Ü":{"ha":868,"x_min":0,"x_max":694,"o":"m 0 1042 l 0 1215 l 174 1215 l 174 1042 l 0 1042 m 521 1042 l 521 1215 l 694 1215 l 694 1042 l 521 1042 m 174 174 l 0 174 l 0 868 l 174 868 l 174 174 m 694 174 l 521 174 l 521 868 l 694 868 l 694 174 m 521 174 l 521 0 l 174 0 l 174 174 l 521 174 z "},"Ù":{"ha":868,"x_min":0,"x_max":694,"o":"m 174 1215 l 174 1389 l 347 1389 l 347 1215 l 174 1215 m 347 1042 l 347 1215 l 521 1215 l 521 1042 l 347 1042 m 174 174 l 0 174 l 0 868 l 174 868 l 174 174 m 694 174 l 521 174 l 521 868 l 694 868 l 694 174 m 521 174 l 521 0 l 174 0 l 174 174 l 521 174 z "},"Ű":{"ha":868,"x_min":0,"x_max":694,"o":"m 174 1215 l 174 1389 l 347 1389 l 347 1215 l 174 1215 m 521 1215 l 521 1389 l 694 1389 l 694 1215 l 521 1215 m 0 1042 l 0 1215 l 174 1215 l 174 1042 l 0 1042 m 347 1042 l 347 1215 l 521 1215 l 521 1042 l 347 1042 m 174 174 l 0 174 l 0 868 l 174 868 l 174 174 m 694 174 l 521 174 l 521 868 l 694 868 l 694 174 m 521 174 l 521 0 l 174 0 l 174 174 l 521 174 z "},"Ū":{"ha":868,"x_min":0,"x_max":694,"o":"m 0 1042 l 0 1215 l 694 1215 l 694 1042 l 0 1042 m 174 174 l 0 174 l 0 868 l 174 868 l 174 174 m 694 174 l 521 174 l 521 868 l 694 868 l 694 174 m 521 174 l 521 0 l 174 0 l 174 174 l 521 174 z "},"Ų":{"ha":868,"x_min":0,"x_max":694,"o":"m 347 -174 l 347 0 l 521 0 l 521 -174 l 347 -174 m 174 174 l 0 174 l 0 868 l 174 868 l 174 174 m 694 174 l 521 174 l 521 868 l 694 868 l 694 174 m 521 174 l 521 0 l 174 0 l 174 174 l 521 174 z "},"Ů":{"ha":868,"x_min":0,"x_max":694,"o":"m 347 1215 l 347 1389 l 521 1389 l 521 1215 l 347 1215 m 174 1042 l 174 1215 l 347 1215 l 347 1042 l 174 1042 m 521 1042 l 521 1215 l 694 1215 l 694 1042 l 521 1042 m 347 1042 l 521 1042 l 521 868 l 347 868 l 347 1042 m 174 174 l 0 174 l 0 868 l 174 868 l 174 174 m 694 174 l 521 174 l 521 868 l 694 868 l 694 174 m 521 174 l 521 0 l 174 0 l 174 174 l 521 174 z "},"Ũ":{"ha":868,"x_min":0,"x_max":694,"o":"m 174 1042 l 174 1215 l 521 1215 l 521 1042 l 174 1042 m 174 174 l 0 174 l 0 868 l 174 868 l 174 174 m 694 174 l 521 174 l 521 868 l 694 868 l 694 174 m 521 174 l 521 0 l 174 0 l 174 174 l 521 174 z "},"V":{"ha":694,"x_min":0,"x_max":521,"o":"m 174 347 l 0 347 l 0 868 l 174 868 l 174 347 m 347 347 l 347 868 l 521 868 l 521 347 l 347 347 m 347 0 l 174 0 l 174 347 l 347 347 l 347 0 z "},"W":{"ha":1042,"x_min":0,"x_max":868,"o":"m 174 347 l 0 347 l 0 868 l 174 868 l 174 347 m 347 347 l 347 868 l 521 868 l 521 347 l 347 347 m 694 347 l 694 868 l 868 868 l 868 347 l 694 347 m 347 0 l 174 0 l 174 347 l 347 347 l 347 0 m 694 0 l 521 0 l 521 347 l 694 347 l 694 0 z "},"Ẃ":{"ha":1042,"x_min":0,"x_max":868,"o":"m 521 1215 l 521 1389 l 694 1389 l 694 1215 l 521 1215 m 347 1042 l 347 1215 l 521 1215 l 521 1042 l 347 1042 m 174 347 l 0 347 l 0 868 l 174 868 l 174 347 m 347 347 l 347 868 l 521 868 l 521 347 l 347 347 m 694 347 l 694 868 l 868 868 l 868 347 l 694 347 m 347 0 l 174 0 l 174 347 l 347 347 l 347 0 m 694 0 l 521 0 l 521 347 l 694 347 l 694 0 z "},"Ŵ":{"ha":1042,"x_min":0,"x_max":868,"o":"m 347 1215 l 347 1389 l 521 1389 l 521 1215 l 347 1215 m 174 1042 l 174 1215 l 347 1215 l 347 1042 l 174 1042 m 521 1042 l 521 1215 l 694 1215 l 694 1042 l 521 1042 m 174 347 l 0 347 l 0 868 l 174 868 l 174 347 m 347 347 l 347 868 l 521 868 l 521 347 l 347 347 m 694 347 l 694 868 l 868 868 l 868 347 l 694 347 m 347 0 l 174 0 l 174 347 l 347 347 l 347 0 m 694 0 l 521 0 l 521 347 l 694 347 l 694 0 z "},"Ẅ":{"ha":1042,"x_min":0,"x_max":868,"o":"m 174 1042 l 174 1215 l 347 1215 l 347 1042 l 174 1042 m 521 1042 l 521 1215 l 694 1215 l 694 1042 l 521 1042 m 174 347 l 0 347 l 0 868 l 174 868 l 174 347 m 347 347 l 347 868 l 521 868 l 521 347 l 347 347 m 694 347 l 694 868 l 868 868 l 868 347 l 694 347 m 347 0 l 174 0 l 174 347 l 347 347 l 347 0 m 694 0 l 521 0 l 521 347 l 694 347 l 694 0 z "},"Ẁ":{"ha":1042,"x_min":0,"x_max":868,"o":"m 174 1215 l 174 1389 l 347 1389 l 347 1215 l 174 1215 m 347 1042 l 347 1215 l 521 1215 l 521 1042 l 347 1042 m 174 347 l 0 347 l 0 868 l 174 868 l 174 347 m 347 347 l 347 868 l 521 868 l 521 347 l 347 347 m 694 347 l 694 868 l 868 868 l 868 347 l 694 347 m 347 0 l 174 0 l 174 347 l 347 347 l 347 0 m 694 0 l 521 0 l 521 347 l 694 347 l 694 0 z "},"X":{"ha":694,"x_min":0,"x_max":521,"o":"m 174 521 l 0 521 l 0 868 l 174 868 l 174 521 m 521 521 l 347 521 l 347 868 l 521 868 l 521 521 m 347 521 l 347 347 l 174 347 l 174 521 l 347 521 m 174 0 l 0 0 l 0 347 l 174 347 l 174 0 m 521 0 l 347 0 l 347 347 l 521 347 l 521 0 z "},"Y":{"ha":694,"x_min":0,"x_max":521,"o":"m 174 521 l 0 521 l 0 868 l 174 868 l 174 521 m 347 521 l 347 868 l 521 868 l 521 521 l 347 521 m 347 0 l 174 0 l 174 521 l 347 521 l 347 0 z "},"Ý":{"ha":694,"x_min":0,"x_max":521,"o":"m 347 1215 l 347 1389 l 521 1389 l 521 1215 l 347 1215 m 174 1042 l 174 1215 l 347 1215 l 347 1042 l 174 1042 m 174 521 l 0 521 l 0 868 l 174 868 l 174 521 m 347 521 l 347 868 l 521 868 l 521 521 l 347 521 m 347 0 l 174 0 l 174 521 l 347 521 l 347 0 z "},"Ŷ":{"ha":694,"x_min":0,"x_max":521,"o":"m 174 1215 l 174 1389 l 347 1389 l 347 1215 l 174 1215 m 0 1042 l 0 1215 l 174 1215 l 174 1042 l 0 1042 m 347 1042 l 347 1215 l 521 1215 l 521 1042 l 347 1042 m 174 521 l 0 521 l 0 868 l 174 868 l 174 521 m 347 521 l 347 868 l 521 868 l 521 521 l 347 521 m 347 0 l 174 0 l 174 521 l 347 521 l 347 0 z "},"Ÿ":{"ha":694,"x_min":0,"x_max":521,"o":"m 0 1042 l 0 1215 l 174 1215 l 174 1042 l 0 1042 m 347 1042 l 347 1215 l 521 1215 l 521 1042 l 347 1042 m 174 521 l 0 521 l 0 868 l 174 868 l 174 521 m 347 521 l 347 868 l 521 868 l 521 521 l 347 521 m 347 0 l 174 0 l 174 521 l 347 521 l 347 0 z "},"Ỳ":{"ha":694,"x_min":0,"x_max":521,"o":"m 0 1215 l 0 1389 l 174 1389 l 174 1215 l 0 1215 m 174 1042 l 174 1215 l 347 1215 l 347 1042 l 174 1042 m 174 521 l 0 521 l 0 868 l 174 868 l 174 521 m 347 521 l 347 868 l 521 868 l 521 521 l 347 521 m 347 0 l 174 0 l 174 521 l 347 521 l 347 0 z "},"Z":{"ha":694,"x_min":0,"x_max":521,"o":"m 521 521 l 347 521 l 347 694 l 0 694 l 0 868 l 521 868 l 521 521 m 347 521 l 347 347 l 174 347 l 174 521 l 347 521 m 521 174 l 521 0 l 0 0 l 0 347 l 174 347 l 174 174 l 521 174 z "},"Ź":{"ha":694,"x_min":0,"x_max":521,"o":"m 347 1215 l 347 1389 l 521 1389 l 521 1215 l 347 1215 m 174 1042 l 174 1215 l 347 1215 l 347 1042 l 174 1042 m 521 521 l 347 521 l 347 694 l 0 694 l 0 868 l 521 868 l 521 521 m 347 521 l 347 347 l 174 347 l 174 521 l 347 521 m 521 174 l 521 0 l 0 0 l 0 347 l 174 347 l 174 174 l 521 174 z "},"Ž":{"ha":694,"x_min":0,"x_max":521,"o":"m 0 1215 l 0 1389 l 174 1389 l 174 1215 l 0 1215 m 347 1215 l 347 1389 l 521 1389 l 521 1215 l 347 1215 m 174 1042 l 174 1215 l 347 1215 l 347 1042 l 174 1042 m 521 521 l 347 521 l 347 694 l 0 694 l 0 868 l 521 868 l 521 521 m 347 521 l 347 347 l 174 347 l 174 521 l 347 521 m 521 174 l 521 0 l 0 0 l 0 347 l 174 347 l 174 174 l 521 174 z "},"Ż":{"ha":694,"x_min":0,"x_max":521,"o":"m 174 1042 l 174 1215 l 347 1215 l 347 1042 l 174 1042 m 521 521 l 347 521 l 347 694 l 0 694 l 0 868 l 521 868 l 521 521 m 347 521 l 347 347 l 174 347 l 174 521 l 347 521 m 521 174 l 521 0 l 0 0 l 0 347 l 174 347 l 174 174 l 521 174 z "},"a":{"ha":694,"x_min":0,"x_max":521,"o":"m 174 0 l 174 174 l 0 174 l 0 521 l 174 521 l 174 174 l 347 174 l 347 521 l 174 521 l 174 694 l 521 694 l 521 0 l 174 0 z "},"á":{"ha":694,"x_min":0,"x_max":521,"o":"m 347 1042 l 347 1215 l 521 1215 l 521 1042 l 347 1042 m 174 868 l 174 1042 l 347 1042 l 347 868 l 174 868 m 174 0 l 174 174 l 0 174 l 0 521 l 174 521 l 174 174 l 347 174 l 347 521 l 174 521 l 174 694 l 521 694 l 521 0 l 174 0 z "},"ă":{"ha":694,"x_min":0,"x_max":521,"o":"m 0 1042 l 0 1215 l 174 1215 l 174 1042 l 0 1042 m 347 1042 l 347 1215 l 521 1215 l 521 1042 l 347 1042 m 174 868 l 174 1042 l 347 1042 l 347 868 l 174 868 m 174 0 l 174 174 l 0 174 l 0 521 l 174 521 l 174 174 l 347 174 l 347 521 l 174 521 l 174 694 l 521 694 l 521 0 l 174 0 z "},"â":{"ha":694,"x_min":0,"x_max":521,"o":"m 174 1042 l 174 1215 l 347 1215 l 347 1042 l 174 1042 m 0 868 l 0 1042 l 174 1042 l 174 868 l 0 868 m 347 868 l 347 1042 l 521 1042 l 521 868 l 347 868 m 174 0 l 174 174 l 0 174 l 0 521 l 174 521 l 174 174 l 347 174 l 347 521 l 174 521 l 174 694 l 521 694 l 521 0 l 174 0 z "},"´":{"ha":521,"x_min":0,"x_max":347,"o":"m 174 694 l 174 868 l 347 868 l 347 694 l 174 694 m 0 521 l 0 694 l 174 694 l 174 521 l 0 521 z "},"́":{"ha":0,"x_min":0,"x_max":347,"o":"m 174 694 l 174 868 l 347 868 l 347 694 l 174 694 m 0 521 l 0 694 l 174 694 l 174 521 l 0 521 z "},"ä":{"ha":694,"x_min":0,"x_max":521,"o":"m 0 868 l 0 1042 l 174 1042 l 174 868 l 0 868 m 347 868 l 347 1042 l 521 1042 l 521 868 l 347 868 m 174 0 l 174 174 l 0 174 l 0 521 l 174 521 l 174 174 l 347 174 l 347 521 l 174 521 l 174 694 l 521 694 l 521 0 l 174 0 z "},"æ":{"ha":1042,"x_min":0,"x_max":868,"o":"m 174 174 l 0 174 l 0 521 l 174 521 l 174 174 l 347 174 l 347 521 l 174 521 l 174 694 l 694 694 l 694 521 l 868 521 l 868 347 l 521 347 l 521 174 l 868 174 l 868 0 l 174 0 l 174 174 z "},"ǽ":{"ha":1042,"x_min":0,"x_max":868,"o":"m 521 1042 l 521 1215 l 694 1215 l 694 1042 l 521 1042 m 347 868 l 347 1042 l 521 1042 l 521 868 l 347 868 m 174 174 l 0 174 l 0 521 l 174 521 l 174 174 l 347 174 l 347 521 l 174 521 l 174 694 l 694 694 l 694 521 l 868 521 l 868 347 l 521 347 l 521 174 l 868 174 l 868 0 l 174 0 l 174 174 z "},"―":{"ha":868,"x_min":0,"x_max":694,"o":"m 0 347 l 0 521 l 694 521 l 694 347 l 0 347 z "},"ℓ":{"ha":347,"x_min":0,"x_max":174,"o":"m 174 0 l 0 0 l 0 868 l 174 868 l 174 0 z "},"№":{"ha":1563,"x_min":0,"x_max":1389,"o":"m 174 0 l 0 0 l 0 868 l 174 868 l 174 694 l 347 694 l 347 521 l 174 521 l 174 0 m 694 0 l 521 0 l 521 347 l 347 347 l 347 521 l 521 521 l 521 868 l 694 868 l 694 0 m 1042 868 l 1215 868 l 1215 694 l 1042 694 l 1042 868 m 868 521 l 868 694 l 1042 694 l 1042 521 l 868 521 m 1389 521 l 1215 521 l 1215 694 l 1389 694 l 1389 521 m 1215 521 l 1215 347 l 1042 347 l 1042 521 l 1215 521 z "},"à":{"ha":694,"x_min":0,"x_max":521,"o":"m 0 1042 l 0 1215 l 174 1215 l 174 1042 l 0 1042 m 174 868 l 174 1042 l 347 1042 l 347 868 l 174 868 m 174 0 l 174 174 l 0 174 l 0 521 l 174 521 l 174 174 l 347 174 l 347 521 l 174 521 l 174 694 l 521 694 l 521 0 l 174 0 z "},"ā":{"ha":694,"x_min":0,"x_max":521,"o":"m 0 868 l 0 1042 l 521 1042 l 521 868 l 0 868 m 174 0 l 174 174 l 0 174 l 0 521 l 174 521 l 174 174 l 347 174 l 347 521 l 174 521 l 174 694 l 521 694 l 521 0 l 174 0 z "},"&":{"ha":868,"x_min":0,"x_max":694,"o":"m 174 694 l 174 868 l 347 868 l 347 694 l 174 694 m 0 521 l 0 694 l 174 694 l 174 521 l 0 521 m 347 521 l 347 694 l 521 694 l 521 521 l 347 521 m 174 521 l 347 521 l 347 347 l 174 347 l 174 521 m 0 174 l 0 347 l 174 347 l 174 174 l 0 174 m 347 174 l 347 347 l 521 347 l 521 174 l 347 174 m 174 174 l 347 174 l 347 0 l 174 0 l 174 174 m 521 174 l 694 174 l 694 0 l 521 0 l 521 174 z "},"ą":{"ha":694,"x_min":0,"x_max":521,"o":"m 174 -174 l 174 0 l 347 0 l 347 -174 l 174 -174 m 174 0 l 174 174 l 0 174 l 0 521 l 174 521 l 174 174 l 347 174 l 347 521 l 174 521 l 174 694 l 521 694 l 521 0 l 174 0 z "},"≈":{"ha":868,"x_min":0,"x_max":694,"o":"m 694 868 l 694 694 l 521 694 l 521 868 l 694 868 m 174 694 l 174 868 l 347 868 l 347 694 l 174 694 m 0 521 l 0 694 l 174 694 l 174 521 l 0 521 m 347 521 l 347 694 l 521 694 l 521 521 l 347 521 m 694 174 l 521 174 l 521 347 l 694 347 l 694 174 m 347 174 l 174 174 l 174 347 l 347 347 l 347 174 m 174 174 l 174 0 l 0 0 l 0 174 l 174 174 m 521 174 l 521 0 l 347 0 l 347 174 l 521 174 z "},"å":{"ha":694,"x_min":0,"x_max":521,"o":"m 174 1042 l 174 1215 l 347 1215 l 347 1042 l 174 1042 m 0 868 l 0 1042 l 174 1042 l 174 868 l 0 868 m 347 868 l 347 1042 l 521 1042 l 521 868 l 347 868 m 174 868 l 347 868 l 347 694 l 174 694 l 174 868 m 174 0 l 174 174 l 0 174 l 0 521 l 174 521 l 174 174 l 347 174 l 347 521 l 174 521 l 174 694 l 521 694 l 521 0 l 174 0 z "},"↔":{"ha":1389,"x_min":0,"x_max":1215,"o":"m 868 174 l 868 0 l 694 0 l 694 347 l 521 347 l 521 0 l 347 0 l 347 174 l 174 174 l 174 347 l 0 347 l 0 521 l 174 521 l 174 694 l 347 694 l 347 868 l 521 868 l 521 521 l 694 521 l 694 868 l 868 868 l 868 694 l 1042 694 l 1042 521 l 1215 521 l 1215 347 l 1042 347 l 1042 174 l 868 174 z "},"↓":{"ha":1042,"x_min":0,"x_max":868,"o":"m 174 174 l 174 347 l 0 347 l 0 521 l 347 521 l 347 868 l 521 868 l 521 521 l 868 521 l 868 347 l 694 347 l 694 174 l 521 174 l 521 0 l 347 0 l 347 174 l 174 174 z "},"←":{"ha":1042,"x_min":0,"x_max":868,"o":"m 174 174 l 174 347 l 0 347 l 0 521 l 174 521 l 174 694 l 347 694 l 347 868 l 521 868 l 521 521 l 868 521 l 868 347 l 521 347 l 521 0 l 347 0 l 347 174 l 174 174 z "},"→":{"ha":1042,"x_min":0,"x_max":868,"o":"m 521 174 l 521 0 l 347 0 l 347 347 l 0 347 l 0 521 l 347 521 l 347 868 l 521 868 l 521 694 l 694 694 l 694 521 l 868 521 l 868 347 l 694 347 l 694 174 l 521 174 z "},"↑":{"ha":1042,"x_min":0,"x_max":868,"o":"m 521 0 l 347 0 l 347 347 l 0 347 l 0 521 l 174 521 l 174 694 l 347 694 l 347 868 l 521 868 l 521 694 l 694 694 l 694 521 l 868 521 l 868 347 l 521 347 l 521 0 z "},"↕":{"ha":1042,"x_min":0,"x_max":868,"o":"m 521 -174 l 347 -174 l 347 0 l 174 0 l 174 174 l 0 174 l 0 347 l 347 347 l 347 521 l 0 521 l 0 694 l 174 694 l 174 868 l 347 868 l 347 1042 l 521 1042 l 521 868 l 694 868 l 694 694 l 868 694 l 868 521 l 521 521 l 521 347 l 868 347 l 868 174 l 694 174 l 694 0 l 521 0 l 521 -174 z "},"^":{"ha":694,"x_min":0,"x_max":521,"o":"m 174 694 l 174 868 l 347 868 l 347 694 l 174 694 m 0 521 l 0 694 l 174 694 l 174 521 l 0 521 m 347 521 l 347 694 l 521 694 l 521 521 l 347 521 z "},"~":{"ha":521,"x_min":0,"x_max":347,"o":"m 0 347 l 0 521 l 347 521 l 347 347 l 0 347 z "},"*":{"ha":694,"x_min":0,"x_max":521,"o":"m 0 521 l 0 694 l 174 694 l 174 868 l 347 868 l 347 694 l 521 694 l 521 521 l 347 521 l 347 347 l 174 347 l 174 521 l 0 521 m 0 174 l 0 347 l 174 347 l 174 174 l 0 174 m 347 174 l 347 347 l 521 347 l 521 174 l 347 174 z "},"@":{"ha":868,"x_min":0,"x_max":694,"o":"m 174 694 l 174 868 l 521 868 l 521 694 l 174 694 m 174 174 l 0 174 l 0 694 l 174 694 l 174 174 m 521 521 l 521 694 l 694 694 l 694 347 l 347 347 l 347 521 l 521 521 m 174 0 l 174 174 l 521 174 l 521 0 l 174 0 z "},"ã":{"ha":694,"x_min":0,"x_max":521,"o":"m 174 868 l 174 1042 l 521 1042 l 521 868 l 174 868 m 174 0 l 174 174 l 0 174 l 0 521 l 174 521 l 174 174 l 347 174 l 347 521 l 174 521 l 174 694 l 521 694 l 521 0 l 174 0 z "},"b":{"ha":694,"x_min":0,"x_max":521,"o":"m 174 174 l 347 174 l 347 0 l 0 0 l 0 868 l 174 868 l 174 694 l 347 694 l 347 521 l 174 521 l 174 174 m 347 174 l 347 521 l 521 521 l 521 174 l 347 174 z "},"\\":{"ha":521,"x_min":0,"x_max":347,"o":"m 174 521 l 0 521 l 0 868 l 174 868 l 174 521 m 347 0 l 174 0 l 174 521 l 347 521 l 347 0 z "},"|":{"ha":347,"x_min":0,"x_max":174,"o":"m 174 0 l 0 0 l 0 868 l 174 868 l 174 0 z "},"{":{"ha":694,"x_min":0,"x_max":521,"o":"m 347 521 l 174 521 l 174 868 l 521 868 l 521 694 l 347 694 l 347 521 m 174 521 l 174 347 l 0 347 l 0 521 l 174 521 m 347 174 l 521 174 l 521 0 l 174 0 l 174 347 l 347 347 l 347 174 z "},"}":{"ha":694,"x_min":0,"x_max":521,"o":"m 174 521 l 174 694 l 0 694 l 0 868 l 347 868 l 347 521 l 174 521 m 347 521 l 521 521 l 521 347 l 347 347 l 347 521 m 174 174 l 174 347 l 347 347 l 347 0 l 0 0 l 0 174 l 174 174 z "},"[":{"ha":521,"x_min":0,"x_max":347,"o":"m 174 174 l 347 174 l 347 0 l 0 0 l 0 868 l 347 868 l 347 694 l 174 694 l 174 174 z "},"]":{"ha":521,"x_min":0,"x_max":347,"o":"m 0 0 l 0 174 l 174 174 l 174 694 l 0 694 l 0 868 l 347 868 l 347 0 l 0 0 z "},"˘":{"ha":694,"x_min":0,"x_max":521,"o":"m 0 694 l 0 868 l 174 868 l 174 694 l 0 694 m 347 694 l 347 868 l 521 868 l 521 694 l 347 694 m 174 521 l 174 694 l 347 694 l 347 521 l 174 521 z "},"¦":{"ha":347,"x_min":0,"x_max":174,"o":"m 174 521 l 0 521 l 0 868 l 174 868 l 174 521 m 174 0 l 0 0 l 0 347 l 174 347 l 174 0 z "},"•":{"ha":521,"x_min":0,"x_max":347,"o":"m 0 347 l 0 694 l 347 694 l 347 347 l 0 347 z "},"c":{"ha":694,"x_min":0,"x_max":521,"o":"m 174 521 l 174 694 l 521 694 l 521 521 l 174 521 m 174 174 l 0 174 l 0 521 l 174 521 l 174 174 m 174 0 l 174 174 l 521 174 l 521 0 l 174 0 z "},"ć":{"ha":694,"x_min":0,"x_max":521,"o":"m 347 1042 l 347 1215 l 521 1215 l 521 1042 l 347 1042 m 174 868 l 174 1042 l 347 1042 l 347 868 l 174 868 m 174 521 l 174 694 l 521 694 l 521 521 l 174 521 m 174 174 l 0 174 l 0 521 l 174 521 l 174 174 m 174 0 l 174 174 l 521 174 l 521 0 l 174 0 z "},"ˇ":{"ha":694,"x_min":0,"x_max":521,"o":"m 0 694 l 0 868 l 174 868 l 174 694 l 0 694 m 347 694 l 347 868 l 521 868 l 521 694 l 347 694 m 174 521 l 174 694 l 347 694 l 347 521 l 174 521 z "},"č":{"ha":694,"x_min":0,"x_max":521,"o":"m 0 1042 l 0 1215 l 174 1215 l 174 1042 l 0 1042 m 347 1042 l 347 1215 l 521 1215 l 521 1042 l 347 1042 m 174 868 l 174 1042 l 347 1042 l 347 868 l 174 868 m 174 521 l 174 694 l 521 694 l 521 521 l 174 521 m 174 174 l 0 174 l 0 521 l 174 521 l 174 174 m 174 0 l 174 174 l 521 174 l 521 0 l 174 0 z "},"ç":{"ha":694,"x_min":0,"x_max":521,"o":"m 174 -174 l 174 0 l 347 0 l 347 -174 l 174 -174 m 174 521 l 174 694 l 521 694 l 521 521 l 174 521 m 174 174 l 0 174 l 0 521 l 174 521 l 174 174 m 174 0 l 174 174 l 521 174 l 521 0 l 174 0 z "},"ĉ":{"ha":694,"x_min":0,"x_max":521,"o":"m 174 1042 l 174 1215 l 347 1215 l 347 1042 l 174 1042 m 0 868 l 0 1042 l 174 1042 l 174 868 l 0 868 m 347 868 l 347 1042 l 521 1042 l 521 868 l 347 868 m 174 521 l 174 694 l 521 694 l 521 521 l 174 521 m 174 174 l 0 174 l 0 521 l 174 521 l 174 174 m 174 0 l 174 174 l 521 174 l 521 0 l 174 0 z "},"ċ":{"ha":694,"x_min":0,"x_max":521,"o":"m 174 868 l 174 1042 l 347 1042 l 347 868 l 174 868 m 174 521 l 174 694 l 521 694 l 521 521 l 174 521 m 174 174 l 0 174 l 0 521 l 174 521 l 174 174 m 174 0 l 174 174 l 521 174 l 521 0 l 174 0 z "},"¸":{"ha":347,"x_min":0,"x_max":174,"o":"m 0 0 l 0 174 l 174 174 l 174 0 l 0 0 z "},"¢":{"ha":694,"x_min":0,"x_max":521,"o":"m 521 521 l 174 521 l 174 868 l 347 868 l 347 694 l 521 694 l 521 521 m 174 521 l 174 347 l 0 347 l 0 521 l 174 521 m 347 174 l 347 0 l 174 0 l 174 347 l 521 347 l 521 174 l 347 174 z "},"○":{"ha":868,"x_min":0,"x_max":694,"o":"m 174 694 l 174 868 l 521 868 l 521 694 l 174 694 m 174 347 l 0 347 l 0 694 l 174 694 l 174 347 m 521 347 l 521 694 l 694 694 l 694 347 l 521 347 m 174 174 l 174 347 l 521 347 l 521 174 l 174 174 z "},"ˆ":{"ha":694,"x_min":0,"x_max":521,"o":"m 174 694 l 174 868 l 347 868 l 347 694 l 174 694 m 0 521 l 0 694 l 174 694 l 174 521 l 0 521 m 347 521 l 347 694 l 521 694 l 521 521 l 347 521 z "},":":{"ha":347,"x_min":0,"x_max":174,"o":"m 0 521 l 0 694 l 174 694 l 174 521 l 0 521 m 0 0 l 0 174 l 174 174 l 174 0 l 0 0 z "},",":{"ha":521,"x_min":0,"x_max":347,"o":"m 174 0 l 174 174 l 347 174 l 347 0 l 174 0 m 0 -174 l 0 0 l 174 0 l 174 -174 l 0 -174 z "},"©":{"ha":694,"x_min":0,"x_max":521,"o":"m 174 694 l 174 868 l 521 868 l 521 694 l 174 694 m 174 347 l 0 347 l 0 694 l 174 694 l 174 347 m 174 174 l 174 347 l 521 347 l 521 174 l 174 174 z "},"¤":{"ha":868,"x_min":0,"x_max":694,"o":"m 0 521 l 0 694 l 174 694 l 174 521 l 0 521 m 521 521 l 521 694 l 694 694 l 694 521 l 521 521 m 174 521 l 521 521 l 521 174 l 174 174 l 174 521 m 174 174 l 174 0 l 0 0 l 0 174 l 174 174 m 521 174 l 694 174 l 694 0 l 521 0 l 521 174 z "},"d":{"ha":694,"x_min":0,"x_max":521,"o":"m 174 0 l 174 174 l 0 174 l 0 521 l 174 521 l 174 174 l 347 174 l 347 521 l 174 521 l 174 694 l 347 694 l 347 868 l 521 868 l 521 0 l 174 0 z "},"†":{"ha":694,"x_min":0,"x_max":521,"o":"m 347 0 l 174 0 l 174 521 l 0 521 l 0 694 l 174 694 l 174 868 l 347 868 l 347 694 l 521 694 l 521 521 l 347 521 l 347 0 z "},"‡":{"ha":694,"x_min":0,"x_max":521,"o":"m 0 174 l 0 347 l 174 347 l 174 521 l 0 521 l 0 694 l 174 694 l 174 868 l 347 868 l 347 694 l 521 694 l 521 521 l 347 521 l 347 347 l 521 347 l 521 174 l 347 174 l 347 0 l 174 0 l 174 174 l 0 174 z "},"ď":{"ha":1042,"x_min":0,"x_max":868,"o":"m 868 521 l 694 521 l 694 868 l 868 868 l 868 521 m 174 0 l 174 174 l 0 174 l 0 521 l 174 521 l 174 174 l 347 174 l 347 521 l 174 521 l 174 694 l 347 694 l 347 868 l 521 868 l 521 0 l 174 0 z "},"đ":{"ha":694,"x_min":0,"x_max":694,"o":"m 174 0 l 174 174 l 0 174 l 0 521 l 174 521 l 174 174 l 347 174 l 347 521 l 174 521 l 174 868 l 347 868 l 347 1042 l 521 1042 l 521 868 l 694 868 l 694 694 l 521 694 l 521 0 l 174 0 z "},"°":{"ha":694,"x_min":0,"x_max":521,"o":"m 174 694 l 174 868 l 347 868 l 347 694 l 174 694 m 0 521 l 0 694 l 174 694 l 174 521 l 0 521 m 347 521 l 347 694 l 521 694 l 521 521 l 347 521 m 174 521 l 347 521 l 347 347 l 174 347 l 174 521 z "},"¨":{"ha":694,"x_min":0,"x_max":521,"o":"m 0 694 l 0 868 l 174 868 l 174 694 l 0 694 m 347 694 l 347 868 l 521 868 l 521 694 l 347 694 z "},"÷":{"ha":694,"x_min":0,"x_max":521,"o":"m 174 694 l 174 868 l 347 868 l 347 694 l 174 694 m 0 347 l 0 521 l 521 521 l 521 347 l 0 347 m 174 0 l 174 174 l 347 174 l 347 0 l 174 0 z "},"$":{"ha":694,"x_min":0,"x_max":521,"o":"m 347 521 l 347 347 l 0 347 l 0 521 l 174 521 l 174 868 l 347 868 l 347 694 l 521 694 l 521 521 l 347 521 m 521 174 l 347 174 l 347 347 l 521 347 l 521 174 m 347 174 l 347 -174 l 174 -174 l 174 0 l 0 0 l 0 174 l 347 174 z "},"˙":{"ha":347,"x_min":0,"x_max":174,"o":"m 0 694 l 0 868 l 174 868 l 174 694 l 0 694 z "},"̣":{"ha":0,"x_min":0,"x_max":174,"o":"m 0 0 l 0 174 l 174 174 l 174 0 l 0 0 z "},"ı":{"ha":347,"x_min":0,"x_max":174,"o":"m 174 0 l 0 0 l 0 694 l 174 694 l 174 0 z "},"e":{"ha":694,"x_min":0,"x_max":521,"o":"m 174 174 l 0 174 l 0 521 l 174 521 l 174 694 l 347 694 l 347 521 l 521 521 l 521 347 l 174 347 l 174 174 m 174 0 l 174 174 l 521 174 l 521 0 l 174 0 z "},"é":{"ha":694,"x_min":0,"x_max":521,"o":"m 347 1042 l 347 1215 l 521 1215 l 521 1042 l 347 1042 m 174 868 l 174 1042 l 347 1042 l 347 868 l 174 868 m 174 174 l 0 174 l 0 521 l 174 521 l 174 694 l 347 694 l 347 521 l 521 521 l 521 347 l 174 347 l 174 174 m 174 0 l 174 174 l 521 174 l 521 0 l 174 0 z "},"ĕ":{"ha":694,"x_min":0,"x_max":521,"o":"m 0 1042 l 0 1215 l 174 1215 l 174 1042 l 0 1042 m 347 1042 l 347 1215 l 521 1215 l 521 1042 l 347 1042 m 174 868 l 174 1042 l 347 1042 l 347 868 l 174 868 m 174 174 l 0 174 l 0 521 l 174 521 l 174 694 l 347 694 l 347 521 l 521 521 l 521 347 l 174 347 l 174 174 m 174 0 l 174 174 l 521 174 l 521 0 l 174 0 z "},"ě":{"ha":694,"x_min":0,"x_max":521,"o":"m 0 1042 l 0 1215 l 174 1215 l 174 1042 l 0 1042 m 347 1042 l 347 1215 l 521 1215 l 521 1042 l 347 1042 m 174 868 l 174 1042 l 347 1042 l 347 868 l 174 868 m 174 174 l 0 174 l 0 521 l 174 521 l 174 694 l 347 694 l 347 521 l 521 521 l 521 347 l 174 347 l 174 174 m 174 0 l 174 174 l 521 174 l 521 0 l 174 0 z "},"ê":{"ha":694,"x_min":0,"x_max":521,"o":"m 174 1042 l 174 1215 l 347 1215 l 347 1042 l 174 1042 m 0 868 l 0 1042 l 174 1042 l 174 868 l 0 868 m 347 868 l 347 1042 l 521 1042 l 521 868 l 347 868 m 174 174 l 0 174 l 0 521 l 174 521 l 174 694 l 347 694 l 347 521 l 521 521 l 521 347 l 174 347 l 174 174 m 174 0 l 174 174 l 521 174 l 521 0 l 174 0 z "},"ë":{"ha":694,"x_min":0,"x_max":521,"o":"m 0 868 l 0 1042 l 174 1042 l 174 868 l 0 868 m 347 868 l 347 1042 l 521 1042 l 521 868 l 347 868 m 174 174 l 0 174 l 0 521 l 174 521 l 174 694 l 347 694 l 347 521 l 521 521 l 521 347 l 174 347 l 174 174 m 174 0 l 174 174 l 521 174 l 521 0 l 174 0 z "},"ė":{"ha":694,"x_min":0,"x_max":521,"o":"m 174 868 l 174 1042 l 347 1042 l 347 868 l 174 868 m 174 174 l 0 174 l 0 521 l 174 521 l 174 694 l 347 694 l 347 521 l 521 521 l 521 347 l 174 347 l 174 174 m 174 0 l 174 174 l 521 174 l 521 0 l 174 0 z "},"è":{"ha":694,"x_min":0,"x_max":521,"o":"m 0 1042 l 0 1215 l 174 1215 l 174 1042 l 0 1042 m 174 868 l 174 1042 l 347 1042 l 347 868 l 174 868 m 174 174 l 0 174 l 0 521 l 174 521 l 174 694 l 347 694 l 347 521 l 521 521 l 521 347 l 174 347 l 174 174 m 174 0 l 174 174 l 521 174 l 521 0 l 174 0 z "},"…":{"ha":1042,"x_min":0,"x_max":868,"o":"m 0 0 l 0 174 l 174 174 l 174 0 l 0 0 m 521 174 l 521 0 l 347 0 l 347 174 l 521 174 m 694 0 l 694 174 l 868 174 l 868 0 l 694 0 z "},"ē":{"ha":694,"x_min":0,"x_max":521,"o":"m 0 868 l 0 1042 l 521 1042 l 521 868 l 0 868 m 174 174 l 0 174 l 0 521 l 174 521 l 174 694 l 347 694 l 347 521 l 521 521 l 521 347 l 174 347 l 174 174 m 174 0 l 174 174 l 521 174 l 521 0 l 174 0 z "},"—":{"ha":1042,"x_min":0,"x_max":868,"o":"m 868 521 l 868 347 l 0 347 l 0 521 l 868 521 z "},"–":{"ha":694,"x_min":0,"x_max":521,"o":"m 0 347 l 0 521 l 521 521 l 521 347 l 0 347 z "},"ŋ":{"ha":694,"x_min":0,"x_max":521,"o":"m 174 0 l 0 0 l 0 694 l 347 694 l 347 521 l 174 521 l 174 0 m 347 0 l 347 521 l 521 521 l 521 0 l 347 0 m 347 -174 l 174 -174 l 174 0 l 347 0 l 347 -174 z "},"ę":{"ha":694,"x_min":0,"x_max":521,"o":"m 174 -174 l 174 0 l 347 0 l 347 -174 l 174 -174 m 174 174 l 0 174 l 0 521 l 174 521 l 174 694 l 347 694 l 347 521 l 521 521 l 521 347 l 174 347 l 174 174 m 174 0 l 174 174 l 521 174 l 521 0 l 174 0 z "},"=":{"ha":694,"x_min":0,"x_max":521,"o":"m 0 521 l 0 694 l 521 694 l 521 521 l 0 521 m 0 174 l 0 347 l 521 347 l 521 174 l 0 174 z "},"℮":{"ha":694,"x_min":0,"x_max":521,"o":"m 174 174 l 0 174 l 0 521 l 174 521 l 174 694 l 347 694 l 347 521 l 521 521 l 521 347 l 174 347 l 174 174 m 174 0 l 174 174 l 521 174 l 521 0 l 174 0 z "},"ð":{"ha":694,"x_min":0,"x_max":521,"o":"m 174 694 l 174 868 l 347 868 l 347 694 l 174 694 m 347 174 l 347 347 l 174 347 l 174 521 l 347 521 l 347 694 l 521 694 l 521 174 l 347 174 m 0 174 l 0 347 l 174 347 l 174 174 l 0 174 m 174 174 l 347 174 l 347 0 l 174 0 l 174 174 z "},"!":{"ha":347,"x_min":0,"x_max":174,"o":"m 174 347 l 0 347 l 0 868 l 174 868 l 174 347 m 0 0 l 0 174 l 174 174 l 174 0 l 0 0 z "},"¡":{"ha":347,"x_min":0,"x_max":174,"o":"m 0 694 l 0 868 l 174 868 l 174 694 l 0 694 m 174 0 l 0 0 l 0 521 l 174 521 l 174 0 z "},"f":{"ha":521,"x_min":0,"x_max":347,"o":"m 174 694 l 174 868 l 347 868 l 347 694 l 174 694 m 174 0 l 0 0 l 0 694 l 174 694 l 174 521 l 347 521 l 347 347 l 174 347 l 174 0 z "},"■":{"ha":694,"x_min":0,"x_max":521,"o":"m 0 174 l 0 694 l 521 694 l 521 174 l 0 174 z "},"ƒ":{"ha":694,"x_min":0,"x_max":521,"o":"m 347 694 l 347 868 l 521 868 l 521 694 l 347 694 m 347 0 l 174 0 l 174 694 l 347 694 l 347 521 l 521 521 l 521 347 l 347 347 l 347 0 m 174 0 l 174 -174 l 0 -174 l 0 0 l 174 0 z "},"⁄":{"ha":521,"x_min":0,"x_max":347,"o":"m 174 521 l 174 868 l 347 868 l 347 521 l 174 521 m 174 0 l 0 0 l 0 521 l 174 521 l 174 0 z "},"g":{"ha":694,"x_min":0,"x_max":521,"o":"m 0 0 l 174 0 l 174 174 l 0 174 l 0 521 l 174 521 l 174 174 l 347 174 l 347 521 l 174 521 l 174 694 l 521 694 l 521 0 l 347 0 l 347 -174 l 0 -174 l 0 0 z "},"ğ":{"ha":694,"x_min":0,"x_max":521,"o":"m 0 1042 l 0 1215 l 174 1215 l 174 1042 l 0 1042 m 347 1042 l 347 1215 l 521 1215 l 521 1042 l 347 1042 m 174 868 l 174 1042 l 347 1042 l 347 868 l 174 868 m 0 0 l 174 0 l 174 174 l 0 174 l 0 521 l 174 521 l 174 174 l 347 174 l 347 521 l 174 521 l 174 694 l 521 694 l 521 0 l 347 0 l 347 -174 l 0 -174 l 0 0 z "},"ĝ":{"ha":694,"x_min":0,"x_max":521,"o":"m 174 1042 l 174 1215 l 347 1215 l 347 1042 l 174 1042 m 0 868 l 0 1042 l 174 1042 l 174 868 l 0 868 m 347 868 l 347 1042 l 521 1042 l 521 868 l 347 868 m 0 0 l 174 0 l 174 174 l 0 174 l 0 521 l 174 521 l 174 174 l 347 174 l 347 521 l 174 521 l 174 694 l 521 694 l 521 0 l 347 0 l 347 -174 l 0 -174 l 0 0 z "},"ģ":{"ha":694,"x_min":0,"x_max":521,"o":"m 347 868 l 174 868 l 174 1215 l 347 1215 l 347 868 m 0 0 l 174 0 l 174 174 l 0 174 l 0 521 l 174 521 l 174 174 l 347 174 l 347 521 l 174 521 l 174 694 l 521 694 l 521 0 l 347 0 l 347 -174 l 0 -174 l 0 0 z "},"ġ":{"ha":694,"x_min":0,"x_max":521,"o":"m 174 868 l 174 1042 l 347 1042 l 347 868 l 174 868 m 0 0 l 174 0 l 174 174 l 0 174 l 0 521 l 174 521 l 174 174 l 347 174 l 347 521 l 174 521 l 174 694 l 521 694 l 521 0 l 347 0 l 347 -174 l 0 -174 l 0 0 z "},"ß":{"ha":868,"x_min":0,"x_max":694,"o":"m 174 694 l 174 868 l 521 868 l 521 694 l 174 694 m 174 0 l 0 0 l 0 694 l 174 694 l 174 0 m 694 521 l 521 521 l 521 694 l 694 694 l 694 521 m 521 521 l 521 347 l 347 347 l 347 521 l 521 521 m 694 174 l 521 174 l 521 347 l 694 347 l 694 174 m 521 174 l 521 0 l 347 0 l 347 174 l 521 174 z "},"`":{"ha":521,"x_min":0,"x_max":347,"o":"m 0 694 l 0 868 l 174 868 l 174 694 l 0 694 m 174 521 l 174 694 l 347 694 l 347 521 l 174 521 z "},"̀":{"ha":0,"x_min":0,"x_max":347,"o":"m 0 694 l 0 868 l 174 868 l 174 694 l 0 694 m 174 521 l 174 694 l 347 694 l 347 521 l 174 521 z "},">":{"ha":694,"x_min":0,"x_max":521,"o":"m 0 694 l 0 868 l 174 868 l 174 694 l 0 694 m 174 521 l 174 694 l 347 694 l 347 521 l 174 521 m 347 521 l 521 521 l 521 347 l 347 347 l 347 521 m 347 174 l 174 174 l 174 347 l 347 347 l 347 174 m 174 174 l 174 0 l 0 0 l 0 174 l 174 174 z "},"≥":{"ha":694,"x_min":0,"x_max":521,"o":"m 0 868 l 0 1042 l 174 1042 l 174 868 l 0 868 m 174 868 l 347 868 l 347 694 l 174 694 l 174 868 m 521 521 l 347 521 l 347 694 l 521 694 l 521 521 m 347 521 l 347 347 l 174 347 l 174 521 l 347 521 m 0 174 l 0 347 l 174 347 l 174 174 l 0 174 m 0 -174 l 0 0 l 521 0 l 521 -174 l 0 -174 z "},"«":{"ha":1042,"x_min":0,"x_max":868,"o":"m 868 521 l 694 521 l 694 694 l 868 694 l 868 521 m 347 521 l 174 521 l 174 694 l 347 694 l 347 521 m 174 521 l 174 347 l 0 347 l 0 521 l 174 521 m 694 521 l 694 347 l 521 347 l 521 521 l 694 521 m 174 174 l 174 347 l 347 347 l 347 174 l 174 174 m 694 174 l 694 347 l 868 347 l 868 174 l 694 174 z "},"»":{"ha":1042,"x_min":0,"x_max":868,"o":"m 694 521 l 521 521 l 521 694 l 694 694 l 694 521 m 0 521 l 0 694 l 174 694 l 174 521 l 0 521 m 174 521 l 347 521 l 347 347 l 174 347 l 174 521 m 694 347 l 694 521 l 868 521 l 868 347 l 694 347 m 0 174 l 0 347 l 174 347 l 174 174 l 0 174 m 521 174 l 521 347 l 694 347 l 694 174 l 521 174 z "},"‹":{"ha":521,"x_min":0,"x_max":347,"o":"m 347 521 l 174 521 l 174 694 l 347 694 l 347 521 m 174 521 l 174 347 l 0 347 l 0 521 l 174 521 m 174 174 l 174 347 l 347 347 l 347 174 l 174 174 z "},"›":{"ha":521,"x_min":0,"x_max":347,"o":"m 0 521 l 0 694 l 174 694 l 174 521 l 0 521 m 174 521 l 347 521 l 347 347 l 174 347 l 174 521 m 0 174 l 0 347 l 174 347 l 174 174 l 0 174 z "},"h":{"ha":694,"x_min":0,"x_max":521,"o":"m 174 0 l 0 0 l 0 868 l 174 868 l 174 694 l 347 694 l 347 521 l 174 521 l 174 0 m 521 0 l 347 0 l 347 521 l 521 521 l 521 0 z "},"ħ":{"ha":868,"x_min":0,"x_max":694,"o":"m 347 0 l 174 0 l 174 694 l 0 694 l 0 868 l 174 868 l 174 1042 l 347 1042 l 347 868 l 521 868 l 521 521 l 347 521 l 347 0 m 694 0 l 521 0 l 521 521 l 694 521 l 694 0 z "},"ĥ":{"ha":694,"x_min":0,"x_max":521,"o":"m 174 1215 l 174 1389 l 347 1389 l 347 1215 l 174 1215 m 0 1042 l 0 1215 l 174 1215 l 174 1042 l 0 1042 m 347 1042 l 347 1215 l 521 1215 l 521 1042 l 347 1042 m 174 0 l 0 0 l 0 868 l 174 868 l 174 694 l 347 694 l 347 521 l 174 521 l 174 0 m 521 0 l 347 0 l 347 521 l 521 521 l 521 0 z "},"˝":{"ha":868,"x_min":0,"x_max":694,"o":"m 174 694 l 174 868 l 347 868 l 347 694 l 174 694 m 521 694 l 521 868 l 694 868 l 694 694 l 521 694 m 0 521 l 0 694 l 174 694 l 174 521 l 0 521 m 347 521 l 347 694 l 521 694 l 521 521 l 347 521 z "},"-":{"ha":694,"x_min":0,"x_max":521,"o":"m 0 347 l 0 521 l 521 521 l 521 347 l 0 347 z "},"i":{"ha":347,"x_min":0,"x_max":174,"o":"m 0 868 l 0 1042 l 174 1042 l 174 868 l 0 868 m 174 0 l 0 0 l 0 694 l 174 694 l 174 0 z "},"í":{"ha":347,"x_min":0,"x_max":347,"o":"m 174 1042 l 174 1215 l 347 1215 l 347 1042 l 174 1042 m 0 868 l 0 1042 l 174 1042 l 174 868 l 0 868 m 174 0 l 0 0 l 0 694 l 174 694 l 174 0 z "},"ĭ":{"ha":347,"x_min":-174,"x_max":347,"o":"m -174 1042 l -174 1215 l 0 1215 l 0 1042 l -174 1042 m 174 1042 l 174 1215 l 347 1215 l 347 1042 l 174 1042 m 0 868 l 0 1042 l 174 1042 l 174 868 l 0 868 m 174 0 l 0 0 l 0 694 l 174 694 l 174 0 z "},"î":{"ha":347,"x_min":-174,"x_max":347,"o":"m 0 1042 l 0 1215 l 174 1215 l 174 1042 l 0 1042 m -174 868 l -174 1042 l 0 1042 l 0 868 l -174 868 m 174 868 l 174 1042 l 347 1042 l 347 868 l 174 868 m 174 0 l 0 0 l 0 694 l 174 694 l 174 0 z "},"ï":{"ha":347,"x_min":-174,"x_max":347,"o":"m -174 868 l -174 1042 l 0 1042 l 0 868 l -174 868 m 174 868 l 174 1042 l 347 1042 l 347 868 l 174 868 m 174 0 l 0 0 l 0 694 l 174 694 l 174 0 z "},"ì":{"ha":347,"x_min":-174,"x_max":174,"o":"m -174 1042 l -174 1215 l 0 1215 l 0 1042 l -174 1042 m 0 868 l 0 1042 l 174 1042 l 174 868 l 0 868 m 174 0 l 0 0 l 0 694 l 174 694 l 174 0 z "},"ĳ":{"ha":694,"x_min":0,"x_max":521,"o":"m 0 868 l 0 1042 l 174 1042 l 174 868 l 0 868 m 347 868 l 347 1042 l 521 1042 l 521 868 l 347 868 m 521 -174 l 347 -174 l 347 694 l 521 694 l 521 -174 m 174 0 l 0 0 l 0 694 l 174 694 l 174 0 z "},"ī":{"ha":347,"x_min":-174,"x_max":347,"o":"m -174 868 l -174 1042 l 347 1042 l 347 868 l -174 868 m 174 0 l 0 0 l 0 694 l 174 694 l 174 0 z "},"∞":{"ha":1042,"x_min":0,"x_max":868,"o":"m 694 521 l 521 521 l 521 694 l 694 694 l 694 521 m 347 521 l 174 521 l 174 694 l 347 694 l 347 521 m 174 521 l 174 347 l 0 347 l 0 521 l 174 521 m 521 521 l 521 347 l 347 347 l 347 521 l 521 521 m 868 521 l 868 347 l 694 347 l 694 521 l 868 521 m 174 174 l 174 347 l 347 347 l 347 174 l 174 174 m 521 174 l 521 347 l 694 347 l 694 174 l 521 174 z "},"∫":{"ha":694,"x_min":0,"x_max":521,"o":"m 347 868 l 347 1042 l 521 1042 l 521 868 l 347 868 m 347 0 l 174 0 l 174 868 l 347 868 l 347 0 m 174 0 l 174 -174 l 0 -174 l 0 0 l 174 0 z "},"į":{"ha":347,"x_min":-174,"x_max":174,"o":"m -174 -174 l -174 0 l 0 0 l 0 -174 l -174 -174 m 0 868 l 0 1042 l 174 1042 l 174 868 l 0 868 m 174 0 l 0 0 l 0 694 l 174 694 l 174 0 z "},"ĩ":{"ha":347,"x_min":0,"x_max":347,"o":"m 0 868 l 0 1042 l 347 1042 l 347 868 l 0 868 m 174 0 l 0 0 l 0 694 l 174 694 l 174 0 z "},"j":{"ha":347,"x_min":0,"x_max":174,"o":"m 0 868 l 0 1042 l 174 1042 l 174 868 l 0 868 m 174 -174 l 0 -174 l 0 694 l 174 694 l 174 -174 z "},"ĵ":{"ha":347,"x_min":-174,"x_max":347,"o":"m 0 1042 l 0 1215 l 174 1215 l 174 1042 l 0 1042 m -174 868 l -174 1042 l 0 1042 l 0 868 l -174 868 m 174 868 l 174 1042 l 347 1042 l 347 868 l 174 868 m 174 -174 l 0 -174 l 0 694 l 174 694 l 174 -174 z "},"k":{"ha":694,"x_min":0,"x_max":521,"o":"m 174 0 l 0 0 l 0 868 l 174 868 l 174 521 l 347 521 l 347 347 l 174 347 l 174 0 m 347 521 l 347 694 l 521 694 l 521 521 l 347 521 m 521 0 l 347 0 l 347 347 l 521 347 l 521 0 z "},"ķ":{"ha":694,"x_min":0,"x_max":521,"o":"m 174 -347 l 174 -174 l 347 -174 l 347 -347 l 174 -347 m 174 0 l 0 0 l 0 868 l 174 868 l 174 521 l 347 521 l 347 347 l 174 347 l 174 0 m 347 521 l 347 694 l 521 694 l 521 521 l 347 521 m 521 0 l 347 0 l 347 347 l 521 347 l 521 0 z "},"ĸ":{"ha":694,"x_min":0,"x_max":521,"o":"m 174 0 l 0 0 l 0 694 l 174 694 l 174 521 l 347 521 l 347 347 l 174 347 l 174 0 m 347 521 l 347 694 l 521 694 l 521 521 l 347 521 m 521 0 l 347 0 l 347 347 l 521 347 l 521 0 z "},"l":{"ha":347,"x_min":0,"x_max":174,"o":"m 174 0 l 0 0 l 0 868 l 174 868 l 174 0 z "},"ĺ":{"ha":347,"x_min":0,"x_max":347,"o":"m 174 1215 l 174 1389 l 347 1389 l 347 1215 l 174 1215 m 0 1042 l 0 1215 l 174 1215 l 174 1042 l 0 1042 m 174 0 l 0 0 l 0 868 l 174 868 l 174 0 z "},"ľ":{"ha":694,"x_min":0,"x_max":521,"o":"m 521 521 l 347 521 l 347 868 l 521 868 l 521 521 m 174 0 l 0 0 l 0 868 l 174 868 l 174 0 z "},"ļ":{"ha":347,"x_min":0,"x_max":174,"o":"m 0 -347 l 0 -174 l 174 -174 l 174 -347 l 0 -347 m 174 0 l 0 0 l 0 868 l 174 868 l 174 0 z "},"ŀ":{"ha":694,"x_min":0,"x_max":521,"o":"m 347 347 l 347 521 l 521 521 l 521 347 l 347 347 m 174 0 l 0 0 l 0 868 l 174 868 l 174 0 z "},"<":{"ha":694,"x_min":0,"x_max":521,"o":"m 347 694 l 347 868 l 521 868 l 521 694 l 347 694 m 347 521 l 174 521 l 174 694 l 347 694 l 347 521 m 174 521 l 174 347 l 0 347 l 0 521 l 174 521 m 174 174 l 174 347 l 347 347 l 347 174 l 174 174 m 347 174 l 521 174 l 521 0 l 347 0 l 347 174 z "},"≤":{"ha":694,"x_min":0,"x_max":521,"o":"m 521 868 l 347 868 l 347 1042 l 521 1042 l 521 868 m 347 868 l 347 694 l 174 694 l 174 868 l 347 868 m 0 521 l 0 694 l 174 694 l 174 521 l 0 521 m 174 521 l 347 521 l 347 347 l 174 347 l 174 521 m 347 174 l 347 347 l 521 347 l 521 174 l 347 174 m 0 -174 l 0 0 l 521 0 l 521 -174 l 0 -174 z "},"¬":{"ha":694,"x_min":0,"x_max":521,"o":"m 347 174 l 347 347 l 0 347 l 0 521 l 521 521 l 521 174 l 347 174 z "},"ſ":{"ha":521,"x_min":0,"x_max":347,"o":"m 174 694 l 174 868 l 347 868 l 347 694 l 174 694 m 174 0 l 0 0 l 0 694 l 174 694 l 174 0 z "},"◊":{"ha":1042,"x_min":0,"x_max":868,"o":"m 347 694 l 347 868 l 521 868 l 521 694 l 347 694 m 694 521 l 521 521 l 521 694 l 694 694 l 694 521 m 347 521 l 174 521 l 174 694 l 347 694 l 347 521 m 174 521 l 174 347 l 0 347 l 0 521 l 174 521 m 868 521 l 868 347 l 694 347 l 694 521 l 868 521 m 174 174 l 174 347 l 347 347 l 347 174 l 174 174 m 521 174 l 521 347 l 694 347 l 694 174 l 521 174 m 347 174 l 521 174 l 521 0 l 347 0 l 347 174 z "},"ł":{"ha":694,"x_min":0,"x_max":521,"o":"m 347 0 l 174 0 l 174 347 l 0 347 l 0 521 l 174 521 l 174 868 l 347 868 l 347 694 l 521 694 l 521 521 l 347 521 l 347 0 z "},"m":{"ha":1042,"x_min":0,"x_max":868,"o":"m 174 0 l 0 0 l 0 694 l 694 694 l 694 521 l 521 521 l 521 0 l 347 0 l 347 521 l 174 521 l 174 0 m 868 0 l 694 0 l 694 521 l 868 521 l 868 0 z "},"¯":{"ha":694,"x_min":0,"x_max":521,"o":"m 0 694 l 0 868 l 521 868 l 521 694 l 0 694 z "},"ˉ":{"ha":694,"x_min":0,"x_max":521,"o":"m 0 694 l 0 868 l 521 868 l 521 694 l 0 694 z "},"−":{"ha":521,"x_min":0,"x_max":347,"o":"m 0 347 l 0 521 l 347 521 l 347 347 l 0 347 z "},"′":{"ha":347,"x_min":0,"x_max":174,"o":"m 174 694 l 0 694 l 0 1042 l 174 1042 l 174 694 z "},"µ":{"ha":694,"x_min":0,"x_max":521,"o":"m 174 -174 l 0 -174 l 0 694 l 174 694 l 174 174 l 347 174 l 347 694 l 521 694 l 521 0 l 174 0 l 174 -174 z "},"×":{"ha":694,"x_min":0,"x_max":521,"o":"m 0 521 l 0 694 l 174 694 l 174 521 l 0 521 m 347 521 l 347 694 l 521 694 l 521 521 l 347 521 m 174 521 l 347 521 l 347 347 l 174 347 l 174 521 m 0 174 l 0 347 l 174 347 l 174 174 l 0 174 m 347 174 l 347 347 l 521 347 l 521 174 l 347 174 z "},"n":{"ha":694,"x_min":0,"x_max":521,"o":"m 174 0 l 0 0 l 0 694 l 347 694 l 347 521 l 174 521 l 174 0 m 521 0 l 347 0 l 347 521 l 521 521 l 521 0 z "},"ń":{"ha":694,"x_min":0,"x_max":521,"o":"m 347 1042 l 347 1215 l 521 1215 l 521 1042 l 347 1042 m 174 868 l 174 1042 l 347 1042 l 347 868 l 174 868 m 174 0 l 0 0 l 0 694 l 347 694 l 347 521 l 174 521 l 174 0 m 521 0 l 347 0 l 347 521 l 521 521 l 521 0 z "},"ŉ":{"ha":1042,"x_min":0,"x_max":868,"o":"m 521 0 l 347 0 l 347 694 l 694 694 l 694 521 l 521 521 l 521 0 m 868 0 l 694 0 l 694 521 l 868 521 l 868 0 m 174 521 l 0 521 l 0 868 l 174 868 l 174 521 z "},"ň":{"ha":694,"x_min":0,"x_max":521,"o":"m 0 1042 l 0 1215 l 174 1215 l 174 1042 l 0 1042 m 347 1042 l 347 1215 l 521 1215 l 521 1042 l 347 1042 m 174 868 l 174 1042 l 347 1042 l 347 868 l 174 868 m 174 0 l 0 0 l 0 694 l 347 694 l 347 521 l 174 521 l 174 0 m 521 0 l 347 0 l 347 521 l 521 521 l 521 0 z "},"ņ":{"ha":694,"x_min":0,"x_max":521,"o":"m 174 -347 l 174 -174 l 347 -174 l 347 -347 l 174 -347 m 174 0 l 0 0 l 0 694 l 347 694 l 347 521 l 174 521 l 174 0 m 521 0 l 347 0 l 347 521 l 521 521 l 521 0 z "},"≠":{"ha":694,"x_min":0,"x_max":521,"o":"m 174 174 l 174 0 l 0 0 l 0 347 l 174 347 l 174 521 l 0 521 l 0 694 l 347 694 l 347 868 l 521 868 l 521 521 l 347 521 l 347 347 l 521 347 l 521 174 l 174 174 z "},"ⁿ":{"ha":694,"x_min":0,"x_max":521,"o":"m 174 347 l 0 347 l 0 868 l 347 868 l 347 694 l 174 694 l 174 347 m 521 347 l 347 347 l 347 694 l 521 694 l 521 347 z "},"ñ":{"ha":694,"x_min":0,"x_max":521,"o":"m 0 868 l 0 1042 l 347 1042 l 347 868 l 0 868 m 174 0 l 0 0 l 0 694 l 347 694 l 347 521 l 174 521 l 174 0 m 521 0 l 347 0 l 347 521 l 521 521 l 521 0 z "},"#":{"ha":1042,"x_min":0,"x_max":868,"o":"m 521 174 l 347 174 l 347 0 l 174 0 l 174 174 l 0 174 l 0 347 l 174 347 l 174 521 l 0 521 l 0 694 l 174 694 l 174 868 l 347 868 l 347 694 l 521 694 l 521 868 l 694 868 l 694 694 l 868 694 l 868 521 l 694 521 l 694 347 l 868 347 l 868 174 l 694 174 l 694 0 l 521 0 l 521 174 m 521 521 l 347 521 l 347 347 l 521 347 l 521 521 z "},"o":{"ha":694,"x_min":0,"x_max":521,"o":"m 174 521 l 174 694 l 347 694 l 347 521 l 174 521 m 174 174 l 0 174 l 0 521 l 174 521 l 174 174 m 521 174 l 347 174 l 347 521 l 521 521 l 521 174 m 347 174 l 347 0 l 174 0 l 174 174 l 347 174 z "},"ó":{"ha":694,"x_min":0,"x_max":521,"o":"m 347 1042 l 347 1215 l 521 1215 l 521 1042 l 347 1042 m 174 868 l 174 1042 l 347 1042 l 347 868 l 174 868 m 174 521 l 174 694 l 347 694 l 347 521 l 174 521 m 174 174 l 0 174 l 0 521 l 174 521 l 174 174 m 521 174 l 347 174 l 347 521 l 521 521 l 521 174 m 347 174 l 347 0 l 174 0 l 174 174 l 347 174 z "},"ŏ":{"ha":694,"x_min":0,"x_max":521,"o":"m 0 1042 l 0 1215 l 174 1215 l 174 1042 l 0 1042 m 347 1042 l 347 1215 l 521 1215 l 521 1042 l 347 1042 m 174 868 l 174 1042 l 347 1042 l 347 868 l 174 868 m 174 521 l 174 694 l 347 694 l 347 521 l 174 521 m 174 174 l 0 174 l 0 521 l 174 521 l 174 174 m 521 174 l 347 174 l 347 521 l 521 521 l 521 174 m 347 174 l 347 0 l 174 0 l 174 174 l 347 174 z "},"ô":{"ha":694,"x_min":0,"x_max":521,"o":"m 174 1042 l 174 1215 l 347 1215 l 347 1042 l 174 1042 m 0 868 l 0 1042 l 174 1042 l 174 868 l 0 868 m 347 868 l 347 1042 l 521 1042 l 521 868 l 347 868 m 174 521 l 174 694 l 347 694 l 347 521 l 174 521 m 174 174 l 0 174 l 0 521 l 174 521 l 174 174 m 521 174 l 347 174 l 347 521 l 521 521 l 521 174 m 347 174 l 347 0 l 174 0 l 174 174 l 347 174 z "},"ö":{"ha":694,"x_min":0,"x_max":521,"o":"m 0 868 l 0 1042 l 174 1042 l 174 868 l 0 868 m 347 868 l 347 1042 l 521 1042 l 521 868 l 347 868 m 174 521 l 174 694 l 347 694 l 347 521 l 174 521 m 174 174 l 0 174 l 0 521 l 174 521 l 174 174 m 521 174 l 347 174 l 347 521 l 521 521 l 521 174 m 347 174 l 347 0 l 174 0 l 174 174 l 347 174 z "},"œ":{"ha":1042,"x_min":0,"x_max":868,"o":"m 174 521 l 174 694 l 347 694 l 347 521 l 521 521 l 521 694 l 694 694 l 694 521 l 868 521 l 868 347 l 521 347 l 521 174 l 347 174 l 347 521 l 174 521 m 174 174 l 0 174 l 0 521 l 174 521 l 174 174 m 347 174 l 347 0 l 174 0 l 174 174 l 347 174 m 521 0 l 521 174 l 868 174 l 868 0 l 521 0 z "},"˛":{"ha":347,"x_min":0,"x_max":174,"o":"m 0 -174 l 0 0 l 174 0 l 174 -174 l 0 -174 z "},"ò":{"ha":694,"x_min":0,"x_max":521,"o":"m 0 1042 l 0 1215 l 174 1215 l 174 1042 l 0 1042 m 174 868 l 174 1042 l 347 1042 l 347 868 l 174 868 m 174 521 l 174 694 l 347 694 l 347 521 l 174 521 m 174 174 l 0 174 l 0 521 l 174 521 l 174 174 m 521 174 l 347 174 l 347 521 l 521 521 l 521 174 m 347 174 l 347 0 l 174 0 l 174 174 l 347 174 z "},"ő":{"ha":694,"x_min":0,"x_max":694,"o":"m 174 1042 l 174 1215 l 347 1215 l 347 1042 l 174 1042 m 521 1042 l 521 1215 l 694 1215 l 694 1042 l 521 1042 m 0 868 l 0 1042 l 174 1042 l 174 868 l 0 868 m 347 868 l 347 1042 l 521 1042 l 521 868 l 347 868 m 174 521 l 174 694 l 347 694 l 347 521 l 174 521 m 174 174 l 0 174 l 0 521 l 174 521 l 174 174 m 521 174 l 347 174 l 347 521 l 521 521 l 521 174 m 347 174 l 347 0 l 174 0 l 174 174 l 347 174 z "},"ō":{"ha":694,"x_min":0,"x_max":521,"o":"m 0 868 l 0 1042 l 521 1042 l 521 868 l 0 868 m 174 521 l 174 694 l 347 694 l 347 521 l 174 521 m 174 174 l 0 174 l 0 521 l 174 521 l 174 174 m 521 174 l 347 174 l 347 521 l 521 521 l 521 174 m 347 174 l 347 0 l 174 0 l 174 174 l 347 174 z "},"½":{"ha":1736,"x_min":0,"x_max":1563,"o":"m 347 174 l 174 174 l 174 521 l 0 521 l 0 694 l 174 694 l 174 868 l 347 868 l 347 174 m 694 521 l 694 868 l 868 868 l 868 521 l 694 521 m 1042 521 l 1042 694 l 1389 694 l 1389 521 l 1042 521 m 694 174 l 521 174 l 521 521 l 694 521 l 694 174 m 1389 521 l 1563 521 l 1563 347 l 1389 347 l 1389 521 m 1389 174 l 1563 174 l 1563 0 l 1042 0 l 1042 174 l 1215 174 l 1215 347 l 1389 347 l 1389 174 z "},"¼":{"ha":1563,"x_min":0,"x_max":1389,"o":"m 347 174 l 174 174 l 174 521 l 0 521 l 0 694 l 174 694 l 174 868 l 347 868 l 347 174 m 694 521 l 694 868 l 868 868 l 868 521 l 694 521 m 1215 0 l 1215 174 l 868 174 l 868 347 l 1042 347 l 1042 521 l 1215 521 l 1215 694 l 1389 694 l 1389 0 l 1215 0 m 694 174 l 521 174 l 521 521 l 694 521 l 694 174 z "},"¹":{"ha":521,"x_min":0,"x_max":347,"o":"m 347 174 l 174 174 l 174 521 l 0 521 l 0 694 l 174 694 l 174 868 l 347 868 l 347 174 z "},"◦":{"ha":521,"x_min":0,"x_max":347,"o":"m 0 347 l 0 694 l 347 694 l 347 347 l 0 347 z "},"ª":{"ha":694,"x_min":0,"x_max":521,"o":"m 174 174 l 174 347 l 0 347 l 0 694 l 174 694 l 174 347 l 347 347 l 347 694 l 174 694 l 174 868 l 521 868 l 521 174 l 174 174 z "},"º":{"ha":694,"x_min":0,"x_max":521,"o":"m 174 694 l 174 868 l 347 868 l 347 694 l 174 694 m 174 347 l 0 347 l 0 694 l 174 694 l 174 347 m 347 347 l 347 694 l 521 694 l 521 347 l 347 347 m 174 174 l 174 347 l 347 347 l 347 174 l 174 174 z "},"ø":{"ha":694,"x_min":0,"x_max":521,"o":"m 174 174 l 0 174 l 0 521 l 174 521 l 174 694 l 347 694 l 347 521 l 521 521 l 521 174 l 347 174 l 347 347 l 174 347 l 174 174 m 347 174 l 347 0 l 174 0 l 174 174 l 347 174 z "},"ǿ":{"ha":694,"x_min":0,"x_max":521,"o":"m 347 1042 l 347 1215 l 521 1215 l 521 1042 l 347 1042 m 174 868 l 174 1042 l 347 1042 l 347 868 l 174 868 m 174 174 l 0 174 l 0 521 l 174 521 l 174 694 l 347 694 l 347 521 l 521 521 l 521 174 l 347 174 l 347 347 l 174 347 l 174 174 m 347 174 l 347 0 l 174 0 l 174 174 l 347 174 z "},"õ":{"ha":694,"x_min":0,"x_max":521,"o":"m 174 868 l 174 1042 l 521 1042 l 521 868 l 174 868 m 174 521 l 174 694 l 347 694 l 347 521 l 174 521 m 174 174 l 0 174 l 0 521 l 174 521 l 174 174 m 521 174 l 347 174 l 347 521 l 521 521 l 521 174 m 347 174 l 347 0 l 174 0 l 174 174 l 347 174 z "},"p":{"ha":694,"x_min":0,"x_max":521,"o":"m 347 174 l 347 0 l 174 0 l 174 -174 l 0 -174 l 0 694 l 347 694 l 347 521 l 174 521 l 174 174 l 347 174 m 521 174 l 347 174 l 347 521 l 521 521 l 521 174 z "},"¶":{"ha":694,"x_min":0,"x_max":521,"o":"m 521 0 l 347 0 l 347 347 l 174 347 l 174 521 l 0 521 l 0 694 l 174 694 l 174 868 l 521 868 l 521 0 z "},"(":{"ha":521,"x_min":0,"x_max":347,"o":"m 174 694 l 174 868 l 347 868 l 347 694 l 174 694 m 174 174 l 0 174 l 0 694 l 174 694 l 174 174 m 174 0 l 174 174 l 347 174 l 347 0 l 174 0 z "},")":{"ha":521,"x_min":0,"x_max":347,"o":"m 0 694 l 0 868 l 174 868 l 174 694 l 0 694 m 347 174 l 174 174 l 174 694 l 347 694 l 347 174 m 174 174 l 174 0 l 0 0 l 0 174 l 174 174 z "},"∂":{"ha":694,"x_min":0,"x_max":521,"o":"m 174 694 l 174 868 l 347 868 l 347 694 l 174 694 m 347 174 l 347 347 l 174 347 l 174 521 l 347 521 l 347 694 l 521 694 l 521 174 l 347 174 m 0 174 l 0 347 l 174 347 l 174 174 l 0 174 m 174 174 l 347 174 l 347 0 l 174 0 l 174 174 z "},"%":{"ha":868,"x_min":0,"x_max":694,"o":"m 0 694 l 0 868 l 174 868 l 174 694 l 0 694 m 521 694 l 521 868 l 694 868 l 694 694 l 521 694 m 521 521 l 347 521 l 347 694 l 521 694 l 521 521 m 347 521 l 347 347 l 174 347 l 174 521 l 347 521 m 0 174 l 0 347 l 174 347 l 174 174 l 0 174 m 521 174 l 521 347 l 694 347 l 694 174 l 521 174 z "},".":{"ha":347,"x_min":0,"x_max":174,"o":"m 0 0 l 0 174 l 174 174 l 174 0 l 0 0 z "},"·":{"ha":347,"x_min":0,"x_max":174,"o":"m 0 347 l 0 521 l 174 521 l 174 347 l 0 347 z "},"‰":{"ha":1215,"x_min":0,"x_max":1042,"o":"m 174 868 l 174 694 l 0 694 l 0 868 l 174 868 m 521 694 l 521 868 l 694 868 l 694 694 l 521 694 m 347 521 l 347 694 l 521 694 l 521 521 l 347 521 m 174 347 l 174 521 l 347 521 l 347 347 l 174 347 m 0 174 l 0 347 l 174 347 l 174 174 l 0 174 m 521 174 l 521 347 l 694 347 l 694 174 l 521 174 m 868 174 l 868 347 l 1042 347 l 1042 174 l 868 174 z "},"π":{"ha":694,"x_min":0,"x_max":521,"o":"m 174 0 l 0 0 l 0 694 l 521 694 l 521 0 l 347 0 l 347 521 l 174 521 l 174 0 z "},"+":{"ha":694,"x_min":0,"x_max":521,"o":"m 174 174 l 174 347 l 0 347 l 0 521 l 174 521 l 174 694 l 347 694 l 347 521 l 521 521 l 521 347 l 347 347 l 347 174 l 174 174 z "},"±":{"ha":694,"x_min":0,"x_max":521,"o":"m 0 521 l 0 694 l 174 694 l 174 868 l 347 868 l 347 694 l 521 694 l 521 521 l 347 521 l 347 347 l 174 347 l 174 521 l 0 521 m 0 0 l 0 174 l 521 174 l 521 0 l 0 0 z "},"∏":{"ha":868,"x_min":0,"x_max":694,"o":"m 174 0 l 0 0 l 0 868 l 694 868 l 694 0 l 521 0 l 521 694 l 174 694 l 174 0 z "},"q":{"ha":694,"x_min":0,"x_max":521,"o":"m 174 174 l 0 174 l 0 521 l 174 521 l 174 174 l 347 174 l 347 521 l 174 521 l 174 694 l 521 694 l 521 -174 l 347 -174 l 347 0 l 174 0 l 174 174 z "},"?":{"ha":694,"x_min":0,"x_max":521,"o":"m 0 694 l 0 868 l 347 868 l 347 694 l 0 694 m 521 521 l 347 521 l 347 694 l 521 694 l 521 521 m 347 521 l 347 347 l 174 347 l 174 521 l 347 521 m 174 0 l 174 174 l 347 174 l 347 0 l 174 0 z "},"¿":{"ha":694,"x_min":0,"x_max":521,"o":"m 174 694 l 174 868 l 347 868 l 347 694 l 174 694 m 174 347 l 174 521 l 347 521 l 347 347 l 174 347 m 0 174 l 0 347 l 174 347 l 174 174 l 0 174 m 174 174 l 521 174 l 521 0 l 174 0 l 174 174 z "},"\"":{"ha":694,"x_min":0,"x_max":521,"o":"m 174 521 l 0 521 l 0 868 l 174 868 l 174 521 m 521 521 l 347 521 l 347 868 l 521 868 l 521 521 z "},"„":{"ha":694,"x_min":0,"x_max":521,"o":"m 521 -174 l 347 -174 l 347 174 l 521 174 l 521 -174 m 0 174 l 174 174 l 174 -174 l 0 -174 l 0 174 z "},"“":{"ha":694,"x_min":0,"x_max":521,"o":"m 174 694 l 0 694 l 0 1042 l 174 1042 l 174 694 m 521 694 l 347 694 l 347 1042 l 521 1042 l 521 694 z "},"”":{"ha":694,"x_min":0,"x_max":521,"o":"m 174 694 l 0 694 l 0 1042 l 174 1042 l 174 694 m 521 694 l 347 694 l 347 1042 l 521 1042 l 521 694 z "},"‘":{"ha":347,"x_min":0,"x_max":174,"o":"m 174 694 l 0 694 l 0 1042 l 174 1042 l 174 694 z "},"‛":{"ha":347,"x_min":0,"x_max":174,"o":"m 174 694 l 0 694 l 0 1042 l 174 1042 l 174 694 z "},"’":{"ha":347,"x_min":0,"x_max":174,"o":"m 174 694 l 0 694 l 0 1042 l 174 1042 l 174 694 z "},"‚":{"ha":347,"x_min":0,"x_max":174,"o":"m 0 174 l 174 174 l 174 -174 l 0 -174 l 0 174 z "},"'":{"ha":347,"x_min":0,"x_max":174,"o":"m 174 521 l 0 521 l 0 868 l 174 868 l 174 521 z "},"r":{"ha":521,"x_min":0,"x_max":347,"o":"m 174 0 l 0 0 l 0 694 l 347 694 l 347 521 l 174 521 l 174 0 z "},"ŕ":{"ha":521,"x_min":0,"x_max":347,"o":"m 174 1042 l 174 1215 l 347 1215 l 347 1042 l 174 1042 m 0 868 l 0 1042 l 174 1042 l 174 868 l 0 868 m 174 0 l 0 0 l 0 694 l 347 694 l 347 521 l 174 521 l 174 0 z "},"√":{"ha":868,"x_min":0,"x_max":694,"o":"m 0 174 l 0 347 l 174 347 l 174 868 l 694 868 l 694 694 l 347 694 l 347 0 l 174 0 l 174 174 l 0 174 z "},"ř":{"ha":521,"x_min":-174,"x_max":347,"o":"m -174 1042 l -174 1215 l 0 1215 l 0 1042 l -174 1042 m 174 1042 l 174 1215 l 347 1215 l 347 1042 l 174 1042 m 0 868 l 0 1042 l 174 1042 l 174 868 l 0 868 m 174 0 l 0 0 l 0 694 l 347 694 l 347 521 l 174 521 l 174 0 z "},"ŗ":{"ha":521,"x_min":0,"x_max":347,"o":"m 0 -347 l 0 -174 l 174 -174 l 174 -347 l 0 -347 m 174 0 l 0 0 l 0 694 l 347 694 l 347 521 l 174 521 l 174 0 z "},"®":{"ha":694,"x_min":0,"x_max":521,"o":"m 174 174 l 0 174 l 0 868 l 347 868 l 347 694 l 174 694 l 174 521 l 347 521 l 347 347 l 174 347 l 174 174 m 347 521 l 347 694 l 521 694 l 521 521 l 347 521 m 347 174 l 347 347 l 521 347 l 521 174 l 347 174 z "},"˚":{"ha":694,"x_min":0,"x_max":521,"o":"m 174 694 l 174 868 l 347 868 l 347 694 l 174 694 m 0 521 l 0 694 l 174 694 l 174 521 l 0 521 m 347 521 l 347 694 l 521 694 l 521 521 l 347 521 m 174 521 l 347 521 l 347 347 l 174 347 l 174 521 z "},"s":{"ha":694,"x_min":0,"x_max":521,"o":"m 174 521 l 174 694 l 521 694 l 521 521 l 347 521 l 347 347 l 0 347 l 0 521 l 174 521 m 521 174 l 347 174 l 347 347 l 521 347 l 521 174 m 347 174 l 347 0 l 0 0 l 0 174 l 347 174 z "},"ś":{"ha":694,"x_min":0,"x_max":521,"o":"m 347 1042 l 347 1215 l 521 1215 l 521 1042 l 347 1042 m 174 868 l 174 1042 l 347 1042 l 347 868 l 174 868 m 174 521 l 174 694 l 521 694 l 521 521 l 347 521 l 347 347 l 0 347 l 0 521 l 174 521 m 521 174 l 347 174 l 347 347 l 521 347 l 521 174 m 347 174 l 347 0 l 0 0 l 0 174 l 347 174 z "},"š":{"ha":694,"x_min":0,"x_max":521,"o":"m 0 1042 l 0 1215 l 174 1215 l 174 1042 l 0 1042 m 347 1042 l 347 1215 l 521 1215 l 521 1042 l 347 1042 m 174 868 l 174 1042 l 347 1042 l 347 868 l 174 868 m 174 521 l 174 694 l 521 694 l 521 521 l 347 521 l 347 347 l 0 347 l 0 521 l 174 521 m 521 174 l 347 174 l 347 347 l 521 347 l 521 174 m 347 174 l 347 0 l 0 0 l 0 174 l 347 174 z "},"ş":{"ha":694,"x_min":0,"x_max":521,"o":"m 174 -174 l 174 0 l 347 0 l 347 -174 l 174 -174 m 174 521 l 174 694 l 521 694 l 521 521 l 347 521 l 347 347 l 0 347 l 0 521 l 174 521 m 521 174 l 347 174 l 347 347 l 521 347 l 521 174 m 347 174 l 347 0 l 0 0 l 0 174 l 347 174 z "},"ŝ":{"ha":694,"x_min":0,"x_max":521,"o":"m 174 1042 l 174 1215 l 347 1215 l 347 1042 l 174 1042 m 0 868 l 0 1042 l 174 1042 l 174 868 l 0 868 m 347 868 l 347 1042 l 521 1042 l 521 868 l 347 868 m 174 521 l 174 694 l 521 694 l 521 521 l 347 521 l 347 347 l 0 347 l 0 521 l 174 521 m 521 174 l 347 174 l 347 347 l 521 347 l 521 174 m 347 174 l 347 0 l 0 0 l 0 174 l 347 174 z "},"″":{"ha":694,"x_min":0,"x_max":521,"o":"m 174 694 l 0 694 l 0 1042 l 174 1042 l 174 694 m 521 694 l 347 694 l 347 1042 l 521 1042 l 521 694 z "},"§":{"ha":694,"x_min":0,"x_max":521,"o":"m 174 174 l 174 347 l 0 347 l 0 694 l 174 694 l 174 868 l 521 868 l 521 694 l 347 694 l 347 521 l 174 521 l 174 347 l 347 347 l 347 521 l 521 521 l 521 174 l 347 174 l 347 0 l 0 0 l 0 174 l 174 174 z "},";":{"ha":521,"x_min":0,"x_max":347,"o":"m 174 521 l 174 694 l 347 694 l 347 521 l 174 521 m 174 0 l 174 174 l 347 174 l 347 0 l 174 0 m 0 -174 l 0 0 l 174 0 l 174 -174 l 0 -174 z "},"/":{"ha":521,"x_min":0,"x_max":347,"o":"m 174 521 l 174 868 l 347 868 l 347 521 l 174 521 m 174 0 l 0 0 l 0 521 l 174 521 l 174 0 z "}," ":{"ha":347,"x_min":0,"x_max":0,"o":""},"£":{"ha":868,"x_min":0,"x_max":694,"o":"m 347 694 l 347 868 l 521 868 l 521 694 l 347 694 m 694 174 l 694 0 l 0 0 l 0 174 l 174 174 l 174 347 l 0 347 l 0 521 l 174 521 l 174 694 l 347 694 l 347 521 l 521 521 l 521 347 l 347 347 l 347 174 l 694 174 m 521 521 l 521 694 l 694 694 l 694 521 l 521 521 z "},"∑":{"ha":868,"x_min":0,"x_max":694,"o":"m 174 521 l 174 694 l 0 694 l 0 868 l 694 868 l 694 694 l 347 694 l 347 521 l 174 521 m 347 521 l 521 521 l 521 347 l 347 347 l 347 521 m 694 174 l 694 0 l 0 0 l 0 174 l 174 174 l 174 347 l 347 347 l 347 174 l 694 174 z "},"t":{"ha":521,"x_min":0,"x_max":347,"o":"m 174 174 l 0 174 l 0 868 l 174 868 l 174 694 l 347 694 l 347 521 l 174 521 l 174 174 m 174 0 l 174 174 l 347 174 l 347 0 l 174 0 z "},"ŧ":{"ha":521,"x_min":0,"x_max":347,"o":"m 174 174 l 0 174 l 0 1042 l 174 1042 l 174 868 l 347 868 l 347 694 l 174 694 l 174 521 l 347 521 l 347 347 l 174 347 l 174 174 m 174 0 l 174 174 l 347 174 l 347 0 l 174 0 z "},"ť":{"ha":868,"x_min":0,"x_max":694,"o":"m 694 521 l 521 521 l 521 868 l 694 868 l 694 521 m 174 174 l 0 174 l 0 868 l 174 868 l 174 694 l 347 694 l 347 521 l 174 521 l 174 174 m 174 0 l 174 174 l 347 174 l 347 0 l 174 0 z "},"ţ":{"ha":521,"x_min":0,"x_max":347,"o":"m 0 -174 l 0 0 l 174 0 l 174 -174 l 0 -174 m 174 174 l 0 174 l 0 868 l 174 868 l 174 694 l 347 694 l 347 521 l 174 521 l 174 174 m 174 0 l 174 174 l 347 174 l 347 0 l 174 0 z "},"þ":{"ha":694,"x_min":0,"x_max":521,"o":"m 347 174 l 347 0 l 174 0 l 174 -174 l 0 -174 l 0 868 l 174 868 l 174 694 l 347 694 l 347 521 l 174 521 l 174 174 l 347 174 m 521 174 l 347 174 l 347 521 l 521 521 l 521 174 z "},"¾":{"ha":1736,"x_min":0,"x_max":1563,"o":"m 1042 521 l 868 521 l 868 868 l 1042 868 l 1042 521 m 174 521 l 174 694 l 0 694 l 0 868 l 521 868 l 521 694 l 347 694 l 347 521 l 174 521 m 1042 174 l 1042 347 l 1215 347 l 1215 521 l 1389 521 l 1389 694 l 1563 694 l 1563 0 l 1389 0 l 1389 174 l 1042 174 m 868 174 l 694 174 l 694 521 l 868 521 l 868 174 m 347 521 l 521 521 l 521 347 l 347 347 l 347 521 m 0 174 l 0 347 l 347 347 l 347 174 l 0 174 z "},"³":{"ha":694,"x_min":0,"x_max":521,"o":"m 174 521 l 174 694 l 0 694 l 0 868 l 521 868 l 521 694 l 347 694 l 347 521 l 174 521 m 347 521 l 521 521 l 521 347 l 347 347 l 347 521 m 0 174 l 0 347 l 347 347 l 347 174 l 0 174 z "},"˜":{"ha":521,"x_min":0,"x_max":347,"o":"m 0 694 l 0 868 l 347 868 l 347 694 l 0 694 z "},"̃":{"ha":0,"x_min":0,"x_max":347,"o":"m 0 694 l 0 868 l 347 868 l 347 694 l 0 694 z "},"™":{"ha":1215,"x_min":0,"x_max":1042,"o":"m 347 347 l 174 347 l 174 694 l 0 694 l 0 868 l 1042 868 l 1042 347 l 868 347 l 868 521 l 694 521 l 694 347 l 521 347 l 521 694 l 347 694 l 347 347 z "},"▼":{"ha":1042,"x_min":0,"x_max":868,"o":"m 347 174 l 347 347 l 174 347 l 174 521 l 0 521 l 0 694 l 868 694 l 868 521 l 694 521 l 694 347 l 521 347 l 521 174 l 347 174 z "},"◄":{"ha":1042,"x_min":0,"x_max":868,"o":"m 347 174 l 347 347 l 0 347 l 0 521 l 347 521 l 347 694 l 694 694 l 694 868 l 868 868 l 868 0 l 694 0 l 694 174 l 347 174 z "},"►":{"ha":1042,"x_min":0,"x_max":868,"o":"m 174 174 l 174 0 l 0 0 l 0 868 l 174 868 l 174 694 l 521 694 l 521 521 l 868 521 l 868 347 l 521 347 l 521 174 l 174 174 z "},"▲":{"ha":1042,"x_min":0,"x_max":868,"o":"m 694 521 l 868 521 l 868 347 l 0 347 l 0 521 l 174 521 l 174 694 l 347 694 l 347 868 l 521 868 l 521 694 l 694 694 l 694 521 z "},"²":{"ha":694,"x_min":0,"x_max":521,"o":"m 0 694 l 0 868 l 347 868 l 347 694 l 0 694 m 347 521 l 347 694 l 521 694 l 521 521 l 347 521 m 0 174 l 0 347 l 174 347 l 174 521 l 347 521 l 347 347 l 521 347 l 521 174 l 0 174 z "},"u":{"ha":694,"x_min":0,"x_max":521,"o":"m 174 0 l 174 174 l 0 174 l 0 694 l 174 694 l 174 174 l 347 174 l 347 694 l 521 694 l 521 0 l 174 0 z "},"ú":{"ha":694,"x_min":0,"x_max":521,"o":"m 347 1042 l 347 1215 l 521 1215 l 521 1042 l 347 1042 m 174 868 l 174 1042 l 347 1042 l 347 868 l 174 868 m 174 0 l 174 174 l 0 174 l 0 694 l 174 694 l 174 174 l 347 174 l 347 694 l 521 694 l 521 0 l 174 0 z "},"ŭ":{"ha":694,"x_min":0,"x_max":521,"o":"m 0 1042 l 0 1215 l 174 1215 l 174 1042 l 0 1042 m 347 1042 l 347 1215 l 521 1215 l 521 1042 l 347 1042 m 174 868 l 174 1042 l 347 1042 l 347 868 l 174 868 m 174 0 l 174 174 l 0 174 l 0 694 l 174 694 l 174 174 l 347 174 l 347 694 l 521 694 l 521 0 l 174 0 z "},"û":{"ha":694,"x_min":0,"x_max":521,"o":"m 174 1042 l 174 1215 l 347 1215 l 347 1042 l 174 1042 m 0 868 l 0 1042 l 174 1042 l 174 868 l 0 868 m 347 868 l 347 1042 l 521 1042 l 521 868 l 347 868 m 174 0 l 174 174 l 0 174 l 0 694 l 174 694 l 174 174 l 347 174 l 347 694 l 521 694 l 521 0 l 174 0 z "},"ü":{"ha":694,"x_min":0,"x_max":521,"o":"m 0 868 l 0 1042 l 174 1042 l 174 868 l 0 868 m 347 868 l 347 1042 l 521 1042 l 521 868 l 347 868 m 174 0 l 174 174 l 0 174 l 0 694 l 174 694 l 174 174 l 347 174 l 347 694 l 521 694 l 521 0 l 174 0 z "},"ù":{"ha":694,"x_min":0,"x_max":521,"o":"m 0 1042 l 0 1215 l 174 1215 l 174 1042 l 0 1042 m 174 868 l 174 1042 l 347 1042 l 347 868 l 174 868 m 174 0 l 174 174 l 0 174 l 0 694 l 174 694 l 174 174 l 347 174 l 347 694 l 521 694 l 521 0 l 174 0 z "},"ű":{"ha":694,"x_min":0,"x_max":694,"o":"m 174 1042 l 174 1215 l 347 1215 l 347 1042 l 174 1042 m 521 1042 l 521 1215 l 694 1215 l 694 1042 l 521 1042 m 0 868 l 0 1042 l 174 1042 l 174 868 l 0 868 m 347 868 l 347 1042 l 521 1042 l 521 868 l 347 868 m 174 0 l 174 174 l 0 174 l 0 694 l 174 694 l 174 174 l 347 174 l 347 694 l 521 694 l 521 0 l 174 0 z "},"ū":{"ha":694,"x_min":0,"x_max":521,"o":"m 0 868 l 0 1042 l 521 1042 l 521 868 l 0 868 m 174 0 l 174 174 l 0 174 l 0 694 l 174 694 l 174 174 l 347 174 l 347 694 l 521 694 l 521 0 l 174 0 z "},"_":{"ha":694,"x_min":0,"x_max":521,"o":"m 0 0 l 0 174 l 521 174 l 521 0 l 0 0 z "}," ":{"ha":347,"x_min":0,"x_max":0,"o":""},"ƀ":{"ha":868,"x_min":0,"x_max":694,"o":"m 347 174 l 521 174 l 521 0 l 174 0 l 174 694 l 0 694 l 0 868 l 174 868 l 174 1042 l 347 1042 l 347 868 l 521 868 l 521 521 l 347 521 l 347 174 m 521 174 l 521 521 l 694 521 l 694 174 l 521 174 z "},"Ɓ":{"ha":1042,"x_min":0,"x_max":868,"o":"m 347 174 l 694 174 l 694 0 l 174 0 l 174 694 l 0 694 l 0 868 l 694 868 l 694 694 l 347 694 l 347 521 l 694 521 l 694 347 l 347 347 l 347 174 m 868 521 l 694 521 l 694 694 l 868 694 l 868 521 m 868 174 l 694 174 l 694 347 l 868 347 l 868 174 z "},"Ɔ":{"ha":868,"x_min":0,"x_max":694,"o":"m 174 694 l 174 868 l 521 868 l 521 694 l 174 694 m 521 174 l 521 694 l 694 694 l 694 174 l 521 174 m 0 521 l 0 694 l 174 694 l 174 521 l 0 521 m 0 174 l 0 347 l 174 347 l 174 174 l 0 174 m 174 174 l 521 174 l 521 0 l 174 0 l 174 174 z "},"Ƈ":{"ha":1042,"x_min":0,"x_max":868,"o":"m 174 694 l 174 868 l 521 868 l 521 694 l 174 694 m 694 694 l 694 868 l 868 868 l 868 694 l 694 694 m 174 174 l 0 174 l 0 694 l 174 694 l 174 174 m 521 521 l 521 694 l 694 694 l 694 521 l 521 521 m 694 174 l 521 174 l 521 347 l 694 347 l 694 174 m 521 174 l 521 0 l 174 0 l 174 174 l 521 174 z "},"ƈ":{"ha":868,"x_min":0,"x_max":694,"o":"m 521 694 l 521 868 l 694 868 l 694 694 l 521 694 m 174 521 l 174 694 l 521 694 l 521 521 l 174 521 m 174 174 l 0 174 l 0 521 l 174 521 l 174 174 m 174 0 l 174 174 l 521 174 l 521 0 l 174 0 z "},"Ɖ":{"ha":868,"x_min":0,"x_max":694,"o":"m 174 174 l 521 174 l 521 0 l 0 0 l 0 868 l 521 868 l 521 694 l 174 694 l 174 521 l 347 521 l 347 347 l 174 347 l 174 174 m 694 174 l 521 174 l 521 694 l 694 694 l 694 174 z "},"Ɗ":{"ha":1042,"x_min":0,"x_max":868,"o":"m 347 174 l 694 174 l 694 0 l 174 0 l 174 694 l 0 694 l 0 868 l 694 868 l 694 694 l 347 694 l 347 174 m 868 174 l 694 174 l 694 694 l 868 694 l 868 174 z "},"Ǝ":{"ha":868,"x_min":0,"x_max":694,"o":"m 0 0 l 0 174 l 521 174 l 521 347 l 174 347 l 174 521 l 521 521 l 521 694 l 0 694 l 0 868 l 694 868 l 694 0 l 0 0 z "},"Ə":{"ha":868,"x_min":0,"x_max":694,"o":"m 174 694 l 174 868 l 521 868 l 521 694 l 174 694 m 174 174 l 0 174 l 0 521 l 521 521 l 521 694 l 694 694 l 694 174 l 521 174 l 521 347 l 174 347 l 174 174 m 521 174 l 521 0 l 174 0 l 174 174 l 521 174 z "},"Ɛ":{"ha":868,"x_min":0,"x_max":694,"o":"m 174 694 l 174 868 l 521 868 l 521 694 l 174 694 m 694 521 l 521 521 l 521 694 l 694 694 l 694 521 m 0 521 l 0 694 l 174 694 l 174 521 l 0 521 m 174 521 l 347 521 l 347 347 l 174 347 l 174 521 m 0 174 l 0 347 l 174 347 l 174 174 l 0 174 m 521 174 l 521 347 l 694 347 l 694 174 l 521 174 m 174 174 l 521 174 l 521 0 l 174 0 l 174 174 z "},"Ƒ":{"ha":1042,"x_min":0,"x_max":868,"o":"m 347 0 l 174 0 l 174 868 l 868 868 l 868 694 l 347 694 l 347 521 l 694 521 l 694 347 l 347 347 l 347 0 m 174 0 l 174 -174 l 0 -174 l 0 0 l 174 0 z "},"Ɠ":{"ha":1042,"x_min":0,"x_max":868,"o":"m 868 868 l 694 868 l 694 1042 l 868 1042 l 868 868 m 694 868 l 694 694 l 174 694 l 174 868 l 694 868 m 174 0 l 174 174 l 0 174 l 0 694 l 174 694 l 174 174 l 521 174 l 521 347 l 347 347 l 347 521 l 694 521 l 694 0 l 174 0 z "},"Ɣ":{"ha":694,"x_min":0,"x_max":521,"o":"m 174 521 l 0 521 l 0 868 l 174 868 l 174 521 m 347 521 l 347 868 l 521 868 l 521 521 l 347 521 m 347 174 l 174 174 l 174 521 l 347 521 l 347 174 m 174 174 l 174 0 l 0 0 l 0 174 l 174 174 m 347 0 l 347 174 l 521 174 l 521 0 l 347 0 m 174 -174 l 174 0 l 347 0 l 347 -174 l 174 -174 z "},"Ɩ":{"ha":347,"x_min":0,"x_max":174,"o":"m 174 0 l 0 0 l 0 868 l 174 868 l 174 0 z "},"Ɨ":{"ha":694,"x_min":0,"x_max":521,"o":"m 347 0 l 174 0 l 174 347 l 0 347 l 0 521 l 174 521 l 174 868 l 347 868 l 347 521 l 521 521 l 521 347 l 347 347 l 347 0 z "},"Ƙ":{"ha":868,"x_min":0,"x_max":694,"o":"m 174 868 l 174 1042 l 347 1042 l 347 868 l 174 868 m 174 0 l 0 0 l 0 868 l 174 868 l 174 521 l 347 521 l 347 347 l 174 347 l 174 0 m 521 694 l 521 868 l 694 868 l 694 694 l 521 694 m 347 521 l 347 694 l 521 694 l 521 521 l 347 521 m 521 174 l 347 174 l 347 347 l 521 347 l 521 174 m 521 0 l 521 174 l 694 174 l 694 0 l 521 0 z "},"ƙ":{"ha":694,"x_min":0,"x_max":521,"o":"m 174 868 l 174 1042 l 347 1042 l 347 868 l 174 868 m 174 0 l 0 0 l 0 868 l 174 868 l 174 521 l 347 521 l 347 347 l 174 347 l 174 0 m 347 521 l 347 694 l 521 694 l 521 521 l 347 521 m 521 0 l 347 0 l 347 347 l 521 347 l 521 0 z "},"ƚ":{"ha":694,"x_min":0,"x_max":521,"o":"m 347 0 l 174 0 l 174 347 l 0 347 l 0 521 l 174 521 l 174 868 l 347 868 l 347 521 l 521 521 l 521 347 l 347 347 l 347 0 z "},"ƛ":{"ha":868,"x_min":0,"x_max":694,"o":"m 0 521 l 0 694 l 174 694 l 174 868 l 347 868 l 347 694 l 521 694 l 521 347 l 347 347 l 347 521 l 0 521 m 347 0 l 174 0 l 174 347 l 347 347 l 347 0 m 694 0 l 521 0 l 521 347 l 694 347 l 694 0 z "},"Ɯ":{"ha":1042,"x_min":0,"x_max":868,"o":"m 174 0 l 174 174 l 0 174 l 0 868 l 174 868 l 174 174 l 347 174 l 347 868 l 521 868 l 521 174 l 694 174 l 694 868 l 868 868 l 868 0 l 174 0 z "},"Ɲ":{"ha":1042,"x_min":0,"x_max":868,"o":"m 174 0 l 174 868 l 347 868 l 347 694 l 521 694 l 521 521 l 347 521 l 347 0 l 174 0 m 868 0 l 694 0 l 694 347 l 521 347 l 521 521 l 694 521 l 694 868 l 868 868 l 868 0 m 0 0 l 174 0 l 174 -174 l 0 -174 l 0 0 z "},"ƞ":{"ha":694,"x_min":0,"x_max":521,"o":"m 174 0 l 0 0 l 0 694 l 347 694 l 347 521 l 174 521 l 174 0 m 521 -174 l 347 -174 l 347 521 l 521 521 l 521 -174 z "},"Ɵ":{"ha":868,"x_min":0,"x_max":694,"o":"m 174 694 l 174 868 l 521 868 l 521 694 l 174 694 m 174 174 l 0 174 l 0 694 l 174 694 l 174 521 l 521 521 l 521 694 l 694 694 l 694 174 l 521 174 l 521 347 l 174 347 l 174 174 m 521 174 l 521 0 l 174 0 l 174 174 l 521 174 z "},"Ƥ":{"ha":1042,"x_min":0,"x_max":868,"o":"m 0 868 l 0 1042 l 174 1042 l 174 868 l 0 868 m 347 0 l 174 0 l 174 868 l 694 868 l 694 694 l 347 694 l 347 521 l 694 521 l 694 347 l 347 347 l 347 0 m 868 521 l 694 521 l 694 694 l 868 694 l 868 521 z "},"ƥ":{"ha":694,"x_min":0,"x_max":521,"o":"m 347 174 l 347 0 l 174 0 l 174 -174 l 0 -174 l 0 694 l 174 694 l 174 868 l 347 868 l 347 521 l 174 521 l 174 174 l 347 174 m 521 174 l 347 174 l 347 521 l 521 521 l 521 174 z "},"Ʃ":{"ha":868,"x_min":0,"x_max":694,"o":"m 174 521 l 174 694 l 0 694 l 0 868 l 694 868 l 694 694 l 347 694 l 347 521 l 174 521 m 347 521 l 521 521 l 521 347 l 347 347 l 347 521 m 694 174 l 694 0 l 0 0 l 0 174 l 174 174 l 174 347 l 347 347 l 347 174 l 694 174 z "},"Ƭ":{"ha":868,"x_min":0,"x_max":694,"o":"m 521 0 l 347 0 l 347 694 l 174 694 l 174 868 l 694 868 l 694 694 l 521 694 l 521 0 m 0 521 l 0 694 l 174 694 l 174 521 l 0 521 z "},"ƭ":{"ha":521,"x_min":0,"x_max":347,"o":"m 174 868 l 174 1042 l 347 1042 l 347 868 l 174 868 m 174 174 l 0 174 l 0 868 l 174 868 l 174 694 l 347 694 l 347 521 l 174 521 l 174 174 m 174 0 l 174 174 l 347 174 l 347 0 l 174 0 z "},"Ʈ":{"ha":694,"x_min":0,"x_max":521,"o":"m 347 0 l 174 0 l 174 694 l 0 694 l 0 868 l 521 868 l 521 694 l 347 694 l 347 0 m 347 -174 l 347 0 l 521 0 l 521 -174 l 347 -174 z "},"Ʊ":{"ha":1042,"x_min":0,"x_max":868,"o":"m 174 521 l 174 694 l 0 694 l 0 868 l 347 868 l 347 521 l 174 521 m 694 521 l 521 521 l 521 868 l 868 868 l 868 694 l 694 694 l 694 521 m 868 174 l 694 174 l 694 521 l 868 521 l 868 174 m 174 174 l 0 174 l 0 521 l 174 521 l 174 174 m 694 174 l 694 0 l 174 0 l 174 174 l 694 174 z "},"Ʋ":{"ha":868,"x_min":0,"x_max":694,"o":"m 174 174 l 0 174 l 0 868 l 174 868 l 174 174 m 347 694 l 347 868 l 521 868 l 521 694 l 347 694 m 694 174 l 521 174 l 521 694 l 694 694 l 694 174 m 521 174 l 521 0 l 174 0 l 174 174 l 521 174 z "},"Ƴ":{"ha":868,"x_min":0,"x_max":694,"o":"m 174 521 l 0 521 l 0 868 l 174 868 l 174 521 m 347 521 l 347 868 l 694 868 l 694 694 l 521 694 l 521 521 l 347 521 m 347 0 l 174 0 l 174 521 l 347 521 l 347 0 z "},"ƴ":{"ha":868,"x_min":0,"x_max":694,"o":"m 521 694 l 521 868 l 694 868 l 694 694 l 521 694 m 174 174 l 0 174 l 0 694 l 174 694 l 174 174 m 521 174 l 347 174 l 347 694 l 521 694 l 521 174 m 347 174 l 347 0 l 174 0 l 174 174 l 347 174 m 0 -174 l 0 0 l 174 0 l 174 -174 l 0 -174 z "},"Ƶ":{"ha":1042,"x_min":0,"x_max":868,"o":"m 694 521 l 521 521 l 521 694 l 174 694 l 174 868 l 694 868 l 694 521 m 521 521 l 521 347 l 347 347 l 347 521 l 521 521 m 0 347 l 0 521 l 174 521 l 174 347 l 0 347 m 868 521 l 868 347 l 694 347 l 694 521 l 868 521 m 694 174 l 694 0 l 174 0 l 174 347 l 347 347 l 347 174 l 694 174 z "},"ƶ":{"ha":1042,"x_min":0,"x_max":868,"o":"m 694 521 l 521 521 l 521 347 l 347 347 l 347 521 l 174 521 l 174 694 l 694 694 l 694 521 m 174 521 l 174 347 l 0 347 l 0 521 l 174 521 m 868 521 l 868 347 l 694 347 l 694 521 l 868 521 m 694 174 l 694 0 l 174 0 l 174 347 l 347 347 l 347 174 l 694 174 z "},"Ʒ":{"ha":694,"x_min":0,"x_max":521,"o":"m 521 521 l 347 521 l 347 694 l 0 694 l 0 868 l 521 868 l 521 521 m 347 521 l 347 347 l 174 347 l 174 521 l 347 521 m 521 0 l 347 0 l 347 347 l 521 347 l 521 0 m 347 0 l 347 -174 l 0 -174 l 0 0 l 347 0 z "},"Ƹ":{"ha":694,"x_min":0,"x_max":521,"o":"m 174 521 l 0 521 l 0 868 l 521 868 l 521 694 l 174 694 l 174 521 m 174 347 l 174 521 l 347 521 l 347 347 l 174 347 m 174 0 l 0 0 l 0 347 l 174 347 l 174 0 m 174 -174 l 174 0 l 521 0 l 521 -174 l 174 -174 z "},"ƹ":{"ha":694,"x_min":0,"x_max":521,"o":"m 174 521 l 174 347 l 0 347 l 0 694 l 521 694 l 521 521 l 174 521 m 347 174 l 174 174 l 174 347 l 347 347 l 347 174 m 174 174 l 174 0 l 0 0 l 0 174 l 174 174 m 174 0 l 521 0 l 521 -174 l 174 -174 l 174 0 z "},"ǀ":{"ha":347,"x_min":0,"x_max":174,"o":"m 174 0 l 0 0 l 0 868 l 174 868 l 174 0 z "},"ǁ":{"ha":694,"x_min":0,"x_max":521,"o":"m 174 0 l 0 0 l 0 868 l 174 868 l 174 0 m 521 0 l 347 0 l 347 868 l 521 868 l 521 0 z "},"ǂ":{"ha":694,"x_min":0,"x_max":521,"o":"m 0 174 l 0 347 l 174 347 l 174 521 l 0 521 l 0 694 l 174 694 l 174 868 l 347 868 l 347 694 l 521 694 l 521 521 l 347 521 l 347 347 l 521 347 l 521 174 l 347 174 l 347 0 l 174 0 l 174 174 l 0 174 z "},"ǃ":{"ha":347,"x_min":0,"x_max":174,"o":"m 174 347 l 0 347 l 0 868 l 174 868 l 174 347 m 0 0 l 0 174 l 174 174 l 174 0 l 0 0 z "},"Ǎ":{"ha":868,"x_min":0,"x_max":694,"o":"m 0 1389 l 174 1389 l 174 1215 l 0 1215 l 0 1389 m 521 1389 l 694 1389 l 694 1215 l 521 1215 l 521 1389 m 174 1215 l 521 1215 l 521 1042 l 174 1042 l 174 1215 m 174 694 l 174 868 l 521 868 l 521 694 l 174 694 m 174 0 l 0 0 l 0 694 l 174 694 l 174 521 l 521 521 l 521 694 l 694 694 l 694 0 l 521 0 l 521 347 l 174 347 l 174 0 z "},"ǎ":{"ha":694,"x_min":0,"x_max":521,"o":"m 0 1042 l 0 1215 l 174 1215 l 174 1042 l 0 1042 m 347 1042 l 347 1215 l 521 1215 l 521 1042 l 347 1042 m 174 868 l 174 1042 l 347 1042 l 347 868 l 174 868 m 174 0 l 174 174 l 0 174 l 0 521 l 174 521 l 174 174 l 347 174 l 347 521 l 174 521 l 174 694 l 521 694 l 521 0 l 174 0 z "},"Ǐ":{"ha":347,"x_min":-174,"x_max":347,"o":"m -174 1215 l -174 1389 l 0 1389 l 0 1215 l -174 1215 m 174 1215 l 174 1389 l 347 1389 l 347 1215 l 174 1215 m 0 1042 l 0 1215 l 174 1215 l 174 1042 l 0 1042 m 174 0 l 0 0 l 0 868 l 174 868 l 174 0 z "},"ǐ":{"ha":347,"x_min":-174,"x_max":347,"o":"m -174 1042 l -174 1215 l 0 1215 l 0 1042 l -174 1042 m 174 1042 l 174 1215 l 347 1215 l 347 1042 l 174 1042 m 0 868 l 0 1042 l 174 1042 l 174 868 l 0 868 m 174 0 l 0 0 l 0 694 l 174 694 l 174 0 z "},"Ǒ":{"ha":868,"x_min":0,"x_max":694,"o":"m 0 1389 l 174 1389 l 174 1215 l 0 1215 l 0 1389 m 521 1389 l 694 1389 l 694 1215 l 521 1215 l 521 1389 m 174 1215 l 521 1215 l 521 1042 l 174 1042 l 174 1215 m 174 694 l 174 868 l 521 868 l 521 694 l 174 694 m 174 174 l 0 174 l 0 694 l 174 694 l 174 174 m 694 174 l 521 174 l 521 694 l 694 694 l 694 174 m 521 174 l 521 0 l 174 0 l 174 174 l 521 174 z "},"ǒ":{"ha":694,"x_min":0,"x_max":521,"o":"m 0 1042 l 0 1215 l 174 1215 l 174 1042 l 0 1042 m 347 1042 l 347 1215 l 521 1215 l 521 1042 l 347 1042 m 174 868 l 174 1042 l 347 1042 l 347 868 l 174 868 m 174 521 l 174 694 l 347 694 l 347 521 l 174 521 m 174 174 l 0 174 l 0 521 l 174 521 l 174 174 m 521 174 l 347 174 l 347 521 l 521 521 l 521 174 m 347 174 l 347 0 l 174 0 l 174 174 l 347 174 z "},"Ǔ":{"ha":868,"x_min":0,"x_max":694,"o":"m 0 1389 l 174 1389 l 174 1215 l 0 1215 l 0 1389 m 521 1389 l 694 1389 l 694 1215 l 521 1215 l 521 1389 m 174 1215 l 521 1215 l 521 1042 l 174 1042 l 174 1215 m 174 174 l 0 174 l 0 868 l 174 868 l 174 174 m 694 174 l 521 174 l 521 868 l 694 868 l 694 174 m 521 174 l 521 0 l 174 0 l 174 174 l 521 174 z "},"ǔ":{"ha":694,"x_min":0,"x_max":521,"o":"m 0 1042 l 0 1215 l 174 1215 l 174 1042 l 0 1042 m 347 1042 l 347 1215 l 521 1215 l 521 1042 l 347 1042 m 174 868 l 174 1042 l 347 1042 l 347 868 l 174 868 m 174 0 l 174 174 l 0 174 l 0 694 l 174 694 l 174 174 l 347 174 l 347 694 l 521 694 l 521 0 l 174 0 z "},"Ǖ":{"ha":868,"x_min":0,"x_max":694,"o":"m 0 1389 l 0 1563 l 694 1563 l 694 1389 l 0 1389 m 0 1042 l 0 1215 l 174 1215 l 174 1042 l 0 1042 m 521 1042 l 521 1215 l 694 1215 l 694 1042 l 521 1042 m 174 174 l 0 174 l 0 868 l 174 868 l 174 174 m 694 174 l 521 174 l 521 868 l 694 868 l 694 174 m 521 174 l 521 0 l 174 0 l 174 174 l 521 174 z "},"ǖ":{"ha":694,"x_min":0,"x_max":521,"o":"m 0 1215 l 0 1389 l 521 1389 l 521 1215 l 0 1215 m 0 868 l 0 1042 l 174 1042 l 174 868 l 0 868 m 347 868 l 347 1042 l 521 1042 l 521 868 l 347 868 m 174 0 l 174 174 l 0 174 l 0 694 l 174 694 l 174 174 l 347 174 l 347 694 l 521 694 l 521 0 l 174 0 z "},"Ǘ":{"ha":868,"x_min":0,"x_max":694,"o":"m 347 1563 l 347 1736 l 521 1736 l 521 1563 l 347 1563 m 174 1389 l 174 1563 l 347 1563 l 347 1389 l 174 1389 m 0 1042 l 0 1215 l 174 1215 l 174 1042 l 0 1042 m 521 1042 l 521 1215 l 694 1215 l 694 1042 l 521 1042 m 174 174 l 0 174 l 0 868 l 174 868 l 174 174 m 694 174 l 521 174 l 521 868 l 694 868 l 694 174 m 521 174 l 521 0 l 174 0 l 174 174 l 521 174 z "},"ǘ":{"ha":694,"x_min":0,"x_max":521,"o":"m 347 1389 l 347 1563 l 521 1563 l 521 1389 l 347 1389 m 174 1215 l 174 1389 l 347 1389 l 347 1215 l 174 1215 m 0 868 l 0 1042 l 174 1042 l 174 868 l 0 868 m 347 868 l 347 1042 l 521 1042 l 521 868 l 347 868 m 174 0 l 174 174 l 0 174 l 0 694 l 174 694 l 174 174 l 347 174 l 347 694 l 521 694 l 521 0 l 174 0 z "},"Ǚ":{"ha":868,"x_min":0,"x_max":694,"o":"m 0 1750 l 174 1750 l 174 1576 l 0 1576 l 0 1750 m 521 1750 l 694 1750 l 694 1576 l 521 1576 l 521 1750 m 174 1576 l 521 1576 l 521 1402 l 174 1402 l 174 1576 m 0 1042 l 0 1215 l 174 1215 l 174 1042 l 0 1042 m 521 1042 l 521 1215 l 694 1215 l 694 1042 l 521 1042 m 174 174 l 0 174 l 0 868 l 174 868 l 174 174 m 694 174 l 521 174 l 521 868 l 694 868 l 694 174 m 521 174 l 521 0 l 174 0 l 174 174 l 521 174 z "},"ǚ":{"ha":694,"x_min":0,"x_max":521,"o":"m 0 1389 l 0 1563 l 174 1563 l 174 1389 l 0 1389 m 347 1389 l 347 1563 l 521 1563 l 521 1389 l 347 1389 m 174 1215 l 174 1389 l 347 1389 l 347 1215 l 174 1215 m 0 868 l 0 1042 l 174 1042 l 174 868 l 0 868 m 347 868 l 347 1042 l 521 1042 l 521 868 l 347 868 m 174 0 l 174 174 l 0 174 l 0 694 l 174 694 l 174 174 l 347 174 l 347 694 l 521 694 l 521 0 l 174 0 z "},"Ǜ":{"ha":868,"x_min":0,"x_max":694,"o":"m 174 1563 l 174 1736 l 347 1736 l 347 1563 l 174 1563 m 347 1389 l 347 1563 l 521 1563 l 521 1389 l 347 1389 m 0 1042 l 0 1215 l 174 1215 l 174 1042 l 0 1042 m 521 1042 l 521 1215 l 694 1215 l 694 1042 l 521 1042 m 174 174 l 0 174 l 0 868 l 174 868 l 174 174 m 694 174 l 521 174 l 521 868 l 694 868 l 694 174 m 521 174 l 521 0 l 174 0 l 174 174 l 521 174 z "},"ǜ":{"ha":694,"x_min":0,"x_max":521,"o":"m 0 1389 l 0 1563 l 174 1563 l 174 1389 l 0 1389 m 174 1215 l 174 1389 l 347 1389 l 347 1215 l 174 1215 m 0 868 l 0 1042 l 174 1042 l 174 868 l 0 868 m 347 868 l 347 1042 l 521 1042 l 521 868 l 347 868 m 174 0 l 174 174 l 0 174 l 0 694 l 174 694 l 174 174 l 347 174 l 347 694 l 521 694 l 521 0 l 174 0 z "},"ǝ":{"ha":694,"x_min":0,"x_max":521,"o":"m 521 174 l 347 174 l 347 347 l 0 347 l 0 521 l 174 521 l 174 694 l 347 694 l 347 521 l 521 521 l 521 174 m 347 174 l 347 0 l 0 0 l 0 174 l 347 174 z "},"Ǟ":{"ha":868,"x_min":0,"x_max":694,"o":"m 0 1389 l 0 1563 l 694 1563 l 694 1389 l 0 1389 m 0 1042 l 0 1215 l 174 1215 l 174 1042 l 0 1042 m 521 1042 l 521 1215 l 694 1215 l 694 1042 l 521 1042 m 174 694 l 174 868 l 521 868 l 521 694 l 174 694 m 174 0 l 0 0 l 0 694 l 174 694 l 174 521 l 521 521 l 521 694 l 694 694 l 694 0 l 521 0 l 521 347 l 174 347 l 174 0 z "},"ǟ":{"ha":694,"x_min":0,"x_max":521,"o":"m 0 1215 l 0 1389 l 521 1389 l 521 1215 l 0 1215 m 0 868 l 0 1042 l 174 1042 l 174 868 l 0 868 m 347 868 l 347 1042 l 521 1042 l 521 868 l 347 868 m 174 0 l 174 174 l 0 174 l 0 521 l 174 521 l 174 174 l 347 174 l 347 521 l 174 521 l 174 694 l 521 694 l 521 0 l 174 0 z "},"Ǡ":{"ha":868,"x_min":0,"x_max":694,"o":"m 174 1389 l 174 1563 l 694 1563 l 694 1389 l 174 1389 m 347 1042 l 347 1215 l 521 1215 l 521 1042 l 347 1042 m 174 694 l 174 868 l 521 868 l 521 694 l 174 694 m 174 0 l 0 0 l 0 694 l 174 694 l 174 521 l 521 521 l 521 694 l 694 694 l 694 0 l 521 0 l 521 347 l 174 347 l 174 0 z "},"ǡ":{"ha":694,"x_min":0,"x_max":521,"o":"m 0 1215 l 0 1389 l 521 1389 l 521 1215 l 0 1215 m 174 868 l 174 1042 l 347 1042 l 347 868 l 174 868 m 174 0 l 174 174 l 0 174 l 0 521 l 174 521 l 174 174 l 347 174 l 347 521 l 174 521 l 174 694 l 521 694 l 521 0 l 174 0 z "},"Ǣ":{"ha":1042,"x_min":0,"x_max":868,"o":"m 174 1042 l 174 1215 l 694 1215 l 694 1042 l 174 1042 m 868 174 l 868 0 l 347 0 l 347 347 l 174 347 l 174 0 l 0 0 l 0 694 l 174 694 l 174 521 l 347 521 l 347 694 l 174 694 l 174 868 l 868 868 l 868 694 l 521 694 l 521 521 l 868 521 l 868 347 l 521 347 l 521 174 l 868 174 z "},"ǣ":{"ha":1042,"x_min":0,"x_max":868,"o":"m 174 868 l 174 1042 l 694 1042 l 694 868 l 174 868 m 174 174 l 0 174 l 0 521 l 174 521 l 174 174 l 347 174 l 347 521 l 174 521 l 174 694 l 694 694 l 694 521 l 868 521 l 868 347 l 521 347 l 521 174 l 868 174 l 868 0 l 174 0 l 174 174 z "},"Ǥ":{"ha":1042,"x_min":0,"x_max":868,"o":"m 174 694 l 174 868 l 694 868 l 694 694 l 174 694 m 174 174 l 0 174 l 0 694 l 174 694 l 174 174 l 521 174 l 521 347 l 347 347 l 347 521 l 694 521 l 694 347 l 868 347 l 868 174 l 694 174 l 694 0 l 174 0 l 174 174 z "},"ǥ":{"ha":868,"x_min":0,"x_max":694,"o":"m 174 174 l 0 174 l 0 521 l 174 521 l 174 174 l 347 174 l 347 521 l 174 521 l 174 694 l 521 694 l 521 174 l 694 174 l 694 0 l 347 0 l 347 -174 l 0 -174 l 0 0 l 174 0 l 174 174 z "},"Ǧ":{"ha":868,"x_min":0,"x_max":694,"o":"m 0 1389 l 174 1389 l 174 1215 l 0 1215 l 0 1389 m 521 1389 l 694 1389 l 694 1215 l 521 1215 l 521 1389 m 174 1215 l 521 1215 l 521 1042 l 174 1042 l 174 1215 m 174 694 l 174 868 l 694 868 l 694 694 l 174 694 m 174 0 l 174 174 l 0 174 l 0 694 l 174 694 l 174 174 l 521 174 l 521 347 l 347 347 l 347 521 l 694 521 l 694 0 l 174 0 z "},"ǧ":{"ha":694,"x_min":0,"x_max":521,"o":"m 0 1042 l 0 1215 l 174 1215 l 174 1042 l 0 1042 m 347 1042 l 347 1215 l 521 1215 l 521 1042 l 347 1042 m 174 868 l 174 1042 l 347 1042 l 347 868 l 174 868 m 0 0 l 174 0 l 174 174 l 0 174 l 0 521 l 174 521 l 174 174 l 347 174 l 347 521 l 174 521 l 174 694 l 521 694 l 521 0 l 347 0 l 347 -174 l 0 -174 l 0 0 z "},"Ǩ":{"ha":868,"x_min":0,"x_max":694,"o":"m 0 1389 l 174 1389 l 174 1215 l 0 1215 l 0 1389 m 521 1389 l 694 1389 l 694 1215 l 521 1215 l 521 1389 m 174 1215 l 521 1215 l 521 1042 l 174 1042 l 174 1215 m 174 0 l 0 0 l 0 868 l 174 868 l 174 521 l 347 521 l 347 347 l 174 347 l 174 0 m 521 694 l 521 868 l 694 868 l 694 694 l 521 694 m 347 521 l 347 694 l 521 694 l 521 521 l 347 521 m 521 174 l 347 174 l 347 347 l 521 347 l 521 174 m 521 0 l 521 174 l 694 174 l 694 0 l 521 0 z "},"ǩ":{"ha":694,"x_min":0,"x_max":521,"o":"m 0 1215 l 0 1389 l 174 1389 l 174 1215 l 0 1215 m 347 1215 l 347 1389 l 521 1389 l 521 1215 l 347 1215 m 174 1042 l 174 1215 l 347 1215 l 347 1042 l 174 1042 m 174 0 l 0 0 l 0 868 l 174 868 l 174 521 l 347 521 l 347 347 l 174 347 l 174 0 m 347 521 l 347 694 l 521 694 l 521 521 l 347 521 m 521 0 l 347 0 l 347 347 l 521 347 l 521 0 z "},"Ǫ":{"ha":868,"x_min":0,"x_max":694,"o":"m 347 -174 l 347 0 l 521 0 l 521 -174 l 347 -174 m 174 694 l 174 868 l 521 868 l 521 694 l 174 694 m 174 174 l 0 174 l 0 694 l 174 694 l 174 174 m 694 174 l 521 174 l 521 694 l 694 694 l 694 174 m 521 174 l 521 0 l 174 0 l 174 174 l 521 174 z "},"ǫ":{"ha":694,"x_min":0,"x_max":521,"o":"m 0 -174 l 0 0 l 174 0 l 174 -174 l 0 -174 m 174 521 l 174 694 l 347 694 l 347 521 l 174 521 m 174 174 l 0 174 l 0 521 l 174 521 l 174 174 m 521 174 l 347 174 l 347 521 l 521 521 l 521 174 m 347 174 l 347 0 l 174 0 l 174 174 l 347 174 z "},"Ǭ":{"ha":868,"x_min":0,"x_max":694,"o":"m 0 1042 l 0 1215 l 694 1215 l 694 1042 l 0 1042 m 174 694 l 174 868 l 521 868 l 521 694 l 174 694 m 174 174 l 0 174 l 0 694 l 174 694 l 174 174 m 694 174 l 521 174 l 521 694 l 694 694 l 694 174 m 347 -174 l 347 0 l 174 0 l 174 174 l 521 174 l 521 -174 l 347 -174 z "},"ǭ":{"ha":694,"x_min":0,"x_max":521,"o":"m 0 868 l 0 1042 l 521 1042 l 521 868 l 0 868 m 0 -174 l 0 0 l 174 0 l 174 -174 l 0 -174 m 174 521 l 174 694 l 347 694 l 347 521 l 174 521 m 174 174 l 0 174 l 0 521 l 174 521 l 174 174 m 521 174 l 347 174 l 347 521 l 521 521 l 521 174 m 347 174 l 347 0 l 174 0 l 174 174 l 347 174 z "},"Ǯ":{"ha":694,"x_min":0,"x_max":521,"o":"m 0 1215 l 0 1389 l 174 1389 l 174 1215 l 0 1215 m 347 1215 l 347 1389 l 521 1389 l 521 1215 l 347 1215 m 174 1042 l 174 1215 l 347 1215 l 347 1042 l 174 1042 m 521 521 l 347 521 l 347 694 l 0 694 l 0 868 l 521 868 l 521 521 m 347 521 l 347 347 l 174 347 l 174 521 l 347 521 m 521 0 l 347 0 l 347 347 l 521 347 l 521 0 m 347 0 l 347 -174 l 0 -174 l 0 0 l 347 0 z "},"ǯ":{"ha":694,"x_min":0,"x_max":521,"o":"m 0 1042 l 0 1215 l 174 1215 l 174 1042 l 0 1042 m 347 1042 l 347 1215 l 521 1215 l 521 1042 l 347 1042 m 174 868 l 174 1042 l 347 1042 l 347 868 l 174 868 m 0 521 l 0 694 l 521 694 l 521 347 l 347 347 l 347 521 l 0 521 m 174 174 l 174 347 l 347 347 l 347 174 l 174 174 m 347 174 l 521 174 l 521 0 l 347 0 l 347 174 m 0 -174 l 0 0 l 347 0 l 347 -174 l 0 -174 z "},"Ǵ":{"ha":868,"x_min":0,"x_max":694,"o":"m 347 1215 l 347 1389 l 521 1389 l 521 1215 l 347 1215 m 174 1042 l 174 1215 l 347 1215 l 347 1042 l 174 1042 m 174 694 l 174 868 l 694 868 l 694 694 l 174 694 m 174 0 l 174 174 l 0 174 l 0 694 l 174 694 l 174 174 l 521 174 l 521 347 l 347 347 l 347 521 l 694 521 l 694 0 l 174 0 z "},"ǵ":{"ha":694,"x_min":0,"x_max":521,"o":"m 347 1042 l 347 1215 l 521 1215 l 521 1042 l 347 1042 m 174 868 l 174 1042 l 347 1042 l 347 868 l 174 868 m 0 0 l 174 0 l 174 174 l 0 174 l 0 521 l 174 521 l 174 174 l 347 174 l 347 521 l 174 521 l 174 694 l 521 694 l 521 0 l 347 0 l 347 -174 l 0 -174 l 0 0 z "},"Ǹ":{"ha":868,"x_min":0,"x_max":694,"o":"m 174 1215 l 174 1389 l 347 1389 l 347 1215 l 174 1215 m 347 1042 l 347 1215 l 521 1215 l 521 1042 l 347 1042 m 174 0 l 0 0 l 0 868 l 174 868 l 174 694 l 347 694 l 347 521 l 174 521 l 174 0 m 694 0 l 521 0 l 521 347 l 347 347 l 347 521 l 521 521 l 521 868 l 694 868 l 694 0 z "},"ǹ":{"ha":694,"x_min":0,"x_max":521,"o":"m 0 1042 l 0 1215 l 174 1215 l 174 1042 l 0 1042 m 174 868 l 174 1042 l 347 1042 l 347 868 l 174 868 m 174 0 l 0 0 l 0 694 l 347 694 l 347 521 l 174 521 l 174 0 m 521 0 l 347 0 l 347 521 l 521 521 l 521 0 z "},"Ȁ":{"ha":868,"x_min":0,"x_max":694,"o":"m 174 1389 l 174 1215 l 0 1215 l 0 1389 l 174 1389 m 347 1215 l 347 1389 l 521 1389 l 521 1215 l 347 1215 m 174 1042 l 174 1215 l 347 1215 l 347 1042 l 174 1042 m 521 1042 l 521 1215 l 694 1215 l 694 1042 l 521 1042 m 174 694 l 174 868 l 521 868 l 521 694 l 174 694 m 174 0 l 0 0 l 0 694 l 174 694 l 174 521 l 521 521 l 521 694 l 694 694 l 694 0 l 521 0 l 521 347 l 174 347 l 174 0 z "},"ȁ":{"ha":694,"x_min":-174,"x_max":521,"o":"m 0 1215 l 0 1042 l -174 1042 l -174 1215 l 0 1215 m 174 1042 l 174 1215 l 347 1215 l 347 1042 l 174 1042 m 0 868 l 0 1042 l 174 1042 l 174 868 l 0 868 m 347 868 l 347 1042 l 521 1042 l 521 868 l 347 868 m 174 0 l 174 174 l 0 174 l 0 521 l 174 521 l 174 174 l 347 174 l 347 521 l 174 521 l 174 694 l 521 694 l 521 0 l 174 0 z "},"Ȃ":{"ha":868,"x_min":0,"x_max":694,"o":"m 174 1215 l 174 1389 l 521 1389 l 521 1215 l 174 1215 m 0 1042 l 0 1215 l 174 1215 l 174 1042 l 0 1042 m 521 1042 l 521 1215 l 694 1215 l 694 1042 l 521 1042 m 174 694 l 174 868 l 521 868 l 521 694 l 174 694 m 174 0 l 0 0 l 0 694 l 174 694 l 174 521 l 521 521 l 521 694 l 694 694 l 694 0 l 521 0 l 521 347 l 174 347 l 174 0 z "},"ȃ":{"ha":694,"x_min":0,"x_max":521,"o":"m 174 1042 l 174 1215 l 347 1215 l 347 1042 l 174 1042 m 0 868 l 0 1042 l 174 1042 l 174 868 l 0 868 m 347 868 l 347 1042 l 521 1042 l 521 868 l 347 868 m 174 0 l 174 174 l 0 174 l 0 521 l 174 521 l 174 174 l 347 174 l 347 521 l 174 521 l 174 694 l 521 694 l 521 0 l 174 0 z "},"Ȅ":{"ha":868,"x_min":0,"x_max":694,"o":"m 174 1389 l 174 1215 l 0 1215 l 0 1389 l 174 1389 m 347 1215 l 347 1389 l 521 1389 l 521 1215 l 347 1215 m 174 1042 l 174 1215 l 347 1215 l 347 1042 l 174 1042 m 521 1042 l 521 1215 l 694 1215 l 694 1042 l 521 1042 m 694 174 l 694 0 l 0 0 l 0 868 l 694 868 l 694 694 l 174 694 l 174 521 l 521 521 l 521 347 l 174 347 l 174 174 l 694 174 z "},"ȅ":{"ha":694,"x_min":-174,"x_max":521,"o":"m 0 1215 l 0 1042 l -174 1042 l -174 1215 l 0 1215 m 174 1042 l 174 1215 l 347 1215 l 347 1042 l 174 1042 m 0 868 l 0 1042 l 174 1042 l 174 868 l 0 868 m 347 868 l 347 1042 l 521 1042 l 521 868 l 347 868 m 174 174 l 0 174 l 0 521 l 174 521 l 174 694 l 347 694 l 347 521 l 521 521 l 521 347 l 174 347 l 174 174 m 174 0 l 174 174 l 521 174 l 521 0 l 174 0 z "},"Ȇ":{"ha":868,"x_min":0,"x_max":694,"o":"m 174 1215 l 174 1389 l 521 1389 l 521 1215 l 174 1215 m 0 1042 l 0 1215 l 174 1215 l 174 1042 l 0 1042 m 521 1042 l 521 1215 l 694 1215 l 694 1042 l 521 1042 m 694 174 l 694 0 l 0 0 l 0 868 l 694 868 l 694 694 l 174 694 l 174 521 l 521 521 l 521 347 l 174 347 l 174 174 l 694 174 z "},"ȇ":{"ha":694,"x_min":0,"x_max":521,"o":"m 174 1042 l 174 1215 l 347 1215 l 347 1042 l 174 1042 m 0 868 l 0 1042 l 174 1042 l 174 868 l 0 868 m 347 868 l 347 1042 l 521 1042 l 521 868 l 347 868 m 174 174 l 0 174 l 0 521 l 174 521 l 174 694 l 347 694 l 347 521 l 521 521 l 521 347 l 174 347 l 174 174 m 174 0 l 174 174 l 521 174 l 521 0 l 174 0 z "},"Ȉ":{"ha":347,"x_min":-347,"x_max":347,"o":"m -174 1389 l -174 1215 l -347 1215 l -347 1389 l -174 1389 m 0 1215 l 0 1389 l 174 1389 l 174 1215 l 0 1215 m -174 1042 l -174 1215 l 0 1215 l 0 1042 l -174 1042 m 174 1042 l 174 1215 l 347 1215 l 347 1042 l 174 1042 m 174 0 l 0 0 l 0 868 l 174 868 l 174 0 z "},"ȉ":{"ha":347,"x_min":-347,"x_max":347,"o":"m -174 1215 l -174 1042 l -347 1042 l -347 1215 l -174 1215 m 0 1042 l 0 1215 l 174 1215 l 174 1042 l 0 1042 m -174 868 l -174 1042 l 0 1042 l 0 868 l -174 868 m 174 868 l 174 1042 l 347 1042 l 347 868 l 174 868 m 174 0 l 0 0 l 0 694 l 174 694 l 174 0 z "},"Ȋ":{"ha":347,"x_min":-174,"x_max":347,"o":"m 0 1215 l 0 1389 l 174 1389 l 174 1215 l 0 1215 m -174 1042 l -174 1215 l 0 1215 l 0 1042 l -174 1042 m 174 1042 l 174 1215 l 347 1215 l 347 1042 l 174 1042 m 174 0 l 0 0 l 0 868 l 174 868 l 174 0 z "},"ȋ":{"ha":347,"x_min":-174,"x_max":347,"o":"m 0 1042 l 0 1215 l 174 1215 l 174 1042 l 0 1042 m -174 868 l -174 1042 l 0 1042 l 0 868 l -174 868 m 174 868 l 174 1042 l 347 1042 l 347 868 l 174 868 m 174 0 l 0 0 l 0 694 l 174 694 l 174 0 z "},"Ȍ":{"ha":868,"x_min":0,"x_max":694,"o":"m 174 1389 l 174 1215 l 0 1215 l 0 1389 l 174 1389 m 347 1215 l 347 1389 l 521 1389 l 521 1215 l 347 1215 m 174 1042 l 174 1215 l 347 1215 l 347 1042 l 174 1042 m 521 1042 l 521 1215 l 694 1215 l 694 1042 l 521 1042 m 174 694 l 174 868 l 521 868 l 521 694 l 174 694 m 174 174 l 0 174 l 0 694 l 174 694 l 174 174 m 694 174 l 521 174 l 521 694 l 694 694 l 694 174 m 521 174 l 521 0 l 174 0 l 174 174 l 521 174 z "},"ȍ":{"ha":694,"x_min":-174,"x_max":521,"o":"m 0 1215 l 0 1042 l -174 1042 l -174 1215 l 0 1215 m 174 1042 l 174 1215 l 347 1215 l 347 1042 l 174 1042 m 0 868 l 0 1042 l 174 1042 l 174 868 l 0 868 m 347 868 l 347 1042 l 521 1042 l 521 868 l 347 868 m 174 521 l 174 694 l 347 694 l 347 521 l 174 521 m 174 174 l 0 174 l 0 521 l 174 521 l 174 174 m 521 174 l 347 174 l 347 521 l 521 521 l 521 174 m 347 174 l 347 0 l 174 0 l 174 174 l 347 174 z "},"Ȏ":{"ha":868,"x_min":0,"x_max":694,"o":"m 174 1215 l 174 1389 l 521 1389 l 521 1215 l 174 1215 m 0 1042 l 0 1215 l 174 1215 l 174 1042 l 0 1042 m 521 1042 l 521 1215 l 694 1215 l 694 1042 l 521 1042 m 174 694 l 174 868 l 521 868 l 521 694 l 174 694 m 174 174 l 0 174 l 0 694 l 174 694 l 174 174 m 694 174 l 521 174 l 521 694 l 694 694 l 694 174 m 521 174 l 521 0 l 174 0 l 174 174 l 521 174 z "},"ȏ":{"ha":694,"x_min":0,"x_max":521,"o":"m 174 1042 l 174 1215 l 347 1215 l 347 1042 l 174 1042 m 0 868 l 0 1042 l 174 1042 l 174 868 l 0 868 m 347 868 l 347 1042 l 521 1042 l 521 868 l 347 868 m 174 521 l 174 694 l 347 694 l 347 521 l 174 521 m 174 174 l 0 174 l 0 521 l 174 521 l 174 174 m 521 174 l 347 174 l 347 521 l 521 521 l 521 174 m 347 174 l 347 0 l 174 0 l 174 174 l 347 174 z "},"Ȑ":{"ha":868,"x_min":0,"x_max":694,"o":"m 174 1389 l 174 1215 l 0 1215 l 0 1389 l 174 1389 m 347 1215 l 347 1389 l 521 1389 l 521 1215 l 347 1215 m 174 1042 l 174 1215 l 347 1215 l 347 1042 l 174 1042 m 521 1042 l 521 1215 l 694 1215 l 694 1042 l 521 1042 m 174 0 l 0 0 l 0 868 l 521 868 l 521 694 l 174 694 l 174 521 l 521 521 l 521 347 l 174 347 l 174 0 m 694 521 l 521 521 l 521 694 l 694 694 l 694 521 m 694 0 l 521 0 l 521 347 l 694 347 l 694 0 z "},"ȑ":{"ha":521,"x_min":-174,"x_max":521,"o":"m 0 1215 l 0 1042 l -174 1042 l -174 1215 l 0 1215 m 174 1042 l 174 1215 l 347 1215 l 347 1042 l 174 1042 m 0 868 l 0 1042 l 174 1042 l 174 868 l 0 868 m 347 868 l 347 1042 l 521 1042 l 521 868 l 347 868 m 174 0 l 0 0 l 0 694 l 347 694 l 347 521 l 174 521 l 174 0 z "},"Ȓ":{"ha":868,"x_min":0,"x_max":694,"o":"m 174 1215 l 174 1389 l 521 1389 l 521 1215 l 174 1215 m 0 1042 l 0 1215 l 174 1215 l 174 1042 l 0 1042 m 521 1042 l 521 1215 l 694 1215 l 694 1042 l 521 1042 m 174 0 l 0 0 l 0 868 l 521 868 l 521 694 l 174 694 l 174 521 l 521 521 l 521 347 l 174 347 l 174 0 m 694 521 l 521 521 l 521 694 l 694 694 l 694 521 m 694 0 l 521 0 l 521 347 l 694 347 l 694 0 z "},"ȓ":{"ha":521,"x_min":0,"x_max":521,"o":"m 174 1042 l 174 1215 l 347 1215 l 347 1042 l 174 1042 m 0 868 l 0 1042 l 174 1042 l 174 868 l 0 868 m 347 868 l 347 1042 l 521 1042 l 521 868 l 347 868 m 174 0 l 0 0 l 0 694 l 347 694 l 347 521 l 174 521 l 174 0 z "},"Ȕ":{"ha":868,"x_min":0,"x_max":694,"o":"m 174 1389 l 174 1215 l 0 1215 l 0 1389 l 174 1389 m 347 1215 l 347 1389 l 521 1389 l 521 1215 l 347 1215 m 174 1042 l 174 1215 l 347 1215 l 347 1042 l 174 1042 m 521 1042 l 521 1215 l 694 1215 l 694 1042 l 521 1042 m 174 174 l 0 174 l 0 868 l 174 868 l 174 174 m 694 174 l 521 174 l 521 868 l 694 868 l 694 174 m 521 174 l 521 0 l 174 0 l 174 174 l 521 174 z "},"ȕ":{"ha":694,"x_min":-174,"x_max":521,"o":"m 0 1215 l 0 1042 l -174 1042 l -174 1215 l 0 1215 m 174 1042 l 174 1215 l 347 1215 l 347 1042 l 174 1042 m 0 868 l 0 1042 l 174 1042 l 174 868 l 0 868 m 347 868 l 347 1042 l 521 1042 l 521 868 l 347 868 m 174 0 l 174 174 l 0 174 l 0 694 l 174 694 l 174 174 l 347 174 l 347 694 l 521 694 l 521 0 l 174 0 z "},"Ȗ":{"ha":868,"x_min":0,"x_max":694,"o":"m 174 1215 l 174 1389 l 521 1389 l 521 1215 l 174 1215 m 0 1042 l 0 1215 l 174 1215 l 174 1042 l 0 1042 m 521 1042 l 521 1215 l 694 1215 l 694 1042 l 521 1042 m 174 174 l 0 174 l 0 868 l 174 868 l 174 174 m 694 174 l 521 174 l 521 868 l 694 868 l 694 174 m 521 174 l 521 0 l 174 0 l 174 174 l 521 174 z "},"ȗ":{"ha":694,"x_min":0,"x_max":521,"o":"m 174 1042 l 174 1215 l 347 1215 l 347 1042 l 174 1042 m 0 868 l 0 1042 l 174 1042 l 174 868 l 0 868 m 347 868 l 347 1042 l 521 1042 l 521 868 l 347 868 m 174 0 l 174 174 l 0 174 l 0 694 l 174 694 l 174 174 l 347 174 l 347 694 l 521 694 l 521 0 l 174 0 z "},"Ș":{"ha":868,"x_min":0,"x_max":694,"o":"m 347 -347 l 347 -174 l 521 -174 l 521 -347 l 347 -347 m 174 694 l 174 868 l 694 868 l 694 694 l 174 694 m 0 521 l 0 694 l 174 694 l 174 521 l 0 521 m 174 521 l 521 521 l 521 347 l 174 347 l 174 521 m 694 174 l 521 174 l 521 347 l 694 347 l 694 174 m 521 174 l 521 0 l 0 0 l 0 174 l 521 174 z "},"ș":{"ha":694,"x_min":0,"x_max":521,"o":"m 174 -347 l 174 -174 l 347 -174 l 347 -347 l 174 -347 m 174 521 l 174 694 l 521 694 l 521 521 l 347 521 l 347 347 l 0 347 l 0 521 l 174 521 m 521 174 l 347 174 l 347 347 l 521 347 l 521 174 m 347 174 l 347 0 l 0 0 l 0 174 l 347 174 z "},"Ț":{"ha":694,"x_min":0,"x_max":521,"o":"m 174 -347 l 174 -174 l 347 -174 l 347 -347 l 174 -347 m 347 0 l 174 0 l 174 694 l 0 694 l 0 868 l 521 868 l 521 694 l 347 694 l 347 0 z "},"ț":{"ha":521,"x_min":0,"x_max":347,"o":"m 0 -347 l 0 -174 l 174 -174 l 174 -347 l 0 -347 m 174 174 l 0 174 l 0 868 l 174 868 l 174 694 l 347 694 l 347 521 l 174 521 l 174 174 m 174 0 l 174 174 l 347 174 l 347 0 l 174 0 z "},"Ȟ":{"ha":868,"x_min":0,"x_max":694,"o":"m 0 1389 l 174 1389 l 174 1215 l 0 1215 l 0 1389 m 521 1389 l 694 1389 l 694 1215 l 521 1215 l 521 1389 m 174 1215 l 521 1215 l 521 1042 l 174 1042 l 174 1215 m 174 0 l 0 0 l 0 868 l 174 868 l 174 521 l 521 521 l 521 868 l 694 868 l 694 0 l 521 0 l 521 347 l 174 347 l 174 0 z "},"ȟ":{"ha":694,"x_min":0,"x_max":521,"o":"m 0 1215 l 0 1389 l 174 1389 l 174 1215 l 0 1215 m 347 1215 l 347 1389 l 521 1389 l 521 1215 l 347 1215 m 174 1042 l 174 1215 l 347 1215 l 347 1042 l 174 1042 m 174 0 l 0 0 l 0 868 l 174 868 l 174 694 l 347 694 l 347 521 l 174 521 l 174 0 m 521 0 l 347 0 l 347 521 l 521 521 l 521 0 z "},"Ƞ":{"ha":694,"x_min":0,"x_max":521,"o":"m 174 0 l 0 0 l 0 868 l 347 868 l 347 694 l 174 694 l 174 0 m 521 -174 l 347 -174 l 347 694 l 521 694 l 521 -174 z "},"Ȣ":{"ha":868,"x_min":0,"x_max":694,"o":"m 347 694 l 347 868 l 521 868 l 521 694 l 347 694 m 694 521 l 521 521 l 521 694 l 694 694 l 694 521 m 0 521 l 0 694 l 174 694 l 174 521 l 0 521 m 174 521 l 521 521 l 521 347 l 174 347 l 174 521 m 0 174 l 0 347 l 174 347 l 174 174 l 0 174 m 521 174 l 521 347 l 694 347 l 694 174 l 521 174 m 174 174 l 521 174 l 521 0 l 174 0 l 174 174 z "},"ȣ":{"ha":868,"x_min":0,"x_max":694,"o":"m 694 521 l 521 521 l 521 694 l 694 694 l 694 521 m 0 521 l 0 694 l 174 694 l 174 521 l 0 521 m 174 521 l 521 521 l 521 347 l 174 347 l 174 521 m 0 174 l 0 347 l 174 347 l 174 174 l 0 174 m 521 174 l 521 347 l 694 347 l 694 174 l 521 174 m 174 174 l 521 174 l 521 0 l 174 0 l 174 174 z "},"Ȧ":{"ha":868,"x_min":0,"x_max":694,"o":"m 347 1042 l 347 1215 l 521 1215 l 521 1042 l 347 1042 m 174 694 l 174 868 l 521 868 l 521 694 l 174 694 m 174 0 l 0 0 l 0 694 l 174 694 l 174 521 l 521 521 l 521 694 l 694 694 l 694 0 l 521 0 l 521 347 l 174 347 l 174 0 z "},"ȧ":{"ha":694,"x_min":0,"x_max":521,"o":"m 174 868 l 174 1042 l 347 1042 l 347 868 l 174 868 m 174 0 l 174 174 l 0 174 l 0 521 l 174 521 l 174 174 l 347 174 l 347 521 l 174 521 l 174 694 l 521 694 l 521 0 l 174 0 z "},"Ȩ":{"ha":868,"x_min":0,"x_max":694,"o":"m 174 -174 l 174 0 l 347 0 l 347 -174 l 174 -174 m 694 174 l 694 0 l 0 0 l 0 868 l 694 868 l 694 694 l 174 694 l 174 521 l 521 521 l 521 347 l 174 347 l 174 174 l 694 174 z "},"ȩ":{"ha":694,"x_min":0,"x_max":521,"o":"m 174 -174 l 174 0 l 347 0 l 347 -174 l 174 -174 m 174 174 l 0 174 l 0 521 l 174 521 l 174 694 l 347 694 l 347 521 l 521 521 l 521 347 l 174 347 l 174 174 m 174 0 l 174 174 l 521 174 l 521 0 l 174 0 z "},"Ȫ":{"ha":868,"x_min":0,"x_max":694,"o":"m 0 1389 l 0 1563 l 694 1563 l 694 1389 l 0 1389 m 0 1042 l 0 1215 l 174 1215 l 174 1042 l 0 1042 m 521 1042 l 521 1215 l 694 1215 l 694 1042 l 521 1042 m 174 694 l 174 868 l 521 868 l 521 694 l 174 694 m 174 174 l 0 174 l 0 694 l 174 694 l 174 174 m 694 174 l 521 174 l 521 694 l 694 694 l 694 174 m 521 174 l 521 0 l 174 0 l 174 174 l 521 174 z "},"ȫ":{"ha":694,"x_min":0,"x_max":521,"o":"m 0 1215 l 0 1389 l 521 1389 l 521 1215 l 0 1215 m 0 868 l 0 1042 l 174 1042 l 174 868 l 0 868 m 347 868 l 347 1042 l 521 1042 l 521 868 l 347 868 m 174 521 l 174 694 l 347 694 l 347 521 l 174 521 m 174 174 l 0 174 l 0 521 l 174 521 l 174 174 m 521 174 l 347 174 l 347 521 l 521 521 l 521 174 m 347 174 l 347 0 l 174 0 l 174 174 l 347 174 z "},"Ȭ":{"ha":868,"x_min":0,"x_max":694,"o":"m 0 1389 l 0 1563 l 694 1563 l 694 1389 l 0 1389 m 174 1042 l 174 1215 l 521 1215 l 521 1042 l 174 1042 m 174 694 l 174 868 l 521 868 l 521 694 l 174 694 m 174 174 l 0 174 l 0 694 l 174 694 l 174 174 m 694 174 l 521 174 l 521 694 l 694 694 l 694 174 m 521 174 l 521 0 l 174 0 l 174 174 l 521 174 z "},"ȭ":{"ha":694,"x_min":0,"x_max":521,"o":"m 0 1215 l 0 1389 l 521 1389 l 521 1215 l 0 1215 m 174 868 l 174 1042 l 521 1042 l 521 868 l 174 868 m 174 521 l 174 694 l 347 694 l 347 521 l 174 521 m 174 174 l 0 174 l 0 521 l 174 521 l 174 174 m 521 174 l 347 174 l 347 521 l 521 521 l 521 174 m 347 174 l 347 0 l 174 0 l 174 174 l 347 174 z "},"Ȯ":{"ha":868,"x_min":0,"x_max":694,"o":"m 347 1042 l 347 1215 l 521 1215 l 521 1042 l 347 1042 m 174 694 l 174 868 l 521 868 l 521 694 l 174 694 m 174 174 l 0 174 l 0 694 l 174 694 l 174 174 m 694 174 l 521 174 l 521 694 l 694 694 l 694 174 m 521 174 l 521 0 l 174 0 l 174 174 l 521 174 z "},"ȯ":{"ha":694,"x_min":0,"x_max":521,"o":"m 174 868 l 174 1042 l 347 1042 l 347 868 l 174 868 m 174 521 l 174 694 l 347 694 l 347 521 l 174 521 m 174 174 l 0 174 l 0 521 l 174 521 l 174 174 m 521 174 l 347 174 l 347 521 l 521 521 l 521 174 m 347 174 l 347 0 l 174 0 l 174 174 l 347 174 z "},"Ȱ":{"ha":868,"x_min":0,"x_max":694,"o":"m 0 1389 l 0 1563 l 694 1563 l 694 1389 l 0 1389 m 347 1042 l 347 1215 l 521 1215 l 521 1042 l 347 1042 m 174 694 l 174 868 l 521 868 l 521 694 l 174 694 m 174 174 l 0 174 l 0 694 l 174 694 l 174 174 m 694 174 l 521 174 l 521 694 l 694 694 l 694 174 m 521 174 l 521 0 l 174 0 l 174 174 l 521 174 z "},"ȱ":{"ha":694,"x_min":0,"x_max":521,"o":"m 0 1215 l 0 1389 l 521 1389 l 521 1215 l 0 1215 m 174 868 l 174 1042 l 347 1042 l 347 868 l 174 868 m 174 521 l 174 694 l 347 694 l 347 521 l 174 521 m 174 174 l 0 174 l 0 521 l 174 521 l 174 174 m 521 174 l 347 174 l 347 521 l 521 521 l 521 174 m 347 174 l 347 0 l 174 0 l 174 174 l 347 174 z "},"Ȳ":{"ha":694,"x_min":0,"x_max":521,"o":"m 0 1042 l 0 1215 l 521 1215 l 521 1042 l 0 1042 m 174 521 l 0 521 l 0 868 l 174 868 l 174 521 m 347 521 l 347 868 l 521 868 l 521 521 l 347 521 m 347 0 l 174 0 l 174 521 l 347 521 l 347 0 z "},"ȳ":{"ha":694,"x_min":0,"x_max":521,"o":"m 0 868 l 0 1042 l 521 1042 l 521 868 l 0 868 m 174 174 l 0 174 l 0 694 l 174 694 l 174 174 m 521 174 l 347 174 l 347 694 l 521 694 l 521 174 m 347 174 l 347 0 l 174 0 l 174 174 l 347 174 m 0 -174 l 0 0 l 174 0 l 174 -174 l 0 -174 z "},"ȷ":{"ha":347,"x_min":0,"x_max":174,"o":"m 174 -174 l 0 -174 l 0 694 l 174 694 l 174 -174 z "},"Ⱥ":{"ha":868,"x_min":0,"x_max":694,"o":"m 347 868 l 347 1042 l 521 1042 l 521 694 l 174 694 l 174 868 l 347 868 m 174 0 l 0 0 l 0 694 l 174 694 l 174 521 l 521 521 l 521 694 l 694 694 l 694 0 l 521 0 l 521 347 l 174 347 l 174 0 m 347 -174 l 174 -174 l 174 0 l 347 0 l 347 -174 z "},"Ȼ":{"ha":868,"x_min":0,"x_max":694,"o":"m 694 868 l 521 868 l 521 1042 l 694 1042 l 694 868 m 521 868 l 521 694 l 174 694 l 174 868 l 521 868 m 174 174 l 0 174 l 0 694 l 174 694 l 174 174 m 521 521 l 521 694 l 694 694 l 694 521 l 521 521 m 694 174 l 521 174 l 521 347 l 694 347 l 694 174 m 521 174 l 521 0 l 174 0 l 174 174 l 521 174 m 174 0 l 174 -174 l 0 -174 l 0 0 l 174 0 z "},"ȼ":{"ha":694,"x_min":0,"x_max":521,"o":"m 174 521 l 174 694 l 347 694 l 347 868 l 521 868 l 521 521 l 174 521 m 174 174 l 0 174 l 0 521 l 174 521 l 174 174 m 521 174 l 521 0 l 174 0 l 174 174 l 521 174 m 174 0 l 174 -174 l 0 -174 l 0 0 l 174 0 z "},"Ƚ":{"ha":868,"x_min":0,"x_max":694,"o":"m 694 174 l 694 0 l 174 0 l 174 347 l 0 347 l 0 521 l 174 521 l 174 868 l 347 868 l 347 521 l 521 521 l 521 347 l 347 347 l 347 174 l 694 174 z "},"Ⱦ":{"ha":694,"x_min":0,"x_max":521,"o":"m 347 0 l 174 0 l 174 694 l 0 694 l 0 868 l 347 868 l 347 1042 l 521 1042 l 521 694 l 347 694 l 347 0 m 174 0 l 174 -174 l 0 -174 l 0 0 l 174 0 z "},"Ɂ":{"ha":868,"x_min":0,"x_max":694,"o":"m 521 868 l 174 868 l 174 1042 l 521 1042 l 521 868 m 521 347 l 521 868 l 694 868 l 694 347 l 521 347 m 174 868 l 174 694 l 0 694 l 0 868 l 174 868 m 521 174 l 347 174 l 347 347 l 521 347 l 521 174 m 347 174 l 347 0 l 174 0 l 174 174 l 347 174 z "},"ɂ":{"ha":868,"x_min":0,"x_max":694,"o":"m 174 694 l 174 868 l 521 868 l 521 694 l 174 694 m 0 521 l 0 694 l 174 694 l 174 521 l 0 521 m 521 347 l 521 694 l 694 694 l 694 347 l 521 347 m 347 174 l 347 347 l 521 347 l 521 174 l 694 174 l 694 0 l 174 0 l 174 174 l 347 174 z "},"Ƀ":{"ha":1042,"x_min":0,"x_max":868,"o":"m 694 174 l 694 0 l 174 0 l 174 174 l 0 174 l 0 347 l 174 347 l 174 868 l 694 868 l 694 694 l 347 694 l 347 521 l 694 521 l 694 347 l 347 347 l 347 174 l 694 174 m 694 521 l 694 694 l 868 694 l 868 521 l 694 521 m 868 174 l 694 174 l 694 347 l 868 347 l 868 174 z "},"Ʉ":{"ha":1215,"x_min":0,"x_max":1042,"o":"m 174 174 l 174 347 l 0 347 l 0 521 l 174 521 l 174 868 l 347 868 l 347 174 l 174 174 m 694 174 l 694 868 l 868 868 l 868 521 l 1042 521 l 1042 347 l 868 347 l 868 174 l 694 174 m 347 174 l 694 174 l 694 0 l 347 0 l 347 174 z "},"Ʌ":{"ha":694,"x_min":0,"x_max":521,"o":"m 174 521 l 174 868 l 347 868 l 347 521 l 174 521 m 174 0 l 0 0 l 0 521 l 174 521 l 174 0 m 521 0 l 347 0 l 347 521 l 521 521 l 521 0 z "},"Ɇ":{"ha":868,"x_min":0,"x_max":694,"o":"m 174 0 l 0 0 l 0 868 l 347 868 l 347 1042 l 521 1042 l 521 868 l 694 868 l 694 694 l 174 694 l 174 521 l 521 521 l 521 347 l 174 347 l 174 174 l 694 174 l 694 0 l 347 0 l 347 -174 l 174 -174 l 174 0 z "},"ɇ":{"ha":694,"x_min":0,"x_max":521,"o":"m 347 694 l 347 868 l 521 868 l 521 694 l 347 694 m 174 174 l 0 174 l 0 521 l 174 521 l 174 694 l 347 694 l 347 521 l 521 521 l 521 347 l 174 347 l 174 174 m 521 174 l 521 0 l 174 0 l 174 174 l 521 174 m 174 0 l 174 -174 l 0 -174 l 0 0 l 174 0 z "},"Ɉ":{"ha":868,"x_min":0,"x_max":694,"o":"m 347 174 l 347 868 l 521 868 l 521 521 l 694 521 l 694 347 l 521 347 l 521 174 l 347 174 m 0 174 l 0 347 l 174 347 l 174 174 l 0 174 m 174 174 l 347 174 l 347 0 l 174 0 l 174 174 z "},"ɉ":{"ha":694,"x_min":0,"x_max":521,"o":"m 174 868 l 174 1042 l 347 1042 l 347 868 l 174 868 m 347 -174 l 174 -174 l 174 347 l 0 347 l 0 521 l 174 521 l 174 694 l 347 694 l 347 521 l 521 521 l 521 347 l 347 347 l 347 -174 z "},"Ɋ":{"ha":1042,"x_min":0,"x_max":868,"o":"m 521 347 l 521 694 l 174 694 l 174 868 l 694 868 l 694 347 l 521 347 m 174 174 l 0 174 l 0 694 l 174 694 l 174 174 m 521 174 l 347 174 l 347 347 l 521 347 l 521 174 m 347 174 l 347 0 l 174 0 l 174 174 l 347 174 m 521 0 l 521 174 l 694 174 l 694 0 l 521 0 m 694 -174 l 694 0 l 868 0 l 868 -174 l 694 -174 z "},"ɋ":{"ha":868,"x_min":0,"x_max":694,"o":"m 347 174 l 347 521 l 174 521 l 174 694 l 521 694 l 521 -174 l 347 -174 l 347 0 l 174 0 l 174 174 l 0 174 l 0 521 l 174 521 l 174 174 l 347 174 m 694 -174 l 694 -347 l 521 -347 l 521 -174 l 694 -174 z "},"Ɍ":{"ha":1042,"x_min":0,"x_max":868,"o":"m 347 0 l 174 0 l 174 347 l 0 347 l 0 521 l 174 521 l 174 868 l 694 868 l 694 694 l 347 694 l 347 521 l 694 521 l 694 347 l 347 347 l 347 0 m 868 521 l 694 521 l 694 694 l 868 694 l 868 521 m 868 0 l 694 0 l 694 347 l 868 347 l 868 0 z "},"ɍ":{"ha":694,"x_min":0,"x_max":521,"o":"m 347 0 l 174 0 l 174 347 l 0 347 l 0 521 l 174 521 l 174 694 l 521 694 l 521 521 l 347 521 l 347 0 z "},"Ɏ":{"ha":1042,"x_min":0,"x_max":868,"o":"m 0 521 l 0 694 l 174 694 l 174 868 l 347 868 l 347 521 l 0 521 m 521 521 l 521 868 l 694 868 l 694 694 l 868 694 l 868 521 l 521 521 m 521 0 l 347 0 l 347 521 l 521 521 l 521 0 z "},"ɏ":{"ha":1042,"x_min":0,"x_max":868,"o":"m 694 174 l 521 174 l 521 694 l 694 694 l 694 521 l 868 521 l 868 347 l 694 347 l 694 174 m 174 174 l 174 347 l 0 347 l 0 521 l 174 521 l 174 694 l 347 694 l 347 174 l 174 174 m 347 174 l 521 174 l 521 0 l 347 0 l 347 174 m 347 0 l 347 -174 l 174 -174 l 174 0 l 347 0 z "},"ɑ":{"ha":694,"x_min":0,"x_max":521,"o":"m 174 0 l 174 174 l 0 174 l 0 521 l 174 521 l 174 174 l 347 174 l 347 521 l 174 521 l 174 694 l 521 694 l 521 0 l 174 0 z "},"ɓ":{"ha":694,"x_min":0,"x_max":521,"o":"m 174 868 l 174 1042 l 347 1042 l 347 868 l 174 868 m 174 174 l 347 174 l 347 0 l 0 0 l 0 868 l 174 868 l 174 694 l 347 694 l 347 521 l 174 521 l 174 174 m 347 174 l 347 521 l 521 521 l 521 174 l 347 174 z "},"ɔ":{"ha":694,"x_min":0,"x_max":521,"o":"m 0 521 l 0 694 l 347 694 l 347 521 l 0 521 m 521 174 l 347 174 l 347 521 l 521 521 l 521 174 m 347 174 l 347 0 l 0 0 l 0 174 l 347 174 z "},"ɖ":{"ha":868,"x_min":0,"x_max":694,"o":"m 347 174 l 347 521 l 174 521 l 174 694 l 347 694 l 347 868 l 521 868 l 521 0 l 174 0 l 174 174 l 0 174 l 0 521 l 174 521 l 174 174 l 347 174 m 694 -174 l 521 -174 l 521 0 l 694 0 l 694 -174 z "},"ɗ":{"ha":868,"x_min":0,"x_max":694,"o":"m 521 868 l 521 1042 l 694 1042 l 694 868 l 521 868 m 174 0 l 174 174 l 0 174 l 0 521 l 174 521 l 174 174 l 347 174 l 347 521 l 174 521 l 174 694 l 347 694 l 347 868 l 521 868 l 521 0 l 174 0 z "},"ə":{"ha":694,"x_min":0,"x_max":521,"o":"m 0 521 l 0 694 l 347 694 l 347 521 l 0 521 m 0 174 l 0 347 l 347 347 l 347 521 l 521 521 l 521 174 l 347 174 l 347 0 l 174 0 l 174 174 l 0 174 z "},"ɛ":{"ha":694,"x_min":0,"x_max":521,"o":"m 174 174 l 0 174 l 0 521 l 174 521 l 174 694 l 521 694 l 521 521 l 347 521 l 347 347 l 174 347 l 174 174 m 174 0 l 174 174 l 521 174 l 521 0 l 174 0 z "},"ɠ":{"ha":868,"x_min":0,"x_max":694,"o":"m 0 0 l 174 0 l 174 174 l 0 174 l 0 521 l 174 521 l 174 174 l 347 174 l 347 521 l 174 521 l 174 694 l 347 694 l 347 868 l 694 868 l 694 694 l 521 694 l 521 0 l 347 0 l 347 -174 l 0 -174 l 0 0 z "},"ɣ":{"ha":694,"x_min":0,"x_max":521,"o":"m 174 347 l 0 347 l 0 694 l 174 694 l 174 347 m 347 347 l 347 694 l 521 694 l 521 347 l 347 347 m 347 174 l 174 174 l 174 347 l 347 347 l 347 174 m 174 174 l 174 0 l 0 0 l 0 174 l 174 174 m 347 0 l 347 174 l 521 174 l 521 0 l 347 0 m 174 -174 l 174 0 l 347 0 l 347 -174 l 174 -174 z "},"ɥ":{"ha":694,"x_min":0,"x_max":521,"o":"m 174 174 l 0 174 l 0 694 l 174 694 l 174 174 l 347 174 l 347 694 l 521 694 l 521 -174 l 347 -174 l 347 0 l 174 0 l 174 174 z "},"ɦ":{"ha":694,"x_min":0,"x_max":521,"o":"m 174 868 l 174 1042 l 347 1042 l 347 868 l 174 868 m 174 0 l 0 0 l 0 868 l 174 868 l 174 694 l 347 694 l 347 521 l 174 521 l 174 0 m 521 0 l 347 0 l 347 521 l 521 521 l 521 0 z "},"ɨ":{"ha":694,"x_min":0,"x_max":521,"o":"m 174 868 l 174 1042 l 347 1042 l 347 868 l 174 868 m 347 0 l 174 0 l 174 347 l 0 347 l 0 521 l 174 521 l 174 694 l 347 694 l 347 521 l 521 521 l 521 347 l 347 347 l 347 0 z "},"ɩ":{"ha":347,"x_min":0,"x_max":174,"o":"m 174 0 l 0 0 l 0 694 l 174 694 l 174 0 z "},"ɪ":{"ha":347,"x_min":0,"x_max":174,"o":"m 174 0 l 0 0 l 0 694 l 174 694 l 174 0 z "},"ɫ":{"ha":521,"x_min":0,"x_max":347,"o":"m 174 0 l 0 0 l 0 868 l 174 868 l 174 521 l 347 521 l 347 347 l 174 347 l 174 0 z "},"ɬ":{"ha":694,"x_min":0,"x_max":521,"o":"m 347 0 l 174 0 l 174 521 l 0 521 l 0 694 l 174 694 l 174 868 l 347 868 l 347 521 l 521 521 l 521 347 l 347 347 l 347 0 z "},"ɯ":{"ha":1042,"x_min":0,"x_max":868,"o":"m 174 0 l 174 174 l 0 174 l 0 694 l 174 694 l 174 174 l 347 174 l 347 694 l 521 694 l 521 174 l 694 174 l 694 694 l 868 694 l 868 0 l 174 0 z "},"ɲ":{"ha":868,"x_min":0,"x_max":694,"o":"m 174 0 l 174 694 l 521 694 l 521 521 l 347 521 l 347 0 l 174 0 m 694 0 l 521 0 l 521 521 l 694 521 l 694 0 m 0 0 l 174 0 l 174 -174 l 0 -174 l 0 0 z "},"ɵ":{"ha":694,"x_min":0,"x_max":521,"o":"m 174 174 l 0 174 l 0 521 l 174 521 l 174 694 l 347 694 l 347 521 l 521 521 l 521 174 l 347 174 l 347 347 l 174 347 l 174 174 m 347 174 l 347 0 l 174 0 l 174 174 l 347 174 z "},"ɽ":{"ha":521,"x_min":0,"x_max":347,"o":"m 174 0 l 0 0 l 0 694 l 347 694 l 347 521 l 174 521 l 174 0 m 174 -174 l 174 0 l 347 0 l 347 -174 l 174 -174 z "},"ɾ":{"ha":521,"x_min":0,"x_max":347,"o":"m 174 521 l 174 694 l 347 694 l 347 521 l 174 521 m 174 0 l 0 0 l 0 521 l 174 521 l 174 0 z "},"ʃ":{"ha":694,"x_min":0,"x_max":521,"o":"m 347 868 l 347 1042 l 521 1042 l 521 868 l 347 868 m 347 0 l 174 0 l 174 868 l 347 868 l 347 0 m 174 0 l 174 -174 l 0 -174 l 0 0 l 174 0 z "},"ʈ":{"ha":521,"x_min":0,"x_max":347,"o":"m 174 0 l 0 0 l 0 868 l 174 868 l 174 694 l 347 694 l 347 521 l 174 521 l 174 0 m 174 -174 l 174 0 l 347 0 l 347 -174 l 174 -174 z "},"ʉ":{"ha":1042,"x_min":0,"x_max":868,"o":"m 174 174 l 174 347 l 0 347 l 0 521 l 174 521 l 174 694 l 347 694 l 347 174 l 521 174 l 521 694 l 694 694 l 694 521 l 868 521 l 868 347 l 694 347 l 694 0 l 347 0 l 347 174 l 174 174 z "},"ʊ":{"ha":1042,"x_min":0,"x_max":868,"o":"m 694 521 l 694 347 l 521 347 l 521 694 l 868 694 l 868 521 l 694 521 m 0 521 l 0 694 l 347 694 l 347 347 l 174 347 l 174 521 l 0 521 m 868 174 l 694 174 l 694 347 l 868 347 l 868 174 m 174 174 l 0 174 l 0 347 l 174 347 l 174 174 m 694 174 l 694 0 l 174 0 l 174 174 l 694 174 z "},"ʋ":{"ha":868,"x_min":0,"x_max":694,"o":"m 174 174 l 0 174 l 0 694 l 174 694 l 174 174 m 347 521 l 347 694 l 521 694 l 521 521 l 347 521 m 694 174 l 521 174 l 521 521 l 694 521 l 694 174 m 521 174 l 521 0 l 174 0 l 174 174 l 521 174 z "},"ʌ":{"ha":694,"x_min":0,"x_max":521,"o":"m 174 347 l 174 694 l 347 694 l 347 347 l 174 347 m 174 0 l 0 0 l 0 347 l 174 347 l 174 0 m 521 0 l 347 0 l 347 347 l 521 347 l 521 0 z "},"ʒ":{"ha":694,"x_min":0,"x_max":521,"o":"m 0 521 l 0 694 l 521 694 l 521 347 l 347 347 l 347 521 l 0 521 m 174 174 l 174 347 l 347 347 l 347 174 l 174 174 m 347 174 l 521 174 l 521 0 l 347 0 l 347 174 m 0 -174 l 0 0 l 347 0 l 347 -174 l 0 -174 z "},"ʔ":{"ha":694,"x_min":0,"x_max":521,"o":"m 174 694 l 174 868 l 347 868 l 347 694 l 174 694 m 0 521 l 0 694 l 174 694 l 174 521 l 0 521 m 347 347 l 347 694 l 521 694 l 521 347 l 347 347 m 347 0 l 174 0 l 174 347 l 347 347 l 347 0 z "},"ʕ":{"ha":694,"x_min":0,"x_max":521,"o":"m 174 694 l 174 868 l 347 868 l 347 694 l 174 694 m 347 521 l 347 694 l 521 694 l 521 521 l 347 521 m 174 347 l 0 347 l 0 694 l 174 694 l 174 347 m 347 0 l 174 0 l 174 347 l 347 347 l 347 0 z "},"ʘ":{"ha":1042,"x_min":0,"x_max":868,"o":"m 174 694 l 174 868 l 694 868 l 694 694 l 174 694 m 868 174 l 694 174 l 694 694 l 868 694 l 868 174 m 174 174 l 0 174 l 0 694 l 174 694 l 174 174 m 347 347 l 347 521 l 521 521 l 521 347 l 347 347 m 694 174 l 694 0 l 174 0 l 174 174 l 694 174 z "},"ʝ":{"ha":694,"x_min":0,"x_max":521,"o":"m 347 868 l 347 1042 l 521 1042 l 521 868 l 347 868 m 174 -174 l 174 0 l 0 0 l 0 174 l 174 174 l 174 0 l 347 0 l 347 174 l 174 174 l 174 347 l 347 347 l 347 694 l 521 694 l 521 -174 l 174 -174 z "},"ʰ":{"ha":694,"x_min":0,"x_max":521,"o":"m 174 174 l 174 0 l 0 0 l 0 521 l 174 521 l 174 347 l 347 347 l 347 174 l 174 174 m 347 174 l 521 174 l 521 0 l 347 0 l 347 174 z "},"ʷ":{"ha":1042,"x_min":0,"x_max":868,"o":"m 868 174 l 694 174 l 694 521 l 868 521 l 868 174 m 174 174 l 0 174 l 0 521 l 174 521 l 174 174 l 347 174 l 347 521 l 521 521 l 521 174 l 694 174 l 694 0 l 174 0 l 174 174 z "},"ʻ":{"ha":347,"x_min":0,"x_max":174,"o":"m 174 521 l 0 521 l 0 868 l 174 868 l 174 521 z "},"ʼ":{"ha":347,"x_min":0,"x_max":174,"o":"m 174 521 l 0 521 l 0 868 l 174 868 l 174 521 z "},"ʽ":{"ha":347,"x_min":0,"x_max":174,"o":"m 174 521 l 0 521 l 0 868 l 174 868 l 174 521 z "},"ʾ":{"ha":347,"x_min":0,"x_max":174,"o":"m 174 521 l 0 521 l 0 868 l 174 868 l 174 521 z "},"ʿ":{"ha":347,"x_min":0,"x_max":174,"o":"m 174 521 l 0 521 l 0 868 l 174 868 l 174 521 z "},"ˀ":{"ha":694,"x_min":0,"x_max":521,"o":"m 174 694 l 174 868 l 347 868 l 347 694 l 174 694 m 0 521 l 0 694 l 174 694 l 174 521 l 0 521 m 347 347 l 347 694 l 521 694 l 521 347 l 347 347 m 347 0 l 174 0 l 174 347 l 347 347 l 347 0 z "},"ˊ":{"ha":521,"x_min":0,"x_max":347,"o":"m 174 694 l 174 868 l 347 868 l 347 694 l 174 694 m 0 521 l 0 694 l 174 694 l 174 521 l 0 521 z "},"ˋ":{"ha":521,"x_min":0,"x_max":347,"o":"m 0 694 l 0 868 l 174 868 l 174 694 l 0 694 m 174 521 l 174 694 l 347 694 l 347 521 l 174 521 z "},"˗":{"ha":694,"x_min":0,"x_max":521,"o":"m 0 347 l 0 521 l 521 521 l 521 347 l 0 347 z "},"ˮ":{"ha":694,"x_min":0,"x_max":521,"o":"m 174 521 l 0 521 l 0 868 l 174 868 l 174 521 m 521 521 l 347 521 l 347 868 l 521 868 l 521 521 z "},"̂":{"ha":0,"x_min":0,"x_max":521,"o":"m 174 694 l 174 868 l 347 868 l 347 694 l 174 694 m 0 521 l 0 694 l 174 694 l 174 521 l 0 521 m 347 521 l 347 694 l 521 694 l 521 521 l 347 521 z "},"̄":{"ha":0,"x_min":0,"x_max":521,"o":"m 0 694 l 0 868 l 521 868 l 521 694 l 0 694 z "},"̆":{"ha":0,"x_min":0,"x_max":521,"o":"m 0 694 l 0 868 l 174 868 l 174 694 l 0 694 m 347 694 l 347 868 l 521 868 l 521 694 l 347 694 m 174 521 l 174 694 l 347 694 l 347 521 l 174 521 z "},"̇":{"ha":0,"x_min":0,"x_max":174,"o":"m 0 694 l 0 868 l 174 868 l 174 694 l 0 694 z "},"̈":{"ha":0,"x_min":0,"x_max":521,"o":"m 0 694 l 0 868 l 174 868 l 174 694 l 0 694 m 347 694 l 347 868 l 521 868 l 521 694 l 347 694 z "},"̊":{"ha":0,"x_min":0,"x_max":521,"o":"m 347 694 l 174 694 l 174 868 l 347 868 l 347 694 m 174 694 l 174 521 l 0 521 l 0 694 l 174 694 m 347 521 l 347 694 l 521 694 l 521 521 l 347 521 m 174 347 l 174 521 l 347 521 l 347 347 l 174 347 z "},"̋":{"ha":0,"x_min":0,"x_max":694,"o":"m 174 694 l 174 868 l 347 868 l 347 694 l 174 694 m 521 694 l 521 868 l 694 868 l 694 694 l 521 694 m 0 521 l 0 694 l 174 694 l 174 521 l 0 521 m 347 521 l 347 694 l 521 694 l 521 521 l 347 521 z "},"̌":{"ha":0,"x_min":0,"x_max":521,"o":"m 0 694 l 0 868 l 174 868 l 174 694 l 0 694 m 347 694 l 347 868 l 521 868 l 521 694 l 347 694 m 174 521 l 174 694 l 347 694 l 347 521 l 174 521 z "},"̍":{"ha":0,"x_min":0,"x_max":174,"o":"m 174 521 l 0 521 l 0 868 l 174 868 l 174 521 z "},"̏":{"ha":0,"x_min":-174,"x_max":521,"o":"m 0 868 l 0 694 l -174 694 l -174 868 l 0 868 m 174 694 l 174 868 l 347 868 l 347 694 l 174 694 m 0 521 l 0 694 l 174 694 l 174 521 l 0 521 m 347 521 l 347 694 l 521 694 l 521 521 l 347 521 z "},"̐":{"ha":0,"x_min":0,"x_max":521,"o":"m 174 1042 l 174 1215 l 347 1215 l 347 1042 l 174 1042 m 0 694 l 0 868 l 174 868 l 174 694 l 0 694 m 347 694 l 347 868 l 521 868 l 521 694 l 347 694 m 174 521 l 174 694 l 347 694 l 347 521 l 174 521 z "},"̑":{"ha":0,"x_min":0,"x_max":521,"o":"m 174 694 l 174 868 l 347 868 l 347 694 l 174 694 m 0 521 l 0 694 l 174 694 l 174 521 l 0 521 m 347 521 l 347 694 l 521 694 l 521 521 l 347 521 z "},"̓":{"ha":0,"x_min":0,"x_max":174,"o":"m 174 521 l 0 521 l 0 868 l 174 868 l 174 521 z "},"̤":{"ha":0,"x_min":0,"x_max":521,"o":"m 347 0 l 347 174 l 521 174 l 521 0 l 347 0 m 0 0 l 0 174 l 174 174 l 174 0 l 0 0 z "},"̥":{"ha":0,"x_min":0,"x_max":521,"o":"m 347 347 l 174 347 l 174 521 l 347 521 l 347 347 m 174 347 l 174 174 l 0 174 l 0 347 l 174 347 m 347 174 l 347 347 l 521 347 l 521 174 l 347 174 m 174 0 l 174 174 l 347 174 l 347 0 l 174 0 z "},"̦":{"ha":0,"x_min":0,"x_max":174,"o":"m 0 0 l 0 174 l 174 174 l 174 0 l 0 0 z "},"̧":{"ha":0,"x_min":0,"x_max":174,"o":"m 0 0 l 0 174 l 174 174 l 174 0 l 0 0 z "},"̨":{"ha":0,"x_min":0,"x_max":174,"o":"m 0 0 l 0 174 l 174 174 l 174 0 l 0 0 z "},"̩":{"ha":0,"x_min":0,"x_max":174,"o":"m 0 347 l 174 347 l 174 0 l 0 0 l 0 347 z "},"̭":{"ha":0,"x_min":0,"x_max":521,"o":"m 174 174 l 174 347 l 347 347 l 347 174 l 174 174 m 347 174 l 521 174 l 521 0 l 347 0 l 347 174 m 0 0 l 0 174 l 174 174 l 174 0 l 0 0 z "},"̮":{"ha":0,"x_min":0,"x_max":521,"o":"m 347 174 l 347 347 l 521 347 l 521 174 l 347 174 m 0 347 l 174 347 l 174 174 l 0 174 l 0 347 m 174 174 l 347 174 l 347 0 l 174 0 l 174 174 z "},"̯":{"ha":0,"x_min":0,"x_max":521,"o":"m 174 174 l 174 347 l 347 347 l 347 174 l 174 174 m 347 174 l 521 174 l 521 0 l 347 0 l 347 174 m 0 0 l 0 174 l 174 174 l 174 0 l 0 0 z "},"̰":{"ha":0,"x_min":0,"x_max":347,"o":"m 0 0 l 0 174 l 347 174 l 347 0 l 0 0 z "},"̱":{"ha":0,"x_min":0,"x_max":521,"o":"m 0 0 l 0 174 l 521 174 l 521 0 l 0 0 z "},"̴":{"ha":0,"x_min":0,"x_max":347,"o":"m 0 347 l 0 521 l 347 521 l 347 347 l 0 347 z "},"͘":{"ha":0,"x_min":0,"x_max":174,"o":"m 0 694 l 0 868 l 174 868 l 174 694 l 0 694 z "},"฿":{"ha":868,"x_min":0,"x_max":694,"o":"m 347 -174 l 174 -174 l 174 0 l 0 0 l 0 868 l 174 868 l 174 1042 l 347 1042 l 347 868 l 521 868 l 521 694 l 174 694 l 174 521 l 521 521 l 521 347 l 174 347 l 174 174 l 521 174 l 521 0 l 347 0 l 347 -174 m 694 521 l 521 521 l 521 694 l 694 694 l 694 521 m 694 174 l 521 174 l 521 347 l 694 347 l 694 174 z "},"ᵘ":{"ha":694,"x_min":0,"x_max":521,"o":"m 0 0 l 174 0 l 174 -347 l 347 -347 l 347 0 l 521 0 l 521 -521 l 174 -521 l 174 -347 l 0 -347 l 0 0 z "},"ᵛ":{"ha":694,"x_min":0,"x_max":521,"o":"m 347 -347 l 347 0 l 521 0 l 521 -347 l 347 -347 m 0 0 l 174 0 l 174 -347 l 0 -347 l 0 0 m 174 -347 l 347 -347 l 347 -521 l 174 -521 l 174 -347 z "},"ᵽ":{"ha":868,"x_min":0,"x_max":694,"o":"m 694 174 l 521 174 l 521 347 l 347 347 l 347 174 l 521 174 l 521 0 l 347 0 l 347 -174 l 174 -174 l 174 347 l 0 347 l 0 521 l 174 521 l 174 694 l 521 694 l 521 521 l 694 521 l 694 174 z "},"ᶻ":{"ha":694,"x_min":0,"x_max":521,"o":"m 521 0 l 521 -174 l 347 -174 l 347 -347 l 521 -347 l 521 -521 l 0 -521 l 0 -347 l 174 -347 l 174 -174 l 0 -174 l 0 0 l 521 0 z "},"᷄":{"ha":0,"x_min":0,"x_max":694,"o":"m 694 868 l 521 868 l 521 1042 l 694 1042 l 694 868 m 521 868 l 521 694 l 0 694 l 0 868 l 521 868 z "},"᷅":{"ha":0,"x_min":0,"x_max":694,"o":"m 0 868 l 0 1042 l 174 1042 l 174 868 l 0 868 m 174 868 l 694 868 l 694 694 l 174 694 l 174 868 z "},"᷆":{"ha":0,"x_min":0,"x_max":694,"o":"m 0 694 l 0 868 l 521 868 l 521 694 l 0 694 m 521 521 l 521 694 l 694 694 l 694 521 l 521 521 z "},"᷇":{"ha":0,"x_min":0,"x_max":694,"o":"m 174 694 l 174 868 l 694 868 l 694 694 l 174 694 m 0 521 l 0 694 l 174 694 l 174 521 l 0 521 z "},"᷊":{"ha":0,"x_min":0,"x_max":347,"o":"m 174 -174 l 174 -521 l 0 -521 l 0 0 l 347 0 l 347 -174 l 174 -174 z "},"Ḁ":{"ha":868,"x_min":0,"x_max":694,"o":"m 521 -174 l 347 -174 l 347 0 l 521 0 l 521 -174 m 347 -174 l 347 -347 l 174 -347 l 174 -174 l 347 -174 m 521 -347 l 521 -174 l 694 -174 l 694 -347 l 521 -347 m 347 -521 l 347 -347 l 521 -347 l 521 -521 l 347 -521 m 174 694 l 174 868 l 521 868 l 521 694 l 174 694 m 174 0 l 0 0 l 0 694 l 174 694 l 174 521 l 521 521 l 521 694 l 694 694 l 694 0 l 521 0 l 521 347 l 174 347 l 174 0 z "},"ḁ":{"ha":694,"x_min":0,"x_max":521,"o":"m 347 -174 l 174 -174 l 174 0 l 347 0 l 347 -174 m 174 -174 l 174 -347 l 0 -347 l 0 -174 l 174 -174 m 347 -347 l 347 -174 l 521 -174 l 521 -347 l 347 -347 m 174 -521 l 174 -347 l 347 -347 l 347 -521 l 174 -521 m 174 0 l 174 174 l 0 174 l 0 521 l 174 521 l 174 174 l 347 174 l 347 521 l 174 521 l 174 694 l 521 694 l 521 0 l 174 0 z "},"Ḃ":{"ha":868,"x_min":0,"x_max":694,"o":"m 347 1042 l 347 1215 l 521 1215 l 521 1042 l 347 1042 m 174 174 l 521 174 l 521 0 l 0 0 l 0 868 l 521 868 l 521 694 l 174 694 l 174 521 l 521 521 l 521 347 l 174 347 l 174 174 m 694 521 l 521 521 l 521 694 l 694 694 l 694 521 m 694 174 l 521 174 l 521 347 l 694 347 l 694 174 z "},"ḃ":{"ha":694,"x_min":0,"x_max":521,"o":"m 174 1042 l 174 1215 l 347 1215 l 347 1042 l 174 1042 m 174 174 l 347 174 l 347 0 l 0 0 l 0 868 l 174 868 l 174 694 l 347 694 l 347 521 l 174 521 l 174 174 m 347 174 l 347 521 l 521 521 l 521 174 l 347 174 z "},"Ḅ":{"ha":868,"x_min":0,"x_max":694,"o":"m 347 -347 l 347 -174 l 521 -174 l 521 -347 l 347 -347 m 174 174 l 521 174 l 521 0 l 0 0 l 0 868 l 521 868 l 521 694 l 174 694 l 174 521 l 521 521 l 521 347 l 174 347 l 174 174 m 694 521 l 521 521 l 521 694 l 694 694 l 694 521 m 694 174 l 521 174 l 521 347 l 694 347 l 694 174 z "},"ḅ":{"ha":694,"x_min":0,"x_max":521,"o":"m 174 -347 l 174 -174 l 347 -174 l 347 -347 l 174 -347 m 174 174 l 347 174 l 347 0 l 0 0 l 0 868 l 174 868 l 174 694 l 347 694 l 347 521 l 174 521 l 174 174 m 347 174 l 347 521 l 521 521 l 521 174 l 347 174 z "},"Ḇ":{"ha":868,"x_min":0,"x_max":694,"o":"m 174 174 l 521 174 l 521 0 l 0 0 l 0 868 l 521 868 l 521 694 l 174 694 l 174 521 l 521 521 l 521 347 l 174 347 l 174 174 m 694 521 l 521 521 l 521 694 l 694 694 l 694 521 m 694 174 l 521 174 l 521 347 l 694 347 l 694 174 m 0 -347 l 0 -174 l 694 -174 l 694 -347 l 0 -347 z "},"ḇ":{"ha":694,"x_min":0,"x_max":521,"o":"m 0 -347 l 0 -174 l 521 -174 l 521 -347 l 0 -347 m 174 174 l 347 174 l 347 0 l 0 0 l 0 868 l 174 868 l 174 694 l 347 694 l 347 521 l 174 521 l 174 174 m 347 174 l 347 521 l 521 521 l 521 174 l 347 174 z "},"Ḉ":{"ha":868,"x_min":0,"x_max":694,"o":"m 347 1215 l 347 1389 l 521 1389 l 521 1215 l 347 1215 m 174 1042 l 174 1215 l 347 1215 l 347 1042 l 174 1042 m 347 -174 l 347 0 l 521 0 l 521 -174 l 347 -174 m 174 694 l 174 868 l 521 868 l 521 694 l 174 694 m 174 174 l 0 174 l 0 694 l 174 694 l 174 174 m 521 521 l 521 694 l 694 694 l 694 521 l 521 521 m 694 174 l 521 174 l 521 347 l 694 347 l 694 174 m 521 174 l 521 0 l 174 0 l 174 174 l 521 174 z "},"ḉ":{"ha":694,"x_min":0,"x_max":521,"o":"m 347 1042 l 347 1215 l 521 1215 l 521 1042 l 347 1042 m 174 868 l 174 1042 l 347 1042 l 347 868 l 174 868 m 174 -174 l 174 0 l 347 0 l 347 -174 l 174 -174 m 174 521 l 174 694 l 521 694 l 521 521 l 174 521 m 174 174 l 0 174 l 0 521 l 174 521 l 174 174 m 174 0 l 174 174 l 521 174 l 521 0 l 174 0 z "},"Ḋ":{"ha":868,"x_min":0,"x_max":694,"o":"m 347 1042 l 347 1215 l 521 1215 l 521 1042 l 347 1042 m 174 174 l 521 174 l 521 0 l 0 0 l 0 868 l 521 868 l 521 694 l 174 694 l 174 174 m 694 174 l 521 174 l 521 694 l 694 694 l 694 174 z "},"ḋ":{"ha":694,"x_min":0,"x_max":521,"o":"m 174 1042 l 174 1215 l 347 1215 l 347 1042 l 174 1042 m 174 0 l 174 174 l 0 174 l 0 521 l 174 521 l 174 174 l 347 174 l 347 521 l 174 521 l 174 694 l 347 694 l 347 868 l 521 868 l 521 0 l 174 0 z "},"Ḍ":{"ha":868,"x_min":0,"x_max":694,"o":"m 347 -347 l 347 -174 l 521 -174 l 521 -347 l 347 -347 m 174 174 l 521 174 l 521 0 l 0 0 l 0 868 l 521 868 l 521 694 l 174 694 l 174 174 m 694 174 l 521 174 l 521 694 l 694 694 l 694 174 z "},"ḍ":{"ha":694,"x_min":0,"x_max":521,"o":"m 174 -347 l 174 -174 l 347 -174 l 347 -347 l 174 -347 m 174 0 l 174 174 l 0 174 l 0 521 l 174 521 l 174 174 l 347 174 l 347 521 l 174 521 l 174 694 l 347 694 l 347 868 l 521 868 l 521 0 l 174 0 z "},"Ḏ":{"ha":868,"x_min":0,"x_max":694,"o":"m 174 174 l 521 174 l 521 0 l 0 0 l 0 868 l 521 868 l 521 694 l 174 694 l 174 174 m 694 174 l 521 174 l 521 694 l 694 694 l 694 174 m 0 -347 l 0 -174 l 694 -174 l 694 -347 l 0 -347 z "},"ḏ":{"ha":694,"x_min":0,"x_max":521,"o":"m 0 -347 l 0 -174 l 521 -174 l 521 -347 l 0 -347 m 174 0 l 174 174 l 0 174 l 0 521 l 174 521 l 174 174 l 347 174 l 347 521 l 174 521 l 174 694 l 347 694 l 347 868 l 521 868 l 521 0 l 174 0 z "},"Ḑ":{"ha":868,"x_min":0,"x_max":694,"o":"m 174 -174 l 174 0 l 347 0 l 347 -174 l 174 -174 m 174 174 l 521 174 l 521 0 l 0 0 l 0 868 l 521 868 l 521 694 l 174 694 l 174 174 m 694 174 l 521 174 l 521 694 l 694 694 l 694 174 z "},"ḑ":{"ha":694,"x_min":0,"x_max":521,"o":"m 174 -174 l 174 0 l 347 0 l 347 -174 l 174 -174 m 174 0 l 174 174 l 0 174 l 0 521 l 174 521 l 174 174 l 347 174 l 347 521 l 174 521 l 174 694 l 347 694 l 347 868 l 521 868 l 521 0 l 174 0 z "},"Ḓ":{"ha":868,"x_min":0,"x_max":694,"o":"m 174 174 l 521 174 l 521 0 l 0 0 l 0 868 l 521 868 l 521 694 l 174 694 l 174 174 m 694 174 l 521 174 l 521 694 l 694 694 l 694 174 m 174 -347 l 174 -174 l 521 -174 l 521 -347 l 174 -347 m 0 -521 l 0 -347 l 174 -347 l 174 -521 l 0 -521 m 521 -521 l 521 -347 l 694 -347 l 694 -521 l 521 -521 z "},"ḓ":{"ha":694,"x_min":0,"x_max":521,"o":"m 174 -347 l 174 -174 l 347 -174 l 347 -347 l 174 -347 m 347 -347 l 521 -347 l 521 -521 l 347 -521 l 347 -347 m 0 -521 l 0 -347 l 174 -347 l 174 -521 l 0 -521 m 174 0 l 174 174 l 0 174 l 0 521 l 174 521 l 174 174 l 347 174 l 347 521 l 174 521 l 174 694 l 347 694 l 347 868 l 521 868 l 521 0 l 174 0 z "},"Ḕ":{"ha":868,"x_min":0,"x_max":694,"o":"m 174 1563 l 174 1736 l 347 1736 l 347 1563 l 174 1563 m 347 1389 l 347 1563 l 521 1563 l 521 1389 l 347 1389 m 0 1042 l 0 1215 l 694 1215 l 694 1042 l 0 1042 m 694 174 l 694 0 l 0 0 l 0 868 l 694 868 l 694 694 l 174 694 l 174 521 l 521 521 l 521 347 l 174 347 l 174 174 l 694 174 z "},"ḕ":{"ha":694,"x_min":0,"x_max":521,"o":"m 0 1389 l 0 1563 l 174 1563 l 174 1389 l 0 1389 m 174 1215 l 174 1389 l 347 1389 l 347 1215 l 174 1215 m 0 868 l 0 1042 l 521 1042 l 521 868 l 0 868 m 174 174 l 0 174 l 0 521 l 174 521 l 174 694 l 347 694 l 347 521 l 521 521 l 521 347 l 174 347 l 174 174 m 174 0 l 174 174 l 521 174 l 521 0 l 174 0 z "},"Ḗ":{"ha":868,"x_min":0,"x_max":694,"o":"m 347 1563 l 347 1736 l 521 1736 l 521 1563 l 347 1563 m 174 1389 l 174 1563 l 347 1563 l 347 1389 l 174 1389 m 0 1042 l 0 1215 l 694 1215 l 694 1042 l 0 1042 m 694 174 l 694 0 l 0 0 l 0 868 l 694 868 l 694 694 l 174 694 l 174 521 l 521 521 l 521 347 l 174 347 l 174 174 l 694 174 z "},"ḗ":{"ha":694,"x_min":0,"x_max":521,"o":"m 347 1389 l 347 1563 l 521 1563 l 521 1389 l 347 1389 m 174 1215 l 174 1389 l 347 1389 l 347 1215 l 174 1215 m 0 868 l 0 1042 l 521 1042 l 521 868 l 0 868 m 174 174 l 0 174 l 0 521 l 174 521 l 174 694 l 347 694 l 347 521 l 521 521 l 521 347 l 174 347 l 174 174 m 174 0 l 174 174 l 521 174 l 521 0 l 174 0 z "},"Ḙ":{"ha":868,"x_min":0,"x_max":694,"o":"m 694 174 l 694 0 l 0 0 l 0 868 l 694 868 l 694 694 l 174 694 l 174 521 l 521 521 l 521 347 l 174 347 l 174 174 l 694 174 m 174 -347 l 174 -174 l 521 -174 l 521 -347 l 174 -347 m 0 -521 l 0 -347 l 174 -347 l 174 -521 l 0 -521 m 521 -521 l 521 -347 l 694 -347 l 694 -521 l 521 -521 z "},"ḙ":{"ha":694,"x_min":0,"x_max":521,"o":"m 174 -347 l 174 -174 l 347 -174 l 347 -347 l 174 -347 m 347 -347 l 521 -347 l 521 -521 l 347 -521 l 347 -347 m 0 -521 l 0 -347 l 174 -347 l 174 -521 l 0 -521 m 174 174 l 0 174 l 0 521 l 174 521 l 174 694 l 347 694 l 347 521 l 521 521 l 521 347 l 174 347 l 174 174 m 174 0 l 174 174 l 521 174 l 521 0 l 174 0 z "},"Ḛ":{"ha":868,"x_min":0,"x_max":694,"o":"m 174 -347 l 174 -174 l 521 -174 l 521 -347 l 174 -347 m 694 174 l 694 0 l 0 0 l 0 868 l 694 868 l 694 694 l 174 694 l 174 521 l 521 521 l 521 347 l 174 347 l 174 174 l 694 174 z "},"ḛ":{"ha":694,"x_min":0,"x_max":521,"o":"m 174 -347 l 174 -174 l 521 -174 l 521 -347 l 174 -347 m 174 174 l 0 174 l 0 521 l 174 521 l 174 694 l 347 694 l 347 521 l 521 521 l 521 347 l 174 347 l 174 174 m 174 0 l 174 174 l 521 174 l 521 0 l 174 0 z "},"Ḝ":{"ha":868,"x_min":0,"x_max":694,"o":"m 0 1389 l 174 1389 l 174 1215 l 0 1215 l 0 1389 m 521 1389 l 694 1389 l 694 1215 l 521 1215 l 521 1389 m 174 1215 l 521 1215 l 521 1042 l 174 1042 l 174 1215 m 174 -174 l 174 0 l 0 0 l 0 868 l 694 868 l 694 694 l 174 694 l 174 521 l 521 521 l 521 347 l 174 347 l 174 174 l 694 174 l 694 0 l 347 0 l 347 -174 l 174 -174 z "},"ḝ":{"ha":694,"x_min":0,"x_max":521,"o":"m 0 1042 l 0 1215 l 174 1215 l 174 1042 l 0 1042 m 347 1042 l 347 1215 l 521 1215 l 521 1042 l 347 1042 m 174 868 l 174 1042 l 347 1042 l 347 868 l 174 868 m 174 -174 l 174 0 l 347 0 l 347 -174 l 174 -174 m 174 174 l 0 174 l 0 521 l 174 521 l 174 694 l 347 694 l 347 521 l 521 521 l 521 347 l 174 347 l 174 174 m 174 0 l 174 174 l 521 174 l 521 0 l 174 0 z "},"Ḟ":{"ha":868,"x_min":0,"x_max":694,"o":"m 347 1042 l 347 1215 l 521 1215 l 521 1042 l 347 1042 m 174 0 l 0 0 l 0 868 l 694 868 l 694 694 l 174 694 l 174 521 l 521 521 l 521 347 l 174 347 l 174 0 z "},"ḟ":{"ha":521,"x_min":0,"x_max":347,"o":"m 174 1042 l 174 1215 l 347 1215 l 347 1042 l 174 1042 m 174 694 l 174 868 l 347 868 l 347 694 l 174 694 m 174 0 l 0 0 l 0 694 l 174 694 l 174 521 l 347 521 l 347 347 l 174 347 l 174 0 z "},"Ḡ":{"ha":868,"x_min":0,"x_max":694,"o":"m 0 1042 l 0 1215 l 694 1215 l 694 1042 l 0 1042 m 174 694 l 174 868 l 694 868 l 694 694 l 174 694 m 174 0 l 174 174 l 0 174 l 0 694 l 174 694 l 174 174 l 521 174 l 521 347 l 347 347 l 347 521 l 694 521 l 694 0 l 174 0 z "},"ḡ":{"ha":694,"x_min":0,"x_max":521,"o":"m 0 868 l 0 1042 l 521 1042 l 521 868 l 0 868 m 0 0 l 174 0 l 174 174 l 0 174 l 0 521 l 174 521 l 174 174 l 347 174 l 347 521 l 174 521 l 174 694 l 521 694 l 521 0 l 347 0 l 347 -174 l 0 -174 l 0 0 z "},"Ḣ":{"ha":868,"x_min":0,"x_max":694,"o":"m 347 1042 l 347 1215 l 521 1215 l 521 1042 l 347 1042 m 174 0 l 0 0 l 0 868 l 174 868 l 174 521 l 521 521 l 521 868 l 694 868 l 694 0 l 521 0 l 521 347 l 174 347 l 174 0 z "},"ḣ":{"ha":694,"x_min":0,"x_max":521,"o":"m 174 1042 l 174 1215 l 347 1215 l 347 1042 l 174 1042 m 174 0 l 0 0 l 0 868 l 174 868 l 174 694 l 347 694 l 347 521 l 174 521 l 174 0 m 521 0 l 347 0 l 347 521 l 521 521 l 521 0 z "},"Ḥ":{"ha":868,"x_min":0,"x_max":694,"o":"m 347 -347 l 347 -174 l 521 -174 l 521 -347 l 347 -347 m 174 0 l 0 0 l 0 868 l 174 868 l 174 521 l 521 521 l 521 868 l 694 868 l 694 0 l 521 0 l 521 347 l 174 347 l 174 0 z "},"ḥ":{"ha":694,"x_min":0,"x_max":521,"o":"m 174 -347 l 174 -174 l 347 -174 l 347 -347 l 174 -347 m 174 0 l 0 0 l 0 868 l 174 868 l 174 694 l 347 694 l 347 521 l 174 521 l 174 0 m 521 0 l 347 0 l 347 521 l 521 521 l 521 0 z "},"Ḧ":{"ha":868,"x_min":0,"x_max":694,"o":"m 0 1042 l 0 1215 l 174 1215 l 174 1042 l 0 1042 m 521 1042 l 521 1215 l 694 1215 l 694 1042 l 521 1042 m 174 0 l 0 0 l 0 868 l 174 868 l 174 521 l 521 521 l 521 868 l 694 868 l 694 0 l 521 0 l 521 347 l 174 347 l 174 0 z "},"ḧ":{"ha":694,"x_min":0,"x_max":521,"o":"m 0 1042 l 0 1215 l 174 1215 l 174 1042 l 0 1042 m 347 1042 l 347 1215 l 521 1215 l 521 1042 l 347 1042 m 174 0 l 0 0 l 0 868 l 174 868 l 174 694 l 347 694 l 347 521 l 174 521 l 174 0 m 521 0 l 347 0 l 347 521 l 521 521 l 521 0 z "},"Ḩ":{"ha":868,"x_min":0,"x_max":694,"o":"m 174 -174 l 174 0 l 347 0 l 347 -174 l 174 -174 m 174 0 l 0 0 l 0 868 l 174 868 l 174 521 l 521 521 l 521 868 l 694 868 l 694 0 l 521 0 l 521 347 l 174 347 l 174 0 z "},"ḩ":{"ha":694,"x_min":0,"x_max":521,"o":"m 174 -174 l 174 0 l 347 0 l 347 -174 l 174 -174 m 174 0 l 0 0 l 0 868 l 174 868 l 174 694 l 347 694 l 347 521 l 174 521 l 174 0 m 521 0 l 347 0 l 347 521 l 521 521 l 521 0 z "},"Ḫ":{"ha":868,"x_min":0,"x_max":694,"o":"m 174 0 l 0 0 l 0 868 l 174 868 l 174 521 l 521 521 l 521 868 l 694 868 l 694 0 l 521 0 l 521 347 l 174 347 l 174 0 m 0 -174 l 174 -174 l 174 -347 l 0 -347 l 0 -174 m 521 -174 l 694 -174 l 694 -347 l 521 -347 l 521 -174 m 174 -347 l 521 -347 l 521 -521 l 174 -521 l 174 -347 z "},"ḫ":{"ha":694,"x_min":0,"x_max":521,"o":"m 347 -347 l 347 -174 l 521 -174 l 521 -347 l 347 -347 m 0 -174 l 174 -174 l 174 -347 l 0 -347 l 0 -174 m 174 -347 l 347 -347 l 347 -521 l 174 -521 l 174 -347 m 174 0 l 0 0 l 0 868 l 174 868 l 174 694 l 347 694 l 347 521 l 174 521 l 174 0 m 521 0 l 347 0 l 347 521 l 521 521 l 521 0 z "},"Ḭ":{"ha":347,"x_min":0,"x_max":347,"o":"m 0 -347 l 0 -174 l 347 -174 l 347 -347 l 0 -347 m 174 0 l 0 0 l 0 868 l 174 868 l 174 0 z "},"ḭ":{"ha":347,"x_min":0,"x_max":347,"o":"m 0 -347 l 0 -174 l 347 -174 l 347 -347 l 0 -347 m 0 868 l 0 1042 l 174 1042 l 174 868 l 0 868 m 174 0 l 0 0 l 0 694 l 174 694 l 174 0 z "},"Ḯ":{"ha":347,"x_min":-174,"x_max":347,"o":"m 174 1563 l 174 1736 l 347 1736 l 347 1563 l 174 1563 m 0 1389 l 0 1563 l 174 1563 l 174 1389 l 0 1389 m -174 1042 l -174 1215 l 0 1215 l 0 1042 l -174 1042 m 174 1042 l 174 1215 l 347 1215 l 347 1042 l 174 1042 m 174 0 l 0 0 l 0 868 l 174 868 l 174 0 z "},"ḯ":{"ha":347,"x_min":-174,"x_max":347,"o":"m 174 1389 l 174 1563 l 347 1563 l 347 1389 l 174 1389 m 0 1215 l 0 1389 l 174 1389 l 174 1215 l 0 1215 m -174 868 l -174 1042 l 0 1042 l 0 868 l -174 868 m 174 868 l 174 1042 l 347 1042 l 347 868 l 174 868 m 174 0 l 0 0 l 0 694 l 174 694 l 174 0 z "},"Ḱ":{"ha":868,"x_min":0,"x_max":694,"o":"m 347 1215 l 347 1389 l 521 1389 l 521 1215 l 347 1215 m 174 1042 l 174 1215 l 347 1215 l 347 1042 l 174 1042 m 174 0 l 0 0 l 0 868 l 174 868 l 174 521 l 347 521 l 347 347 l 174 347 l 174 0 m 521 694 l 521 868 l 694 868 l 694 694 l 521 694 m 347 521 l 347 694 l 521 694 l 521 521 l 347 521 m 521 174 l 347 174 l 347 347 l 521 347 l 521 174 m 521 0 l 521 174 l 694 174 l 694 0 l 521 0 z "},"ḱ":{"ha":694,"x_min":0,"x_max":521,"o":"m 347 1215 l 347 1389 l 521 1389 l 521 1215 l 347 1215 m 174 1042 l 174 1215 l 347 1215 l 347 1042 l 174 1042 m 174 0 l 0 0 l 0 868 l 174 868 l 174 521 l 347 521 l 347 347 l 174 347 l 174 0 m 347 521 l 347 694 l 521 694 l 521 521 l 347 521 m 521 0 l 347 0 l 347 347 l 521 347 l 521 0 z "},"Ḳ":{"ha":868,"x_min":0,"x_max":694,"o":"m 347 -347 l 347 -174 l 521 -174 l 521 -347 l 347 -347 m 174 0 l 0 0 l 0 868 l 174 868 l 174 521 l 347 521 l 347 347 l 174 347 l 174 0 m 521 694 l 521 868 l 694 868 l 694 694 l 521 694 m 347 521 l 347 694 l 521 694 l 521 521 l 347 521 m 521 174 l 347 174 l 347 347 l 521 347 l 521 174 m 521 0 l 521 174 l 694 174 l 694 0 l 521 0 z "},"ḳ":{"ha":694,"x_min":0,"x_max":521,"o":"m 174 -347 l 174 -174 l 347 -174 l 347 -347 l 174 -347 m 174 0 l 0 0 l 0 868 l 174 868 l 174 521 l 347 521 l 347 347 l 174 347 l 174 0 m 347 521 l 347 694 l 521 694 l 521 521 l 347 521 m 521 0 l 347 0 l 347 347 l 521 347 l 521 0 z "},"Ḵ":{"ha":868,"x_min":0,"x_max":694,"o":"m 174 0 l 0 0 l 0 868 l 174 868 l 174 521 l 347 521 l 347 347 l 174 347 l 174 0 m 521 694 l 521 868 l 694 868 l 694 694 l 521 694 m 347 521 l 347 694 l 521 694 l 521 521 l 347 521 m 521 174 l 347 174 l 347 347 l 521 347 l 521 174 m 521 0 l 521 174 l 694 174 l 694 0 l 521 0 m 0 -347 l 0 -174 l 694 -174 l 694 -347 l 0 -347 z "},"ḵ":{"ha":694,"x_min":0,"x_max":521,"o":"m 0 -347 l 0 -174 l 521 -174 l 521 -347 l 0 -347 m 174 0 l 0 0 l 0 868 l 174 868 l 174 521 l 347 521 l 347 347 l 174 347 l 174 0 m 347 521 l 347 694 l 521 694 l 521 521 l 347 521 m 521 0 l 347 0 l 347 347 l 521 347 l 521 0 z "},"Ḷ":{"ha":694,"x_min":0,"x_max":521,"o":"m 174 -347 l 174 -174 l 347 -174 l 347 -347 l 174 -347 m 521 174 l 521 0 l 0 0 l 0 868 l 174 868 l 174 174 l 521 174 z "},"ḷ":{"ha":347,"x_min":0,"x_max":174,"o":"m 0 -347 l 0 -174 l 174 -174 l 174 -347 l 0 -347 m 174 0 l 0 0 l 0 868 l 174 868 l 174 0 z "},"Ḹ":{"ha":694,"x_min":0,"x_max":521,"o":"m 0 1042 l 0 1215 l 521 1215 l 521 1042 l 0 1042 m 174 -347 l 174 -174 l 347 -174 l 347 -347 l 174 -347 m 521 174 l 521 0 l 0 0 l 0 868 l 174 868 l 174 174 l 521 174 z "},"ḹ":{"ha":347,"x_min":-174,"x_max":347,"o":"m -174 1042 l -174 1215 l 347 1215 l 347 1042 l -174 1042 m 0 -347 l 0 -174 l 174 -174 l 174 -347 l 0 -347 m 174 0 l 0 0 l 0 868 l 174 868 l 174 0 z "},"Ḻ":{"ha":694,"x_min":0,"x_max":521,"o":"m 0 -347 l 0 -174 l 521 -174 l 521 -347 l 0 -347 m 521 174 l 521 0 l 0 0 l 0 868 l 174 868 l 174 174 l 521 174 z "},"ḻ":{"ha":347,"x_min":-174,"x_max":347,"o":"m -174 -347 l -174 -174 l 347 -174 l 347 -347 l -174 -347 m 174 0 l 0 0 l 0 868 l 174 868 l 174 0 z "},"Ḽ":{"ha":694,"x_min":0,"x_max":521,"o":"m 174 -347 l 174 -174 l 347 -174 l 347 -347 l 174 -347 m 347 -347 l 521 -347 l 521 -521 l 347 -521 l 347 -347 m 0 -521 l 0 -347 l 174 -347 l 174 -521 l 0 -521 m 521 174 l 521 0 l 0 0 l 0 868 l 174 868 l 174 174 l 521 174 z "},"ḽ":{"ha":347,"x_min":-174,"x_max":347,"o":"m 0 -347 l 0 -174 l 174 -174 l 174 -347 l 0 -347 m 174 -347 l 347 -347 l 347 -521 l 174 -521 l 174 -347 m -174 -521 l -174 -347 l 0 -347 l 0 -521 l -174 -521 m 174 0 l 0 0 l 0 868 l 174 868 l 174 0 z "},"Ḿ":{"ha":1042,"x_min":0,"x_max":868,"o":"m 521 1215 l 521 1389 l 694 1389 l 694 1215 l 521 1215 m 347 1042 l 347 1215 l 521 1215 l 521 1042 l 347 1042 m 174 0 l 0 0 l 0 868 l 174 868 l 174 694 l 347 694 l 347 521 l 174 521 l 174 0 m 868 0 l 694 0 l 694 521 l 521 521 l 521 694 l 694 694 l 694 868 l 868 868 l 868 0 m 347 347 l 347 521 l 521 521 l 521 347 l 347 347 z "},"ḿ":{"ha":1042,"x_min":0,"x_max":868,"o":"m 521 1042 l 521 1215 l 694 1215 l 694 1042 l 521 1042 m 347 868 l 347 1042 l 521 1042 l 521 868 l 347 868 m 174 0 l 0 0 l 0 694 l 694 694 l 694 521 l 521 521 l 521 0 l 347 0 l 347 521 l 174 521 l 174 0 m 868 0 l 694 0 l 694 521 l 868 521 l 868 0 z "},"Ṁ":{"ha":1042,"x_min":0,"x_max":868,"o":"m 347 1042 l 347 1215 l 521 1215 l 521 1042 l 347 1042 m 174 0 l 0 0 l 0 868 l 174 868 l 174 694 l 347 694 l 347 521 l 174 521 l 174 0 m 868 0 l 694 0 l 694 521 l 521 521 l 521 694 l 694 694 l 694 868 l 868 868 l 868 0 m 347 347 l 347 521 l 521 521 l 521 347 l 347 347 z "},"ṁ":{"ha":1042,"x_min":0,"x_max":868,"o":"m 347 868 l 347 1042 l 521 1042 l 521 868 l 347 868 m 174 0 l 0 0 l 0 694 l 694 694 l 694 521 l 521 521 l 521 0 l 347 0 l 347 521 l 174 521 l 174 0 m 868 0 l 694 0 l 694 521 l 868 521 l 868 0 z "},"Ṃ":{"ha":1042,"x_min":0,"x_max":868,"o":"m 347 -347 l 347 -174 l 521 -174 l 521 -347 l 347 -347 m 174 0 l 0 0 l 0 868 l 174 868 l 174 694 l 347 694 l 347 521 l 174 521 l 174 0 m 868 0 l 694 0 l 694 521 l 521 521 l 521 694 l 694 694 l 694 868 l 868 868 l 868 0 m 347 347 l 347 521 l 521 521 l 521 347 l 347 347 z "},"ṃ":{"ha":1042,"x_min":0,"x_max":868,"o":"m 347 -347 l 347 -174 l 521 -174 l 521 -347 l 347 -347 m 174 0 l 0 0 l 0 694 l 694 694 l 694 521 l 521 521 l 521 0 l 347 0 l 347 521 l 174 521 l 174 0 m 868 0 l 694 0 l 694 521 l 868 521 l 868 0 z "},"Ṅ":{"ha":868,"x_min":0,"x_max":694,"o":"m 347 1042 l 347 1215 l 521 1215 l 521 1042 l 347 1042 m 174 0 l 0 0 l 0 868 l 174 868 l 174 694 l 347 694 l 347 521 l 174 521 l 174 0 m 694 0 l 521 0 l 521 347 l 347 347 l 347 521 l 521 521 l 521 868 l 694 868 l 694 0 z "},"ṅ":{"ha":694,"x_min":0,"x_max":521,"o":"m 174 868 l 174 1042 l 347 1042 l 347 868 l 174 868 m 174 0 l 0 0 l 0 694 l 347 694 l 347 521 l 174 521 l 174 0 m 521 0 l 347 0 l 347 521 l 521 521 l 521 0 z "},"Ṇ":{"ha":868,"x_min":0,"x_max":694,"o":"m 347 -347 l 347 -174 l 521 -174 l 521 -347 l 347 -347 m 174 0 l 0 0 l 0 868 l 174 868 l 174 694 l 347 694 l 347 521 l 174 521 l 174 0 m 694 0 l 521 0 l 521 347 l 347 347 l 347 521 l 521 521 l 521 868 l 694 868 l 694 0 z "},"ṇ":{"ha":694,"x_min":0,"x_max":521,"o":"m 174 -347 l 174 -174 l 347 -174 l 347 -347 l 174 -347 m 174 0 l 0 0 l 0 694 l 347 694 l 347 521 l 174 521 l 174 0 m 521 0 l 347 0 l 347 521 l 521 521 l 521 0 z "},"Ṉ":{"ha":868,"x_min":0,"x_max":694,"o":"m 174 0 l 0 0 l 0 868 l 174 868 l 174 694 l 347 694 l 347 521 l 174 521 l 174 0 m 694 0 l 521 0 l 521 347 l 347 347 l 347 521 l 521 521 l 521 868 l 694 868 l 694 0 m 0 -347 l 0 -174 l 694 -174 l 694 -347 l 0 -347 z "},"ṉ":{"ha":694,"x_min":0,"x_max":521,"o":"m 0 -347 l 0 -174 l 521 -174 l 521 -347 l 0 -347 m 174 0 l 0 0 l 0 694 l 347 694 l 347 521 l 174 521 l 174 0 m 521 0 l 347 0 l 347 521 l 521 521 l 521 0 z "},"Ṋ":{"ha":868,"x_min":0,"x_max":694,"o":"m 174 0 l 0 0 l 0 868 l 174 868 l 174 694 l 347 694 l 347 521 l 174 521 l 174 0 m 694 0 l 521 0 l 521 347 l 347 347 l 347 521 l 521 521 l 521 868 l 694 868 l 694 0 m 174 -347 l 174 -174 l 521 -174 l 521 -347 l 174 -347 m 0 -521 l 0 -347 l 174 -347 l 174 -521 l 0 -521 m 521 -521 l 521 -347 l 694 -347 l 694 -521 l 521 -521 z "},"ṋ":{"ha":694,"x_min":0,"x_max":521,"o":"m 174 -347 l 174 -174 l 347 -174 l 347 -347 l 174 -347 m 347 -347 l 521 -347 l 521 -521 l 347 -521 l 347 -347 m 0 -521 l 0 -347 l 174 -347 l 174 -521 l 0 -521 m 174 0 l 0 0 l 0 694 l 347 694 l 347 521 l 174 521 l 174 0 m 521 0 l 347 0 l 347 521 l 521 521 l 521 0 z "},"Ṍ":{"ha":868,"x_min":0,"x_max":694,"o":"m 347 1563 l 347 1736 l 521 1736 l 521 1563 l 347 1563 m 174 1389 l 174 1563 l 347 1563 l 347 1389 l 174 1389 m 174 1042 l 174 1215 l 521 1215 l 521 1042 l 174 1042 m 174 694 l 174 868 l 521 868 l 521 694 l 174 694 m 174 174 l 0 174 l 0 694 l 174 694 l 174 174 m 694 174 l 521 174 l 521 694 l 694 694 l 694 174 m 521 174 l 521 0 l 174 0 l 174 174 l 521 174 z "},"ṍ":{"ha":694,"x_min":0,"x_max":521,"o":"m 347 1389 l 347 1563 l 521 1563 l 521 1389 l 347 1389 m 174 1215 l 174 1389 l 347 1389 l 347 1215 l 174 1215 m 174 868 l 174 1042 l 521 1042 l 521 868 l 174 868 m 174 521 l 174 694 l 347 694 l 347 521 l 174 521 m 174 174 l 0 174 l 0 521 l 174 521 l 174 174 m 521 174 l 347 174 l 347 521 l 521 521 l 521 174 m 347 174 l 347 0 l 174 0 l 174 174 l 347 174 z "},"Ṏ":{"ha":868,"x_min":0,"x_max":694,"o":"m 0 1389 l 0 1563 l 174 1563 l 174 1389 l 0 1389 m 521 1389 l 521 1563 l 694 1563 l 694 1389 l 521 1389 m 174 1042 l 174 1215 l 521 1215 l 521 1042 l 174 1042 m 174 694 l 174 868 l 521 868 l 521 694 l 174 694 m 174 174 l 0 174 l 0 694 l 174 694 l 174 174 m 694 174 l 521 174 l 521 694 l 694 694 l 694 174 m 521 174 l 521 0 l 174 0 l 174 174 l 521 174 z "},"ṏ":{"ha":694,"x_min":0,"x_max":521,"o":"m 0 1215 l 0 1389 l 174 1389 l 174 1215 l 0 1215 m 347 1215 l 347 1389 l 521 1389 l 521 1215 l 347 1215 m 174 868 l 174 1042 l 521 1042 l 521 868 l 174 868 m 174 521 l 174 694 l 347 694 l 347 521 l 174 521 m 174 174 l 0 174 l 0 521 l 174 521 l 174 174 m 521 174 l 347 174 l 347 521 l 521 521 l 521 174 m 347 174 l 347 0 l 174 0 l 174 174 l 347 174 z "},"Ṑ":{"ha":868,"x_min":0,"x_max":694,"o":"m 174 1563 l 174 1736 l 347 1736 l 347 1563 l 174 1563 m 347 1389 l 347 1563 l 521 1563 l 521 1389 l 347 1389 m 0 1042 l 0 1215 l 694 1215 l 694 1042 l 0 1042 m 174 694 l 174 868 l 521 868 l 521 694 l 174 694 m 174 174 l 0 174 l 0 694 l 174 694 l 174 174 m 694 174 l 521 174 l 521 694 l 694 694 l 694 174 m 521 174 l 521 0 l 174 0 l 174 174 l 521 174 z "},"ṑ":{"ha":694,"x_min":0,"x_max":521,"o":"m 0 1389 l 0 1563 l 174 1563 l 174 1389 l 0 1389 m 174 1215 l 174 1389 l 347 1389 l 347 1215 l 174 1215 m 0 868 l 0 1042 l 521 1042 l 521 868 l 0 868 m 174 521 l 174 694 l 347 694 l 347 521 l 174 521 m 174 174 l 0 174 l 0 521 l 174 521 l 174 174 m 521 174 l 347 174 l 347 521 l 521 521 l 521 174 m 347 174 l 347 0 l 174 0 l 174 174 l 347 174 z "},"Ṓ":{"ha":868,"x_min":0,"x_max":694,"o":"m 347 1563 l 347 1736 l 521 1736 l 521 1563 l 347 1563 m 174 1389 l 174 1563 l 347 1563 l 347 1389 l 174 1389 m 0 1042 l 0 1215 l 694 1215 l 694 1042 l 0 1042 m 174 694 l 174 868 l 521 868 l 521 694 l 174 694 m 174 174 l 0 174 l 0 694 l 174 694 l 174 174 m 694 174 l 521 174 l 521 694 l 694 694 l 694 174 m 521 174 l 521 0 l 174 0 l 174 174 l 521 174 z "},"ṓ":{"ha":694,"x_min":0,"x_max":521,"o":"m 347 1389 l 347 1563 l 521 1563 l 521 1389 l 347 1389 m 174 1215 l 174 1389 l 347 1389 l 347 1215 l 174 1215 m 0 868 l 0 1042 l 521 1042 l 521 868 l 0 868 m 174 521 l 174 694 l 347 694 l 347 521 l 174 521 m 174 174 l 0 174 l 0 521 l 174 521 l 174 174 m 521 174 l 347 174 l 347 521 l 521 521 l 521 174 m 347 174 l 347 0 l 174 0 l 174 174 l 347 174 z "},"Ṕ":{"ha":868,"x_min":0,"x_max":694,"o":"m 347 1215 l 347 1389 l 521 1389 l 521 1215 l 347 1215 m 174 1042 l 174 1215 l 347 1215 l 347 1042 l 174 1042 m 174 0 l 0 0 l 0 868 l 521 868 l 521 694 l 174 694 l 174 521 l 521 521 l 521 347 l 174 347 l 174 0 m 521 521 l 521 694 l 694 694 l 694 521 l 521 521 z "},"ṕ":{"ha":694,"x_min":0,"x_max":521,"o":"m 347 1042 l 347 1215 l 521 1215 l 521 1042 l 347 1042 m 174 868 l 174 1042 l 347 1042 l 347 868 l 174 868 m 347 174 l 347 0 l 174 0 l 174 -174 l 0 -174 l 0 694 l 347 694 l 347 521 l 174 521 l 174 174 l 347 174 m 521 174 l 347 174 l 347 521 l 521 521 l 521 174 z "},"Ṗ":{"ha":868,"x_min":0,"x_max":694,"o":"m 347 1042 l 347 1215 l 521 1215 l 521 1042 l 347 1042 m 174 0 l 0 0 l 0 868 l 521 868 l 521 694 l 174 694 l 174 521 l 521 521 l 521 347 l 174 347 l 174 0 m 521 521 l 521 694 l 694 694 l 694 521 l 521 521 z "},"ṗ":{"ha":694,"x_min":0,"x_max":521,"o":"m 174 868 l 174 1042 l 347 1042 l 347 868 l 174 868 m 347 174 l 347 0 l 174 0 l 174 -174 l 0 -174 l 0 694 l 347 694 l 347 521 l 174 521 l 174 174 l 347 174 m 521 174 l 347 174 l 347 521 l 521 521 l 521 174 z "},"Ṙ":{"ha":868,"x_min":0,"x_max":694,"o":"m 347 1042 l 347 1215 l 521 1215 l 521 1042 l 347 1042 m 174 0 l 0 0 l 0 868 l 521 868 l 521 694 l 174 694 l 174 521 l 521 521 l 521 347 l 174 347 l 174 0 m 694 521 l 521 521 l 521 694 l 694 694 l 694 521 m 694 0 l 521 0 l 521 347 l 694 347 l 694 0 z "},"ṙ":{"ha":521,"x_min":0,"x_max":347,"o":"m 174 868 l 174 1042 l 347 1042 l 347 868 l 174 868 m 174 0 l 0 0 l 0 694 l 347 694 l 347 521 l 174 521 l 174 0 z "},"Ṛ":{"ha":868,"x_min":0,"x_max":694,"o":"m 347 -347 l 347 -174 l 521 -174 l 521 -347 l 347 -347 m 174 0 l 0 0 l 0 868 l 521 868 l 521 694 l 174 694 l 174 521 l 521 521 l 521 347 l 174 347 l 174 0 m 694 521 l 521 521 l 521 694 l 694 694 l 694 521 m 694 0 l 521 0 l 521 347 l 694 347 l 694 0 z "},"ṛ":{"ha":521,"x_min":0,"x_max":347,"o":"m 0 -347 l 0 -174 l 174 -174 l 174 -347 l 0 -347 m 174 0 l 0 0 l 0 694 l 347 694 l 347 521 l 174 521 l 174 0 z "},"Ṝ":{"ha":868,"x_min":0,"x_max":694,"o":"m 0 1042 l 0 1215 l 694 1215 l 694 1042 l 0 1042 m 174 0 l 0 0 l 0 868 l 521 868 l 521 694 l 174 694 l 174 521 l 521 521 l 521 347 l 174 347 l 174 0 m 694 521 l 521 521 l 521 694 l 694 694 l 694 521 m 694 0 l 521 0 l 521 347 l 694 347 l 694 0 m 347 -347 l 347 -174 l 521 -174 l 521 -347 l 347 -347 z "},"ṝ":{"ha":521,"x_min":0,"x_max":521,"o":"m 0 868 l 0 1042 l 521 1042 l 521 868 l 0 868 m 0 -347 l 0 -174 l 174 -174 l 174 -347 l 0 -347 m 174 0 l 0 0 l 0 694 l 347 694 l 347 521 l 174 521 l 174 0 z "},"Ṟ":{"ha":868,"x_min":0,"x_max":694,"o":"m 174 0 l 0 0 l 0 868 l 521 868 l 521 694 l 174 694 l 174 521 l 521 521 l 521 347 l 174 347 l 174 0 m 694 521 l 521 521 l 521 694 l 694 694 l 694 521 m 694 0 l 521 0 l 521 347 l 694 347 l 694 0 m 0 -347 l 0 -174 l 694 -174 l 694 -347 l 0 -347 z "},"ṟ":{"ha":521,"x_min":-174,"x_max":347,"o":"m -174 -347 l -174 -174 l 347 -174 l 347 -347 l -174 -347 m 174 0 l 0 0 l 0 694 l 347 694 l 347 521 l 174 521 l 174 0 z "},"Ṡ":{"ha":868,"x_min":0,"x_max":694,"o":"m 347 1042 l 347 1215 l 521 1215 l 521 1042 l 347 1042 m 174 694 l 174 868 l 694 868 l 694 694 l 174 694 m 0 521 l 0 694 l 174 694 l 174 521 l 0 521 m 174 521 l 521 521 l 521 347 l 174 347 l 174 521 m 694 174 l 521 174 l 521 347 l 694 347 l 694 174 m 521 174 l 521 0 l 0 0 l 0 174 l 521 174 z "},"ṡ":{"ha":694,"x_min":0,"x_max":521,"o":"m 174 868 l 174 1042 l 347 1042 l 347 868 l 174 868 m 174 521 l 174 694 l 521 694 l 521 521 l 347 521 l 347 347 l 0 347 l 0 521 l 174 521 m 521 174 l 347 174 l 347 347 l 521 347 l 521 174 m 347 174 l 347 0 l 0 0 l 0 174 l 347 174 z "},"Ṣ":{"ha":868,"x_min":0,"x_max":694,"o":"m 347 -347 l 347 -174 l 521 -174 l 521 -347 l 347 -347 m 174 694 l 174 868 l 694 868 l 694 694 l 174 694 m 0 521 l 0 694 l 174 694 l 174 521 l 0 521 m 174 521 l 521 521 l 521 347 l 174 347 l 174 521 m 694 174 l 521 174 l 521 347 l 694 347 l 694 174 m 521 174 l 521 0 l 0 0 l 0 174 l 521 174 z "},"ṣ":{"ha":694,"x_min":0,"x_max":521,"o":"m 174 -347 l 174 -174 l 347 -174 l 347 -347 l 174 -347 m 174 521 l 174 694 l 521 694 l 521 521 l 347 521 l 347 347 l 0 347 l 0 521 l 174 521 m 521 174 l 347 174 l 347 347 l 521 347 l 521 174 m 347 174 l 347 0 l 0 0 l 0 174 l 347 174 z "},"Ṥ":{"ha":868,"x_min":0,"x_max":694,"o":"m 347 1563 l 347 1736 l 521 1736 l 521 1563 l 347 1563 m 347 1215 l 347 1389 l 521 1389 l 521 1215 l 347 1215 m 174 1042 l 174 1215 l 347 1215 l 347 1042 l 174 1042 m 174 694 l 174 868 l 694 868 l 694 694 l 174 694 m 0 521 l 0 694 l 174 694 l 174 521 l 0 521 m 174 521 l 521 521 l 521 347 l 174 347 l 174 521 m 694 174 l 521 174 l 521 347 l 694 347 l 694 174 m 521 174 l 521 0 l 0 0 l 0 174 l 521 174 z "},"ṥ":{"ha":694,"x_min":0,"x_max":521,"o":"m 174 1389 l 174 1563 l 347 1563 l 347 1389 l 174 1389 m 347 1042 l 347 1215 l 521 1215 l 521 1042 l 347 1042 m 174 868 l 174 1042 l 347 1042 l 347 868 l 174 868 m 174 521 l 174 694 l 521 694 l 521 521 l 347 521 l 347 347 l 0 347 l 0 521 l 174 521 m 521 174 l 347 174 l 347 347 l 521 347 l 521 174 m 347 174 l 347 0 l 0 0 l 0 174 l 347 174 z "},"Ṧ":{"ha":868,"x_min":0,"x_max":694,"o":"m 347 1563 l 347 1736 l 521 1736 l 521 1563 l 347 1563 m 0 1389 l 174 1389 l 174 1215 l 0 1215 l 0 1389 m 521 1389 l 694 1389 l 694 1215 l 521 1215 l 521 1389 m 174 1215 l 521 1215 l 521 1042 l 174 1042 l 174 1215 m 174 694 l 174 868 l 694 868 l 694 694 l 174 694 m 0 521 l 0 694 l 174 694 l 174 521 l 0 521 m 174 521 l 521 521 l 521 347 l 174 347 l 174 521 m 694 174 l 521 174 l 521 347 l 694 347 l 694 174 m 521 174 l 521 0 l 0 0 l 0 174 l 521 174 z "},"ṧ":{"ha":694,"x_min":0,"x_max":521,"o":"m 174 1389 l 174 1563 l 347 1563 l 347 1389 l 174 1389 m 0 1042 l 0 1215 l 174 1215 l 174 1042 l 0 1042 m 347 1042 l 347 1215 l 521 1215 l 521 1042 l 347 1042 m 174 868 l 174 1042 l 347 1042 l 347 868 l 174 868 m 174 521 l 174 694 l 521 694 l 521 521 l 347 521 l 347 347 l 0 347 l 0 521 l 174 521 m 521 174 l 347 174 l 347 347 l 521 347 l 521 174 m 347 174 l 347 0 l 0 0 l 0 174 l 347 174 z "},"Ṩ":{"ha":868,"x_min":0,"x_max":694,"o":"m 347 1042 l 347 1215 l 521 1215 l 521 1042 l 347 1042 m 347 -347 l 347 -174 l 521 -174 l 521 -347 l 347 -347 m 174 694 l 174 868 l 694 868 l 694 694 l 174 694 m 0 521 l 0 694 l 174 694 l 174 521 l 0 521 m 174 521 l 521 521 l 521 347 l 174 347 l 174 521 m 694 174 l 521 174 l 521 347 l 694 347 l 694 174 m 521 174 l 521 0 l 0 0 l 0 174 l 521 174 z "},"ṩ":{"ha":694,"x_min":0,"x_max":521,"o":"m 174 868 l 174 1042 l 347 1042 l 347 868 l 174 868 m 174 -347 l 174 -174 l 347 -174 l 347 -347 l 174 -347 m 174 521 l 174 694 l 521 694 l 521 521 l 347 521 l 347 347 l 0 347 l 0 521 l 174 521 m 521 174 l 347 174 l 347 347 l 521 347 l 521 174 m 347 174 l 347 0 l 0 0 l 0 174 l 347 174 z "},"Ṫ":{"ha":694,"x_min":0,"x_max":521,"o":"m 174 1042 l 174 1215 l 347 1215 l 347 1042 l 174 1042 m 347 0 l 174 0 l 174 694 l 0 694 l 0 868 l 521 868 l 521 694 l 347 694 l 347 0 z "},"ṫ":{"ha":521,"x_min":0,"x_max":347,"o":"m 0 1042 l 0 1215 l 174 1215 l 174 1042 l 0 1042 m 174 174 l 0 174 l 0 868 l 174 868 l 174 694 l 347 694 l 347 521 l 174 521 l 174 174 m 174 0 l 174 174 l 347 174 l 347 0 l 174 0 z "},"Ṭ":{"ha":694,"x_min":0,"x_max":521,"o":"m 174 -347 l 174 -174 l 347 -174 l 347 -347 l 174 -347 m 347 0 l 174 0 l 174 694 l 0 694 l 0 868 l 521 868 l 521 694 l 347 694 l 347 0 z "},"ṭ":{"ha":521,"x_min":0,"x_max":347,"o":"m 174 -347 l 174 -174 l 347 -174 l 347 -347 l 174 -347 m 174 174 l 0 174 l 0 868 l 174 868 l 174 694 l 347 694 l 347 521 l 174 521 l 174 174 m 174 0 l 174 174 l 347 174 l 347 0 l 174 0 z "},"Ṯ":{"ha":694,"x_min":0,"x_max":521,"o":"m 0 -347 l 0 -174 l 521 -174 l 521 -347 l 0 -347 m 347 0 l 174 0 l 174 694 l 0 694 l 0 868 l 521 868 l 521 694 l 347 694 l 347 0 z "},"ṯ":{"ha":521,"x_min":0,"x_max":521,"o":"m 0 -347 l 0 -174 l 521 -174 l 521 -347 l 0 -347 m 174 174 l 0 174 l 0 868 l 174 868 l 174 694 l 347 694 l 347 521 l 174 521 l 174 174 m 174 0 l 174 174 l 347 174 l 347 0 l 174 0 z "},"Ṱ":{"ha":694,"x_min":0,"x_max":521,"o":"m 174 -347 l 174 -174 l 347 -174 l 347 -347 l 174 -347 m 347 -347 l 521 -347 l 521 -521 l 347 -521 l 347 -347 m 0 -521 l 0 -347 l 174 -347 l 174 -521 l 0 -521 m 347 0 l 174 0 l 174 694 l 0 694 l 0 868 l 521 868 l 521 694 l 347 694 l 347 0 z "},"ṱ":{"ha":521,"x_min":0,"x_max":521,"o":"m 174 -347 l 174 -174 l 347 -174 l 347 -347 l 174 -347 m 347 -347 l 521 -347 l 521 -521 l 347 -521 l 347 -347 m 0 -521 l 0 -347 l 174 -347 l 174 -521 l 0 -521 m 174 174 l 0 174 l 0 868 l 174 868 l 174 694 l 347 694 l 347 521 l 174 521 l 174 174 m 174 0 l 174 174 l 347 174 l 347 0 l 174 0 z "},"Ṳ":{"ha":868,"x_min":0,"x_max":694,"o":"m 174 174 l 0 174 l 0 868 l 174 868 l 174 174 m 694 174 l 521 174 l 521 868 l 694 868 l 694 174 m 521 174 l 521 0 l 174 0 l 174 174 l 521 174 m 0 -347 l 0 -174 l 174 -174 l 174 -347 l 0 -347 m 521 -347 l 521 -174 l 694 -174 l 694 -347 l 521 -347 z "},"ṳ":{"ha":694,"x_min":0,"x_max":521,"o":"m 347 -347 l 347 -174 l 521 -174 l 521 -347 l 347 -347 m 0 -347 l 0 -174 l 174 -174 l 174 -347 l 0 -347 m 174 0 l 174 174 l 0 174 l 0 694 l 174 694 l 174 174 l 347 174 l 347 694 l 521 694 l 521 0 l 174 0 z "},"Ṵ":{"ha":868,"x_min":0,"x_max":694,"o":"m 174 -347 l 174 -174 l 521 -174 l 521 -347 l 174 -347 m 174 174 l 0 174 l 0 868 l 174 868 l 174 174 m 694 174 l 521 174 l 521 868 l 694 868 l 694 174 m 521 174 l 521 0 l 174 0 l 174 174 l 521 174 z "},"ṵ":{"ha":694,"x_min":0,"x_max":521,"o":"m 174 -347 l 174 -174 l 521 -174 l 521 -347 l 174 -347 m 174 0 l 174 174 l 0 174 l 0 694 l 174 694 l 174 174 l 347 174 l 347 694 l 521 694 l 521 0 l 174 0 z "},"Ṷ":{"ha":868,"x_min":0,"x_max":694,"o":"m 174 174 l 0 174 l 0 868 l 174 868 l 174 174 m 694 174 l 521 174 l 521 868 l 694 868 l 694 174 m 521 174 l 521 0 l 174 0 l 174 174 l 521 174 m 174 -347 l 174 -174 l 521 -174 l 521 -347 l 174 -347 m 0 -521 l 0 -347 l 174 -347 l 174 -521 l 0 -521 m 521 -521 l 521 -347 l 694 -347 l 694 -521 l 521 -521 z "},"ṷ":{"ha":694,"x_min":0,"x_max":521,"o":"m 174 -347 l 174 -174 l 347 -174 l 347 -347 l 174 -347 m 347 -347 l 521 -347 l 521 -521 l 347 -521 l 347 -347 m 0 -521 l 0 -347 l 174 -347 l 174 -521 l 0 -521 m 174 0 l 174 174 l 0 174 l 0 694 l 174 694 l 174 174 l 347 174 l 347 694 l 521 694 l 521 0 l 174 0 z "},"Ṹ":{"ha":868,"x_min":0,"x_max":694,"o":"m 347 1563 l 347 1736 l 521 1736 l 521 1563 l 347 1563 m 174 1389 l 174 1563 l 347 1563 l 347 1389 l 174 1389 m 174 1042 l 174 1215 l 521 1215 l 521 1042 l 174 1042 m 174 174 l 0 174 l 0 868 l 174 868 l 174 174 m 694 174 l 521 174 l 521 868 l 694 868 l 694 174 m 521 174 l 521 0 l 174 0 l 174 174 l 521 174 z "},"ṹ":{"ha":694,"x_min":0,"x_max":521,"o":"m 347 1389 l 347 1563 l 521 1563 l 521 1389 l 347 1389 m 174 1215 l 174 1389 l 347 1389 l 347 1215 l 174 1215 m 174 868 l 174 1042 l 521 1042 l 521 868 l 174 868 m 174 0 l 174 174 l 0 174 l 0 694 l 174 694 l 174 174 l 347 174 l 347 694 l 521 694 l 521 0 l 174 0 z "},"Ṻ":{"ha":868,"x_min":0,"x_max":694,"o":"m 0 1389 l 0 1563 l 174 1563 l 174 1389 l 0 1389 m 521 1389 l 521 1563 l 694 1563 l 694 1389 l 521 1389 m 0 1042 l 0 1215 l 694 1215 l 694 1042 l 0 1042 m 174 174 l 0 174 l 0 868 l 174 868 l 174 174 m 694 174 l 521 174 l 521 868 l 694 868 l 694 174 m 521 174 l 521 0 l 174 0 l 174 174 l 521 174 z "},"ṻ":{"ha":694,"x_min":0,"x_max":521,"o":"m 0 1215 l 0 1389 l 174 1389 l 174 1215 l 0 1215 m 347 1215 l 347 1389 l 521 1389 l 521 1215 l 347 1215 m 0 868 l 0 1042 l 521 1042 l 521 868 l 0 868 m 174 0 l 174 174 l 0 174 l 0 694 l 174 694 l 174 174 l 347 174 l 347 694 l 521 694 l 521 0 l 174 0 z "},"Ṽ":{"ha":694,"x_min":0,"x_max":521,"o":"m 174 1042 l 174 1215 l 521 1215 l 521 1042 l 174 1042 m 174 347 l 0 347 l 0 868 l 174 868 l 174 347 m 347 347 l 347 868 l 521 868 l 521 347 l 347 347 m 347 0 l 174 0 l 174 347 l 347 347 l 347 0 z "},"ṽ":{"ha":694,"x_min":0,"x_max":521,"o":"m 174 868 l 174 1042 l 521 1042 l 521 868 l 174 868 m 174 347 l 0 347 l 0 694 l 174 694 l 174 347 m 347 347 l 347 694 l 521 694 l 521 347 l 347 347 m 347 0 l 174 0 l 174 347 l 347 347 l 347 0 z "},"Ṿ":{"ha":694,"x_min":0,"x_max":521,"o":"m 174 -347 l 174 -174 l 347 -174 l 347 -347 l 174 -347 m 174 347 l 0 347 l 0 868 l 174 868 l 174 347 m 347 347 l 347 868 l 521 868 l 521 347 l 347 347 m 347 0 l 174 0 l 174 347 l 347 347 l 347 0 z "},"ṿ":{"ha":694,"x_min":0,"x_max":521,"o":"m 174 -347 l 174 -174 l 347 -174 l 347 -347 l 174 -347 m 174 347 l 0 347 l 0 694 l 174 694 l 174 347 m 347 347 l 347 694 l 521 694 l 521 347 l 347 347 m 347 0 l 174 0 l 174 347 l 347 347 l 347 0 z "},"Ẇ":{"ha":1042,"x_min":0,"x_max":868,"o":"m 347 1042 l 347 1215 l 521 1215 l 521 1042 l 347 1042 m 174 347 l 0 347 l 0 868 l 174 868 l 174 347 m 347 347 l 347 868 l 521 868 l 521 347 l 347 347 m 694 347 l 694 868 l 868 868 l 868 347 l 694 347 m 347 0 l 174 0 l 174 347 l 347 347 l 347 0 m 694 0 l 521 0 l 521 347 l 694 347 l 694 0 z "},"ẇ":{"ha":1042,"x_min":0,"x_max":868,"o":"m 347 868 l 347 1042 l 521 1042 l 521 868 l 347 868 m 174 347 l 0 347 l 0 694 l 174 694 l 174 347 m 347 347 l 347 694 l 521 694 l 521 347 l 347 347 m 694 347 l 694 694 l 868 694 l 868 347 l 694 347 m 347 0 l 174 0 l 174 347 l 347 347 l 347 0 m 694 0 l 521 0 l 521 347 l 694 347 l 694 0 z "},"Ẉ":{"ha":1042,"x_min":0,"x_max":868,"o":"m 347 -347 l 347 -174 l 521 -174 l 521 -347 l 347 -347 m 174 347 l 0 347 l 0 868 l 174 868 l 174 347 m 347 347 l 347 868 l 521 868 l 521 347 l 347 347 m 694 347 l 694 868 l 868 868 l 868 347 l 694 347 m 347 0 l 174 0 l 174 347 l 347 347 l 347 0 m 694 0 l 521 0 l 521 347 l 694 347 l 694 0 z "},"ẉ":{"ha":1042,"x_min":0,"x_max":868,"o":"m 347 -347 l 347 -174 l 521 -174 l 521 -347 l 347 -347 m 174 347 l 0 347 l 0 694 l 174 694 l 174 347 m 347 347 l 347 694 l 521 694 l 521 347 l 347 347 m 694 347 l 694 694 l 868 694 l 868 347 l 694 347 m 347 0 l 174 0 l 174 347 l 347 347 l 347 0 m 694 0 l 521 0 l 521 347 l 694 347 l 694 0 z "},"Ẋ":{"ha":694,"x_min":0,"x_max":521,"o":"m 174 1042 l 174 1215 l 347 1215 l 347 1042 l 174 1042 m 174 521 l 0 521 l 0 868 l 174 868 l 174 521 m 521 521 l 347 521 l 347 868 l 521 868 l 521 521 m 347 521 l 347 347 l 174 347 l 174 521 l 347 521 m 174 0 l 0 0 l 0 347 l 174 347 l 174 0 m 521 0 l 347 0 l 347 347 l 521 347 l 521 0 z "},"ẋ":{"ha":694,"x_min":0,"x_max":521,"o":"m 174 868 l 174 1042 l 347 1042 l 347 868 l 174 868 m 0 521 l 0 694 l 174 694 l 174 521 l 0 521 m 347 521 l 347 694 l 521 694 l 521 521 l 347 521 m 347 174 l 174 174 l 174 521 l 347 521 l 347 174 m 174 174 l 174 0 l 0 0 l 0 174 l 174 174 m 347 0 l 347 174 l 521 174 l 521 0 l 347 0 z "},"Ẍ":{"ha":694,"x_min":0,"x_max":521,"o":"m 0 1042 l 0 1215 l 174 1215 l 174 1042 l 0 1042 m 347 1042 l 347 1215 l 521 1215 l 521 1042 l 347 1042 m 174 521 l 0 521 l 0 868 l 174 868 l 174 521 m 521 521 l 347 521 l 347 868 l 521 868 l 521 521 m 347 521 l 347 347 l 174 347 l 174 521 l 347 521 m 174 0 l 0 0 l 0 347 l 174 347 l 174 0 m 521 0 l 347 0 l 347 347 l 521 347 l 521 0 z "},"ẍ":{"ha":694,"x_min":0,"x_max":521,"o":"m 0 868 l 0 1042 l 174 1042 l 174 868 l 0 868 m 347 868 l 347 1042 l 521 1042 l 521 868 l 347 868 m 0 521 l 0 694 l 174 694 l 174 521 l 0 521 m 347 521 l 347 694 l 521 694 l 521 521 l 347 521 m 347 174 l 174 174 l 174 521 l 347 521 l 347 174 m 174 174 l 174 0 l 0 0 l 0 174 l 174 174 m 347 0 l 347 174 l 521 174 l 521 0 l 347 0 z "},"Ẏ":{"ha":694,"x_min":0,"x_max":521,"o":"m 174 1042 l 174 1215 l 347 1215 l 347 1042 l 174 1042 m 174 521 l 0 521 l 0 868 l 174 868 l 174 521 m 347 521 l 347 868 l 521 868 l 521 521 l 347 521 m 347 0 l 174 0 l 174 521 l 347 521 l 347 0 z "},"ẏ":{"ha":694,"x_min":0,"x_max":521,"o":"m 174 868 l 174 1042 l 347 1042 l 347 868 l 174 868 m 174 174 l 0 174 l 0 694 l 174 694 l 174 174 m 521 174 l 347 174 l 347 694 l 521 694 l 521 174 m 347 174 l 347 0 l 174 0 l 174 174 l 347 174 m 0 -174 l 0 0 l 174 0 l 174 -174 l 0 -174 z "},"Ẑ":{"ha":694,"x_min":0,"x_max":521,"o":"m 174 1215 l 174 1389 l 347 1389 l 347 1215 l 174 1215 m 0 1042 l 0 1215 l 174 1215 l 174 1042 l 0 1042 m 347 1042 l 347 1215 l 521 1215 l 521 1042 l 347 1042 m 521 521 l 347 521 l 347 694 l 0 694 l 0 868 l 521 868 l 521 521 m 347 521 l 347 347 l 174 347 l 174 521 l 347 521 m 521 174 l 521 0 l 0 0 l 0 347 l 174 347 l 174 174 l 521 174 z "},"ẑ":{"ha":694,"x_min":0,"x_max":521,"o":"m 174 1042 l 174 1215 l 347 1215 l 347 1042 l 174 1042 m 0 868 l 0 1042 l 174 1042 l 174 868 l 0 868 m 347 868 l 347 1042 l 521 1042 l 521 868 l 347 868 m 0 521 l 0 694 l 521 694 l 521 521 l 347 521 l 347 347 l 174 347 l 174 521 l 0 521 m 521 174 l 521 0 l 0 0 l 0 347 l 174 347 l 174 174 l 521 174 z "},"Ẓ":{"ha":694,"x_min":0,"x_max":521,"o":"m 174 -347 l 174 -174 l 347 -174 l 347 -347 l 174 -347 m 521 521 l 347 521 l 347 694 l 0 694 l 0 868 l 521 868 l 521 521 m 347 521 l 347 347 l 174 347 l 174 521 l 347 521 m 521 174 l 521 0 l 0 0 l 0 347 l 174 347 l 174 174 l 521 174 z "},"ẓ":{"ha":694,"x_min":0,"x_max":521,"o":"m 174 -347 l 174 -174 l 347 -174 l 347 -347 l 174 -347 m 0 521 l 0 694 l 521 694 l 521 521 l 347 521 l 347 347 l 174 347 l 174 521 l 0 521 m 521 174 l 521 0 l 0 0 l 0 347 l 174 347 l 174 174 l 521 174 z "},"Ẕ":{"ha":694,"x_min":0,"x_max":521,"o":"m 0 -347 l 0 -174 l 521 -174 l 521 -347 l 0 -347 m 521 521 l 347 521 l 347 694 l 0 694 l 0 868 l 521 868 l 521 521 m 347 521 l 347 347 l 174 347 l 174 521 l 347 521 m 521 174 l 521 0 l 0 0 l 0 347 l 174 347 l 174 174 l 521 174 z "},"ẕ":{"ha":694,"x_min":0,"x_max":521,"o":"m 0 -347 l 0 -174 l 521 -174 l 521 -347 l 0 -347 m 0 521 l 0 694 l 521 694 l 521 521 l 347 521 l 347 347 l 174 347 l 174 521 l 0 521 m 521 174 l 521 0 l 0 0 l 0 347 l 174 347 l 174 174 l 521 174 z "},"ẞ":{"ha":868,"x_min":0,"x_max":694,"o":"m 694 521 l 521 521 l 521 694 l 174 694 l 174 868 l 694 868 l 694 521 m 174 0 l 0 0 l 0 694 l 174 694 l 174 0 m 521 521 l 521 347 l 347 347 l 347 521 l 521 521 m 694 174 l 521 174 l 521 347 l 694 347 l 694 174 m 521 174 l 521 0 l 347 0 l 347 174 l 521 174 z "},"Ạ":{"ha":868,"x_min":0,"x_max":694,"o":"m 347 -347 l 347 -174 l 521 -174 l 521 -347 l 347 -347 m 174 694 l 174 868 l 521 868 l 521 694 l 174 694 m 174 0 l 0 0 l 0 694 l 174 694 l 174 521 l 521 521 l 521 694 l 694 694 l 694 0 l 521 0 l 521 347 l 174 347 l 174 0 z "},"ạ":{"ha":694,"x_min":0,"x_max":521,"o":"m 174 -347 l 174 -174 l 347 -174 l 347 -347 l 174 -347 m 174 0 l 174 174 l 0 174 l 0 521 l 174 521 l 174 174 l 347 174 l 347 521 l 174 521 l 174 694 l 521 694 l 521 0 l 174 0 z "},"Ậ":{"ha":868,"x_min":0,"x_max":694,"o":"m 174 1215 l 174 1389 l 521 1389 l 521 1215 l 174 1215 m 0 1042 l 0 1215 l 174 1215 l 174 1042 l 0 1042 m 521 1042 l 521 1215 l 694 1215 l 694 1042 l 521 1042 m 174 694 l 174 868 l 521 868 l 521 694 l 174 694 m 174 0 l 0 0 l 0 694 l 174 694 l 174 521 l 521 521 l 521 694 l 694 694 l 694 0 l 521 0 l 521 347 l 174 347 l 174 0 m 347 -347 l 347 -174 l 521 -174 l 521 -347 l 347 -347 z "},"ậ":{"ha":694,"x_min":0,"x_max":521,"o":"m 174 1042 l 174 1215 l 347 1215 l 347 1042 l 174 1042 m 0 868 l 0 1042 l 174 1042 l 174 868 l 0 868 m 347 868 l 347 1042 l 521 1042 l 521 868 l 347 868 m 174 -347 l 174 -174 l 347 -174 l 347 -347 l 174 -347 m 174 0 l 174 174 l 0 174 l 0 521 l 174 521 l 174 174 l 347 174 l 347 521 l 174 521 l 174 694 l 521 694 l 521 0 l 174 0 z "},"Ẹ":{"ha":868,"x_min":0,"x_max":694,"o":"m 347 -347 l 347 -174 l 521 -174 l 521 -347 l 347 -347 m 694 174 l 694 0 l 0 0 l 0 868 l 694 868 l 694 694 l 174 694 l 174 521 l 521 521 l 521 347 l 174 347 l 174 174 l 694 174 z "},"ẹ":{"ha":694,"x_min":0,"x_max":521,"o":"m 174 -347 l 174 -174 l 347 -174 l 347 -347 l 174 -347 m 174 174 l 0 174 l 0 521 l 174 521 l 174 694 l 347 694 l 347 521 l 521 521 l 521 347 l 174 347 l 174 174 m 174 0 l 174 174 l 521 174 l 521 0 l 174 0 z "},"Ẽ":{"ha":868,"x_min":0,"x_max":694,"o":"m 174 1042 l 174 1215 l 521 1215 l 521 1042 l 174 1042 m 694 174 l 694 0 l 0 0 l 0 868 l 694 868 l 694 694 l 174 694 l 174 521 l 521 521 l 521 347 l 174 347 l 174 174 l 694 174 z "},"ẽ":{"ha":694,"x_min":0,"x_max":521,"o":"m 174 868 l 174 1042 l 521 1042 l 521 868 l 174 868 m 174 174 l 0 174 l 0 521 l 174 521 l 174 694 l 347 694 l 347 521 l 521 521 l 521 347 l 174 347 l 174 174 m 174 0 l 174 174 l 521 174 l 521 0 l 174 0 z "},"Ệ":{"ha":868,"x_min":0,"x_max":694,"o":"m 174 1215 l 174 1389 l 521 1389 l 521 1215 l 174 1215 m 0 1042 l 0 1215 l 174 1215 l 174 1042 l 0 1042 m 521 1042 l 521 1215 l 694 1215 l 694 1042 l 521 1042 m 694 174 l 694 0 l 0 0 l 0 868 l 694 868 l 694 694 l 174 694 l 174 521 l 521 521 l 521 347 l 174 347 l 174 174 l 694 174 m 347 -347 l 347 -174 l 521 -174 l 521 -347 l 347 -347 z "},"ệ":{"ha":694,"x_min":0,"x_max":521,"o":"m 174 1042 l 174 1215 l 347 1215 l 347 1042 l 174 1042 m 0 868 l 0 1042 l 174 1042 l 174 868 l 0 868 m 347 868 l 347 1042 l 521 1042 l 521 868 l 347 868 m 174 -347 l 174 -174 l 347 -174 l 347 -347 l 174 -347 m 174 174 l 0 174 l 0 521 l 174 521 l 174 694 l 347 694 l 347 521 l 521 521 l 521 347 l 174 347 l 174 174 m 174 0 l 174 174 l 521 174 l 521 0 l 174 0 z "},"Ị":{"ha":347,"x_min":0,"x_max":174,"o":"m 0 -347 l 0 -174 l 174 -174 l 174 -347 l 0 -347 m 174 0 l 0 0 l 0 868 l 174 868 l 174 0 z "},"ị":{"ha":347,"x_min":0,"x_max":174,"o":"m 0 -347 l 0 -174 l 174 -174 l 174 -347 l 0 -347 m 0 868 l 0 1042 l 174 1042 l 174 868 l 0 868 m 174 0 l 0 0 l 0 694 l 174 694 l 174 0 z "},"Ọ":{"ha":868,"x_min":0,"x_max":694,"o":"m 347 -347 l 347 -174 l 521 -174 l 521 -347 l 347 -347 m 174 694 l 174 868 l 521 868 l 521 694 l 174 694 m 174 174 l 0 174 l 0 694 l 174 694 l 174 174 m 694 174 l 521 174 l 521 694 l 694 694 l 694 174 m 521 174 l 521 0 l 174 0 l 174 174 l 521 174 z "},"ọ":{"ha":694,"x_min":0,"x_max":521,"o":"m 174 -347 l 174 -174 l 347 -174 l 347 -347 l 174 -347 m 174 521 l 174 694 l 347 694 l 347 521 l 174 521 m 174 174 l 0 174 l 0 521 l 174 521 l 174 174 m 521 174 l 347 174 l 347 521 l 521 521 l 521 174 m 347 174 l 347 0 l 174 0 l 174 174 l 347 174 z "},"Ộ":{"ha":868,"x_min":0,"x_max":694,"o":"m 174 1215 l 174 1389 l 521 1389 l 521 1215 l 174 1215 m 0 1042 l 0 1215 l 174 1215 l 174 1042 l 0 1042 m 521 1042 l 521 1215 l 694 1215 l 694 1042 l 521 1042 m 174 694 l 174 868 l 521 868 l 521 694 l 174 694 m 174 174 l 0 174 l 0 694 l 174 694 l 174 174 m 694 174 l 521 174 l 521 694 l 694 694 l 694 174 m 521 174 l 521 0 l 174 0 l 174 174 l 521 174 m 347 -347 l 347 -174 l 521 -174 l 521 -347 l 347 -347 z "},"ộ":{"ha":694,"x_min":0,"x_max":521,"o":"m 174 1042 l 174 1215 l 347 1215 l 347 1042 l 174 1042 m 0 868 l 0 1042 l 174 1042 l 174 868 l 0 868 m 347 868 l 347 1042 l 521 1042 l 521 868 l 347 868 m 174 -347 l 174 -174 l 347 -174 l 347 -347 l 174 -347 m 174 521 l 174 694 l 347 694 l 347 521 l 174 521 m 174 174 l 0 174 l 0 521 l 174 521 l 174 174 m 521 174 l 347 174 l 347 521 l 521 521 l 521 174 m 347 174 l 347 0 l 174 0 l 174 174 l 347 174 z "},"Ụ":{"ha":868,"x_min":0,"x_max":694,"o":"m 347 -347 l 347 -174 l 521 -174 l 521 -347 l 347 -347 m 174 174 l 0 174 l 0 868 l 174 868 l 174 174 m 694 174 l 521 174 l 521 868 l 694 868 l 694 174 m 521 174 l 521 0 l 174 0 l 174 174 l 521 174 z "},"ụ":{"ha":694,"x_min":0,"x_max":521,"o":"m 174 -347 l 174 -174 l 347 -174 l 347 -347 l 174 -347 m 174 0 l 174 174 l 0 174 l 0 694 l 174 694 l 174 174 l 347 174 l 347 694 l 521 694 l 521 0 l 174 0 z "},"‖":{"ha":694,"x_min":0,"x_max":521,"o":"m 174 0 l 0 0 l 0 868 l 174 868 l 174 0 m 521 0 l 347 0 l 347 868 l 521 868 l 521 0 z "},"‟":{"ha":694,"x_min":0,"x_max":521,"o":"m 174 694 l 0 694 l 0 1042 l 174 1042 l 174 694 m 521 694 l 347 694 l 347 1042 l 521 1042 l 521 694 z "},"‣":{"ha":521,"x_min":0,"x_max":347,"o":"m 174 174 l 0 174 l 0 694 l 174 694 l 174 521 l 347 521 l 347 347 l 174 347 l 174 174 z "},"․":{"ha":347,"x_min":0,"x_max":174,"o":"m 0 0 l 0 174 l 174 174 l 174 0 l 0 0 z "},"‥":{"ha":694,"x_min":0,"x_max":521,"o":"m 0 0 l 0 174 l 174 174 l 174 0 l 0 0 m 347 0 l 347 174 l 521 174 l 521 0 l 347 0 z "},"‱":{"ha":1563,"x_min":0,"x_max":1389,"o":"m 174 868 l 174 694 l 0 694 l 0 868 l 174 868 m 521 694 l 521 868 l 694 868 l 694 694 l 521 694 m 347 521 l 347 694 l 521 694 l 521 521 l 347 521 m 174 347 l 174 521 l 347 521 l 347 347 l 174 347 m 0 174 l 0 347 l 174 347 l 174 174 l 0 174 m 521 174 l 521 347 l 694 347 l 694 174 l 521 174 m 868 174 l 868 347 l 1042 347 l 1042 174 l 868 174 m 1215 174 l 1215 347 l 1389 347 l 1389 174 l 1215 174 z "},"‴":{"ha":1042,"x_min":0,"x_max":868,"o":"m 174 694 l 0 694 l 0 1042 l 174 1042 l 174 694 m 521 694 l 347 694 l 347 1042 l 521 1042 l 521 694 m 868 694 l 694 694 l 694 1042 l 868 1042 l 868 694 z "},"‵":{"ha":347,"x_min":0,"x_max":174,"o":"m 174 694 l 0 694 l 0 1042 l 174 1042 l 174 694 z "},"‶":{"ha":694,"x_min":0,"x_max":521,"o":"m 174 694 l 0 694 l 0 1042 l 174 1042 l 174 694 m 521 694 l 347 694 l 347 1042 l 521 1042 l 521 694 z "},"‷":{"ha":1042,"x_min":0,"x_max":868,"o":"m 174 694 l 0 694 l 0 1042 l 174 1042 l 174 694 m 521 694 l 347 694 l 347 1042 l 521 1042 l 521 694 m 868 694 l 694 694 l 694 1042 l 868 1042 l 868 694 z "},"⁴":{"ha":694,"x_min":0,"x_max":521,"o":"m 347 174 l 347 347 l 0 347 l 0 521 l 174 521 l 174 694 l 347 694 l 347 868 l 521 868 l 521 174 l 347 174 z "},"⁵":{"ha":694,"x_min":0,"x_max":521,"o":"m 0 521 l 0 868 l 521 868 l 521 694 l 347 694 l 347 521 l 0 521 m 347 521 l 521 521 l 521 347 l 347 347 l 347 521 m 0 174 l 0 347 l 347 347 l 347 174 l 0 174 z "},"⁶":{"ha":694,"x_min":0,"x_max":521,"o":"m 174 521 l 174 347 l 0 347 l 0 694 l 174 694 l 174 868 l 521 868 l 521 694 l 347 694 l 347 521 l 174 521 m 347 521 l 521 521 l 521 347 l 347 347 l 347 521 m 174 174 l 174 347 l 347 347 l 347 174 l 174 174 z "},"⁷":{"ha":694,"x_min":0,"x_max":521,"o":"m 347 521 l 347 694 l 0 694 l 0 868 l 521 868 l 521 521 l 347 521 m 347 174 l 174 174 l 174 521 l 347 521 l 347 174 z "},"⁸":{"ha":694,"x_min":0,"x_max":521,"o":"m 174 521 l 174 347 l 0 347 l 0 694 l 174 694 l 174 868 l 347 868 l 347 694 l 521 694 l 521 347 l 347 347 l 347 521 l 174 521 m 174 174 l 174 347 l 347 347 l 347 174 l 174 174 z "},"⁹":{"ha":694,"x_min":0,"x_max":521,"o":"m 174 694 l 174 868 l 347 868 l 347 694 l 174 694 m 0 174 l 0 347 l 174 347 l 174 521 l 0 521 l 0 694 l 174 694 l 174 521 l 347 521 l 347 694 l 521 694 l 521 347 l 347 347 l 347 174 l 0 174 z "},"₁":{"ha":521,"x_min":0,"x_max":347,"o":"m 347 0 l 174 0 l 174 347 l 0 347 l 0 521 l 174 521 l 174 694 l 347 694 l 347 0 z "},"₂":{"ha":694,"x_min":0,"x_max":521,"o":"m 0 521 l 0 694 l 347 694 l 347 521 l 0 521 m 347 521 l 521 521 l 521 347 l 347 347 l 347 521 m 174 174 l 174 347 l 347 347 l 347 174 l 521 174 l 521 0 l 0 0 l 0 174 l 174 174 z "},"₃":{"ha":694,"x_min":0,"x_max":521,"o":"m 0 521 l 0 694 l 521 694 l 521 521 l 347 521 l 347 347 l 174 347 l 174 521 l 0 521 m 521 174 l 347 174 l 347 347 l 521 347 l 521 174 m 347 174 l 347 0 l 0 0 l 0 174 l 347 174 z "},"₄":{"ha":694,"x_min":0,"x_max":521,"o":"m 0 174 l 0 347 l 174 347 l 174 521 l 347 521 l 347 694 l 521 694 l 521 0 l 347 0 l 347 174 l 0 174 z "},"₅":{"ha":694,"x_min":0,"x_max":521,"o":"m 347 521 l 347 347 l 0 347 l 0 694 l 521 694 l 521 521 l 347 521 m 521 174 l 347 174 l 347 347 l 521 347 l 521 174 m 347 174 l 347 0 l 0 0 l 0 174 l 347 174 z "},"₆":{"ha":694,"x_min":0,"x_max":521,"o":"m 174 174 l 0 174 l 0 521 l 174 521 l 174 694 l 521 694 l 521 521 l 347 521 l 347 347 l 174 347 l 174 174 m 521 174 l 347 174 l 347 347 l 521 347 l 521 174 m 347 174 l 347 0 l 174 0 l 174 174 l 347 174 z "},"₇":{"ha":694,"x_min":0,"x_max":521,"o":"m 0 521 l 0 694 l 521 694 l 521 347 l 347 347 l 347 521 l 0 521 m 347 0 l 174 0 l 174 347 l 347 347 l 347 0 z "},"₈":{"ha":694,"x_min":0,"x_max":521,"o":"m 174 174 l 0 174 l 0 521 l 174 521 l 174 694 l 347 694 l 347 521 l 521 521 l 521 174 l 347 174 l 347 347 l 174 347 l 174 174 m 347 174 l 347 0 l 174 0 l 174 174 l 347 174 z "},"₉":{"ha":694,"x_min":0,"x_max":521,"o":"m 347 521 l 174 521 l 174 694 l 347 694 l 347 521 m 174 174 l 174 347 l 0 347 l 0 521 l 174 521 l 174 347 l 347 347 l 347 521 l 521 521 l 521 174 l 347 174 l 347 0 l 0 0 l 0 174 l 174 174 z "}}}
